%TF.GenerationSoftware,KiCad,Pcbnew,7.0.2-1.fc37*%
%TF.CreationDate,2023-04-28T11:32:25+01:00*%
%TF.ProjectId,grblPANEL_210x200_Front_Panel,6772626c-5041-44e4-954c-5f3231307832,A*%
%TF.SameCoordinates,Original*%
%TF.FileFunction,Drillmap*%
%TF.FilePolarity,Positive*%
%FSLAX45Y45*%
G04 Gerber Fmt 4.5, Leading zero omitted, Abs format (unit mm)*
G04 Created by KiCad (PCBNEW 7.0.2-1.fc37) date 2023-04-28 11:32:25*
%MOMM*%
%LPD*%
G01*
G04 APERTURE LIST*
%ADD10C,0.200000*%
G04 APERTURE END LIST*
D10*
X20685000Y-20465000D02*
X20685000Y-19535000D01*
X19086000Y-19525250D02*
X19087200Y-19520490D01*
X23295500Y-23544500D02*
X23262200Y-23532600D01*
X6124577Y-24358893D02*
X6138771Y-24352179D01*
X17488800Y-13915900D02*
X17490900Y-13911400D01*
X7210490Y-10972800D02*
X7205870Y-10971200D01*
X19093400Y-19507220D02*
X19096300Y-19503280D01*
X20109100Y-19511430D02*
X20111200Y-19515870D01*
X21674800Y-20514040D02*
X21669900Y-20514760D01*
X19107200Y-17706570D02*
X19103300Y-17703650D01*
X24841100Y-11824600D02*
X24847800Y-11838800D01*
X23315000Y-19535000D02*
X23315000Y-20465000D01*
X11093430Y-13907200D02*
X11096350Y-13903300D01*
X7920490Y-20512850D02*
X7915870Y-20511190D01*
X24761200Y-20952180D02*
X24775400Y-20958890D01*
X10851660Y-22890030D02*
X10885640Y-22818170D01*
X12088570Y-20509100D02*
X12084130Y-20511190D01*
X18373000Y-9298500D02*
X18369300Y-9315300D01*
X6341107Y-24424577D02*
X6347821Y-24438771D01*
X13711190Y-12515900D02*
X13712850Y-12520500D01*
X12690900Y-15311430D02*
X12693430Y-15307220D01*
X12065000Y-20515000D02*
X11135000Y-20515000D01*
X6288891Y-24366965D02*
X6301503Y-24376318D01*
X10479510Y-15287150D02*
X10484130Y-15288810D01*
X24858900Y-4775400D02*
X24852200Y-4761200D01*
X10492780Y-12493400D02*
X10496720Y-12496300D01*
X20703300Y-13503700D02*
X20699600Y-13500400D01*
X13714760Y-20469900D02*
X13714040Y-20474750D01*
X20699600Y-13899600D02*
X20703300Y-13896300D01*
X7907220Y-20506570D02*
X7903280Y-20503650D01*
X12693430Y-12507200D02*
X12696350Y-12503300D01*
X6359230Y-24515683D02*
X6356926Y-24531214D01*
X7225000Y-5025000D02*
X15975000Y-5025000D01*
X11096350Y-19096720D02*
X11093430Y-19092780D01*
X17515900Y-17711190D02*
X17511400Y-17709100D01*
X24788900Y-12033000D02*
X24775400Y-12041100D01*
X15375120Y-22964870D02*
X15394440Y-23041980D01*
X10500360Y-19100360D02*
X10496720Y-19103650D01*
X10488570Y-19490900D02*
X10492780Y-19493430D01*
X6275423Y-24358893D02*
X6288891Y-24366965D01*
X8892780Y-20506570D02*
X8888570Y-20509100D01*
X20232500Y-5510800D02*
X20228400Y-5494100D01*
X20450800Y-5292500D02*
X20467000Y-5298300D01*
X11096350Y-18103280D02*
X11099640Y-18099640D01*
X10509100Y-13488600D02*
X10506570Y-13492800D01*
X12100360Y-13899600D02*
X12103650Y-13903300D01*
X20114800Y-13930100D02*
X20115000Y-13935000D01*
X12114040Y-13925200D02*
X12114760Y-13930100D01*
X13696720Y-20503650D02*
X13692780Y-20506570D01*
X18484100Y-19488810D02*
X18488600Y-19490900D01*
X25031200Y-24656926D02*
X25015700Y-24659230D01*
X11085000Y-14865000D02*
X11085000Y-13935000D01*
X15440000Y-11900000D02*
X15440770Y-11884300D01*
X14296350Y-12503300D02*
X14299640Y-12499600D01*
X20703300Y-20503650D02*
X20699600Y-20500360D01*
X14303280Y-20503650D02*
X14299640Y-20500360D01*
X7890900Y-18111430D02*
X7893430Y-18107220D01*
X18465000Y-14915000D02*
X17535000Y-14915000D01*
X6575423Y-12041100D02*
X6561229Y-12047800D01*
X15759200Y-11884300D02*
X15760000Y-11900000D01*
X8909100Y-20488570D02*
X8906570Y-20492780D01*
X22692100Y-9418600D02*
X22677100Y-9427000D01*
X12084130Y-18088810D02*
X12088570Y-18090900D01*
X6356926Y-4731200D02*
X6353110Y-4746400D01*
X12725250Y-13514000D02*
X12720490Y-13512800D01*
X10503650Y-13496700D02*
X10500360Y-13500400D01*
X17507200Y-12493400D02*
X17511400Y-12490900D01*
X12699640Y-19100360D02*
X12696350Y-19096720D01*
X14320490Y-16312850D02*
X14315870Y-16311190D01*
X15723700Y-20998500D02*
X15733000Y-21011110D01*
X6168786Y-4543100D02*
X6184317Y-4540800D01*
X24684300Y-11740800D02*
X24700000Y-11740000D01*
X24558900Y-11824600D02*
X24567000Y-11811100D01*
X18506600Y-13492800D02*
X18503700Y-13496700D01*
X14296350Y-18103280D02*
X14299640Y-18099640D01*
X12103650Y-14896700D02*
X12100360Y-14900400D01*
X12406100Y-23120610D02*
X12410000Y-23200000D01*
X14285240Y-20469900D02*
X14285000Y-20465000D01*
X20693400Y-20492780D02*
X20690900Y-20488570D01*
X17503300Y-17703650D02*
X17499600Y-17700360D01*
X13674750Y-19485960D02*
X13679510Y-19487150D01*
X24924600Y-4558900D02*
X24938800Y-4552200D01*
X9493430Y-19507220D02*
X9496350Y-19503280D01*
X7888810Y-14884100D02*
X7887150Y-14879500D01*
X17654600Y-23454560D02*
X17628400Y-23478280D01*
X14320490Y-19487150D02*
X14325250Y-19485960D01*
X14288810Y-15315870D02*
X14290900Y-15311430D01*
X18492800Y-19493430D02*
X18496700Y-19496350D01*
X11130100Y-19485240D02*
X11135000Y-19485000D01*
X17493400Y-20492780D02*
X17490900Y-20488570D01*
X15172760Y-23772760D02*
X15113860Y-23826140D01*
X20276300Y-5583700D02*
X20264700Y-5571000D01*
X10515000Y-18135000D02*
X10515000Y-19065000D01*
X20535300Y-5349000D02*
X20545500Y-5362800D01*
X13715000Y-16265000D02*
X13714760Y-16269900D01*
X15314040Y-16274750D02*
X15312850Y-16279510D01*
X12690900Y-12511400D02*
X12693430Y-12507200D01*
X20112800Y-17679510D02*
X20111200Y-17684130D01*
X20535300Y-5571000D02*
X20523700Y-5583700D01*
X20685200Y-13469900D02*
X20685000Y-13465000D01*
X17530100Y-14914800D02*
X17525200Y-14914000D01*
X10488570Y-13509100D02*
X10484130Y-13511200D01*
X12693430Y-16292780D02*
X12690900Y-16288570D01*
X15675400Y-20958890D02*
X15688900Y-20966960D01*
X8758020Y-23994440D02*
X8679390Y-24006100D01*
X6453554Y-12053100D02*
X6438771Y-12047800D01*
X12074750Y-20514040D02*
X12069900Y-20514760D01*
X20707200Y-20506570D02*
X20703300Y-20503650D01*
X14303280Y-18096350D02*
X14307220Y-18093430D01*
X15600000Y-21260000D02*
X15584320Y-21259230D01*
X8909100Y-18111430D02*
X8911190Y-18115870D01*
X23303700Y-20496720D02*
X23300400Y-20500360D01*
X21669900Y-20514760D02*
X21665000Y-20515000D01*
X24886900Y-4586900D02*
X24898500Y-4576300D01*
X24540000Y-21100000D02*
X24540800Y-21084320D01*
X19087200Y-13920500D02*
X19088800Y-13915900D01*
X15312850Y-15320490D02*
X15314040Y-15325250D01*
X23265000Y-20515000D02*
X22335000Y-20515000D01*
X7896350Y-20496720D02*
X7893430Y-20492780D01*
X8900360Y-14900400D02*
X8896720Y-14903700D01*
X14296350Y-19096720D02*
X14293430Y-19092780D01*
X24668800Y-12056900D02*
X24653600Y-12053100D01*
X7903280Y-20503650D02*
X7899640Y-20500360D01*
X24731200Y-21256930D02*
X24715700Y-21259230D01*
X23269900Y-20514760D02*
X23265000Y-20515000D01*
X24611100Y-11767000D02*
X24624600Y-11758900D01*
X22307200Y-14906600D02*
X22303300Y-14903700D01*
X13703650Y-18103280D02*
X13706570Y-18107220D01*
X9050010Y-22526510D02*
X9113860Y-22573860D01*
X24852200Y-24561229D02*
X24846900Y-24546446D01*
X15584320Y-20940770D02*
X15600000Y-20940000D01*
X6575423Y-11758900D02*
X6588891Y-11767000D01*
X15713100Y-21213140D02*
X15701500Y-21223680D01*
X8909970Y-22451660D02*
X8981830Y-22485640D01*
X16002800Y-5033400D02*
X16006700Y-5036300D01*
X23309100Y-19511430D02*
X23311200Y-19515870D01*
X20092800Y-13893400D02*
X20096700Y-13896300D01*
X15314760Y-16269900D02*
X15314040Y-16274750D01*
X13696720Y-16303650D02*
X13692780Y-16306570D01*
X23230300Y-23517490D02*
X23200000Y-23499330D01*
X6601500Y-12023700D02*
X6588891Y-12033000D01*
X8981830Y-22485640D02*
X9050010Y-22526510D01*
X15269900Y-20514760D02*
X15265000Y-20515000D01*
X18488600Y-13890900D02*
X18492800Y-13893400D01*
X6588891Y-20966960D02*
X6601500Y-20976320D01*
X22285200Y-13930100D02*
X22286000Y-13925200D01*
X8865000Y-19485000D02*
X8869900Y-19485240D01*
X20571600Y-5494100D02*
X20567500Y-5510800D01*
X24543100Y-21131210D02*
X24540800Y-21115680D01*
X18496700Y-14903700D02*
X18492800Y-14906600D01*
X15452180Y-11961200D02*
X15446890Y-11946400D01*
X24833000Y-11811100D02*
X24841100Y-11824600D01*
X18699400Y-6604300D02*
X18844400Y-6444400D01*
X20699300Y-23400010D02*
X20678300Y-23428380D01*
X15476320Y-12001500D02*
X15466960Y-11988900D01*
X6647820Y-11838800D02*
X6653110Y-11853600D01*
X21714000Y-19525250D02*
X21714800Y-19530100D01*
X12730100Y-19485240D02*
X12735000Y-19485000D01*
X10488570Y-19109100D02*
X10484130Y-19111190D01*
X15975000Y-10975000D02*
X7225000Y-10975000D01*
X20703300Y-17703650D02*
X20699600Y-17700360D01*
X18242300Y-7570800D02*
X18294700Y-7361400D01*
X23284100Y-20511190D02*
X23279500Y-20512850D01*
X7888810Y-18115870D02*
X7890900Y-18111430D01*
X9485960Y-13474800D02*
X9485240Y-13469900D01*
X17145400Y-23454560D02*
X17121700Y-23428380D01*
X6000000Y-25100000D02*
X25200000Y-25100000D01*
X24746400Y-21253110D02*
X24731200Y-21256930D01*
X19362900Y-9940200D02*
X19177700Y-9829200D01*
X24684300Y-20940770D02*
X24700000Y-20940000D01*
X21038600Y-5894700D02*
X21241900Y-5967500D01*
X11135000Y-18085000D02*
X12065000Y-18085000D01*
X15315000Y-15335000D02*
X15315000Y-16265000D01*
X24543100Y-11931200D02*
X24540800Y-11915700D01*
X25482800Y-24982843D02*
X25509200Y-24953757D01*
X12690900Y-16288570D02*
X12688810Y-16284130D01*
X15568790Y-20943070D02*
X15584320Y-20940770D01*
X18474800Y-13886000D02*
X18479500Y-13887200D01*
X18514000Y-17674750D02*
X18512800Y-17679510D01*
X6468786Y-20943070D02*
X6484317Y-20940770D01*
X8896720Y-13896300D02*
X8900360Y-13899600D01*
X13684130Y-18088810D02*
X13688570Y-18090900D01*
X20720500Y-20512850D02*
X20715900Y-20511190D01*
X6358893Y-11824600D02*
X6366965Y-11811100D01*
X7907220Y-19493430D02*
X7911430Y-19490900D01*
X11520610Y-24006100D02*
X11441980Y-23994440D01*
X13711190Y-13484100D02*
X13709100Y-13488600D01*
X9503280Y-19496350D02*
X9507220Y-19493430D01*
X13669900Y-12485200D02*
X13674750Y-12486000D01*
X15306570Y-20492780D02*
X15303650Y-20496720D01*
X24576300Y-21201500D02*
X24567000Y-21188890D01*
X7893430Y-20492780D02*
X7890900Y-20488570D01*
X25113100Y-4813100D02*
X25101500Y-4823700D01*
X13703650Y-15303280D02*
X13706570Y-15307220D01*
X6500000Y-12060000D02*
X6484317Y-12059200D01*
X14299640Y-12499600D02*
X14303280Y-12496300D01*
X11520610Y-22393900D02*
X11600000Y-22390000D01*
X20758300Y-23164710D02*
X20760000Y-23200000D01*
X11107220Y-19106570D02*
X11103280Y-19103650D01*
X23699300Y-22999990D02*
X23717500Y-23030300D01*
X20730100Y-16685240D02*
X20735000Y-16685000D01*
X20096700Y-20503650D02*
X20092800Y-20506570D01*
X21684100Y-17711190D02*
X21679500Y-17712850D01*
X6531214Y-20943070D02*
X6546446Y-20946890D01*
X17490900Y-13488600D02*
X17488800Y-13484100D01*
X13715000Y-20465000D02*
X13714760Y-20469900D01*
X24843100Y-4668800D02*
X24846900Y-4653600D01*
X12685240Y-16269900D02*
X12685000Y-16265000D01*
X12114040Y-14874800D02*
X12112850Y-14879500D01*
X13688570Y-12490900D02*
X13692780Y-12493400D01*
X20103700Y-13903300D02*
X20106600Y-13907200D01*
X12100360Y-14900400D02*
X12096720Y-14903700D01*
X12406100Y-23279390D02*
X12394440Y-23358020D01*
X20715900Y-13888800D02*
X20720500Y-13887200D01*
X24846900Y-24546446D02*
X24843100Y-24531214D01*
X19115900Y-17711190D02*
X19111400Y-17709100D01*
X11027240Y-22627240D02*
X11086140Y-22573860D01*
X9487150Y-19520490D02*
X9488810Y-19515870D01*
X10479510Y-12487200D02*
X10484130Y-12488800D01*
X23678300Y-22971620D02*
X23699300Y-22999990D01*
X20654600Y-22945440D02*
X20678300Y-22971620D01*
X6046890Y-24546446D02*
X6043074Y-24531214D01*
X25123700Y-24601503D02*
X25113100Y-24613137D01*
X12109100Y-14888600D02*
X12106570Y-14892800D01*
X6438771Y-12047800D02*
X6424577Y-12041100D01*
X13711190Y-15315870D02*
X13712850Y-15320490D01*
X24715700Y-20940770D02*
X24731200Y-20943070D01*
X7175960Y-5065200D02*
X7177150Y-5060500D01*
X12707220Y-19493430D02*
X12711430Y-19490900D01*
X20114000Y-19525250D02*
X20114800Y-19530100D01*
X20497200Y-5605500D02*
X20482500Y-5614300D01*
X20171600Y-23478280D02*
X20145400Y-23454560D01*
X14315870Y-18088810D02*
X14320490Y-18087150D01*
X23699300Y-23400010D02*
X23678300Y-23428380D01*
X12109100Y-19511430D02*
X12111190Y-19515870D01*
X6246446Y-4546900D02*
X6261229Y-4552200D01*
X6358893Y-11975400D02*
X6352179Y-11961200D01*
X18465000Y-16685000D02*
X18469900Y-16685240D01*
X11090900Y-14888600D02*
X11088810Y-14884100D01*
X13706570Y-16292780D02*
X13703650Y-16296720D01*
X18107900Y-9418600D02*
X18093800Y-9408800D01*
X22429300Y-9230300D02*
X22434000Y-9213700D01*
X14303280Y-12496300D02*
X14307220Y-12493400D01*
X17329800Y-23553080D02*
X17295500Y-23544500D01*
X9485240Y-16269900D02*
X9485000Y-16265000D01*
X20065000Y-13515000D02*
X19135000Y-13515000D01*
X20707200Y-12493400D02*
X20711400Y-12490900D01*
X11087150Y-19520490D02*
X11088810Y-19515870D01*
X15050010Y-22526510D02*
X15113860Y-22573860D01*
X24788900Y-20966960D02*
X24801500Y-20976320D01*
X17525200Y-19485960D02*
X17530100Y-19485240D01*
X11099640Y-20500360D02*
X11096350Y-20496720D01*
X15747800Y-21161230D02*
X15741100Y-21175420D01*
X20121700Y-22971620D02*
X20145400Y-22945440D01*
X18512800Y-14879500D02*
X18511200Y-14884100D01*
X18512800Y-17679510D02*
X18511200Y-17684130D01*
X12696350Y-19096720D02*
X12693430Y-19092780D01*
X6275423Y-4841100D02*
X6261229Y-4847800D01*
X6601500Y-21223680D02*
X6588891Y-21233040D01*
X12088570Y-19109100D02*
X12084130Y-19111190D01*
X8896720Y-19103650D02*
X8892780Y-19106570D01*
X20693400Y-13492800D02*
X20690900Y-13488600D01*
X7973860Y-23713860D02*
X7926510Y-23650010D01*
X7220100Y-10974800D02*
X7215250Y-10974000D01*
X12103650Y-19096720D02*
X12100360Y-19100360D01*
X24876300Y-24601503D02*
X24867000Y-24588891D01*
X13684130Y-19488810D02*
X13688570Y-19490900D01*
X22288800Y-14884100D02*
X22287200Y-14879500D01*
X10514760Y-13469900D02*
X10514040Y-13474800D01*
X21696700Y-17703650D02*
X21692800Y-17706570D01*
X20109100Y-14888600D02*
X20106600Y-14892800D01*
X15756900Y-21068790D02*
X15759200Y-21084320D01*
X21692800Y-14906600D02*
X21688600Y-14909100D01*
X22287200Y-19520490D02*
X22288800Y-19515870D01*
X23295500Y-22855500D02*
X23329800Y-22846920D01*
X20523700Y-5336300D02*
X20535300Y-5349000D01*
X24911100Y-4567000D02*
X24924600Y-4558900D01*
X20109100Y-16711430D02*
X20111200Y-16715870D01*
X15269900Y-18085240D02*
X15274750Y-18085960D01*
X14293430Y-19507220D02*
X14296350Y-19503280D01*
X20628400Y-23478280D02*
X20600000Y-23499330D01*
X20088600Y-13509100D02*
X20084100Y-13511200D01*
X23329800Y-23553080D02*
X23295500Y-23544500D01*
X19090900Y-13488600D02*
X19088800Y-13484100D01*
X17537800Y-23532600D02*
X17504500Y-23544500D01*
X20262200Y-22867400D02*
X20295500Y-22855500D01*
X18500400Y-19499640D02*
X18503700Y-19503280D01*
X18503700Y-16703280D02*
X18506600Y-16707220D01*
X7885960Y-13925200D02*
X7887150Y-13920500D01*
X20482500Y-5305700D02*
X20497200Y-5314500D01*
X18098400Y-9127800D02*
X18112800Y-9118400D01*
X12685960Y-16274750D02*
X12685240Y-16269900D01*
X14293430Y-16292780D02*
X14290900Y-16288570D01*
X6046890Y-4653600D02*
X6052179Y-4638800D01*
X20112800Y-16720490D02*
X20114000Y-16725250D01*
X6341107Y-4775400D02*
X6333035Y-4788900D01*
X18484100Y-12488800D02*
X18488600Y-12490900D01*
X15300360Y-20500360D02*
X15296720Y-20503650D01*
X24598500Y-21223680D02*
X24586900Y-21213140D01*
X6352179Y-11961200D02*
X6346890Y-11946400D01*
X10484130Y-19488810D02*
X10488570Y-19490900D01*
X6660000Y-21100000D02*
X6659230Y-21115680D01*
X17507200Y-13893400D02*
X17511400Y-13890900D01*
X9485240Y-12530100D02*
X9485960Y-12525200D01*
X11135000Y-20515000D02*
X11130100Y-20514760D01*
X6531214Y-21256930D02*
X6515683Y-21259230D01*
X8892780Y-19106570D02*
X8888570Y-19109100D01*
X22285000Y-13935000D02*
X22285200Y-13930100D01*
X15458890Y-11824600D02*
X15466960Y-11811100D01*
X8869900Y-13885200D02*
X8874750Y-13886000D01*
X19111400Y-16690900D02*
X19115900Y-16688810D01*
X17496300Y-17696720D02*
X17493400Y-17692780D01*
X21715000Y-20465000D02*
X21714800Y-20469900D01*
X17493400Y-13907200D02*
X17496300Y-13903300D01*
X20730100Y-20514760D02*
X20725200Y-20514040D01*
X13714040Y-20474750D02*
X13712850Y-20479510D01*
X17490900Y-13911400D02*
X17493400Y-13907200D01*
X6098497Y-24376318D02*
X6111109Y-24366965D01*
X21684100Y-16688810D02*
X21688600Y-16690900D01*
X10496720Y-12496300D02*
X10500360Y-12499600D01*
X15989500Y-10972800D02*
X15984800Y-10974000D01*
X15553550Y-12053100D02*
X15538770Y-12047800D01*
X15309100Y-18111430D02*
X15311190Y-18115870D01*
X20065000Y-17715000D02*
X19135000Y-17715000D01*
X18138700Y-9433800D02*
X18122900Y-9427000D01*
X12114040Y-19525250D02*
X12114760Y-19530100D01*
X18511200Y-13484100D02*
X18509100Y-13488600D01*
X11441980Y-22405560D02*
X11520610Y-22393900D01*
X22303300Y-19496350D02*
X22307200Y-19493430D01*
X7935000Y-14915000D02*
X7930100Y-14914800D01*
X20096700Y-13896300D02*
X20100400Y-13899600D01*
X18058000Y-9371900D02*
X18048700Y-9357500D01*
X20115000Y-12535000D02*
X20115000Y-13465000D01*
X12109100Y-13911400D02*
X12111190Y-13915900D01*
X15979900Y-5025200D02*
X15984800Y-5026000D01*
X24813100Y-12013100D02*
X24801500Y-12023700D01*
X14086140Y-23826140D02*
X14027240Y-23772760D01*
X6301503Y-24376318D02*
X6313137Y-24386863D01*
X15309100Y-16288570D02*
X15306570Y-16292780D01*
X5846927Y-25069552D02*
X5883886Y-25082776D01*
X20720500Y-13512800D02*
X20715900Y-13511200D01*
X15443070Y-21068790D02*
X15446890Y-21053550D01*
X18080700Y-9397700D02*
X18068700Y-9385400D01*
X24653600Y-20946890D02*
X24668800Y-20943070D01*
X20400000Y-23560000D02*
X20364700Y-23558270D01*
X19103300Y-20503650D02*
X19099600Y-20500360D01*
X20730100Y-14914800D02*
X20725200Y-14914000D01*
X20711400Y-20509100D02*
X20707200Y-20506570D01*
X8869900Y-19485240D02*
X8874750Y-19485960D01*
X13688570Y-20509100D02*
X13684130Y-20511190D01*
X22340200Y-9037100D02*
X22229200Y-9222300D01*
X14325250Y-16314040D02*
X14320490Y-16312850D01*
X20079500Y-17712850D02*
X20074800Y-17714040D01*
X6468786Y-11743100D02*
X6484317Y-11740800D01*
X21665000Y-17715000D02*
X20735000Y-17715000D01*
X15311190Y-13484100D02*
X15309100Y-13488600D01*
X22560000Y-9440400D02*
X22543500Y-9435700D01*
X13692780Y-12493400D02*
X13696720Y-12496300D01*
X17230300Y-22882510D02*
X17262200Y-22867400D01*
X20687200Y-12520500D02*
X20688800Y-12515900D01*
X15701500Y-11776300D02*
X15713100Y-11786900D01*
X20069900Y-13514800D02*
X20065000Y-13515000D01*
X6468786Y-12056900D02*
X6453554Y-12053100D01*
X10479510Y-13512800D02*
X10474750Y-13514000D01*
X20088600Y-16690900D02*
X20092800Y-16693430D01*
X21665000Y-13885000D02*
X21669900Y-13885200D01*
X20537800Y-23532600D02*
X20504500Y-23544500D01*
X20693400Y-12507200D02*
X20696300Y-12503300D01*
X24898500Y-24623682D02*
X24886900Y-24613137D01*
X13692780Y-20506570D02*
X13688570Y-20509100D01*
X21665000Y-19485000D02*
X21669900Y-19485240D01*
X20735000Y-14915000D02*
X20730100Y-14914800D01*
X9226140Y-23713860D02*
X9172760Y-23772760D01*
X21692800Y-16693430D02*
X21696700Y-16696350D01*
X12111190Y-14884100D02*
X12109100Y-14888600D01*
X8914040Y-18125250D02*
X8914760Y-18130100D01*
X6340000Y-11900000D02*
X6340770Y-11884300D01*
X22605400Y-9095100D02*
X22622500Y-9096500D01*
X8911190Y-19084130D02*
X8909100Y-19088570D01*
X6453554Y-20946890D02*
X6468786Y-20943070D01*
X19099600Y-12499600D02*
X19103300Y-12496300D01*
X14287150Y-15320490D02*
X14288810Y-15315870D01*
X7177150Y-10939500D02*
X7175960Y-10934800D01*
X20084100Y-12488800D02*
X20088600Y-12490900D01*
X23296700Y-13896300D02*
X23300400Y-13899600D01*
X10511190Y-20484130D02*
X10509100Y-20488570D01*
X6040770Y-24484317D02*
X6043074Y-24468786D01*
X9490900Y-19088570D02*
X9488810Y-19084130D01*
X18488600Y-16690900D02*
X18492800Y-16693430D01*
X15296720Y-13503700D02*
X15292780Y-13506600D01*
X20482500Y-5614300D02*
X20467000Y-5621700D01*
X20264700Y-5571000D02*
X20254500Y-5557200D01*
X12720490Y-16312850D02*
X12715870Y-16311190D01*
X14909970Y-22451660D02*
X14981830Y-22485640D01*
X24567000Y-21011110D02*
X24576300Y-20998500D01*
X6653110Y-11853600D02*
X6656930Y-11868800D01*
X16019100Y-5051400D02*
X16021200Y-5055900D01*
X20096700Y-19496350D02*
X20100400Y-19499640D01*
X14287150Y-19520490D02*
X14288810Y-19515870D01*
X20092800Y-17706570D02*
X20088600Y-17709100D01*
X25160000Y-24500000D02*
X25159200Y-24515683D01*
X17488800Y-16715870D02*
X17490900Y-16711430D01*
X9535000Y-19115000D02*
X9530100Y-19114760D01*
X20114000Y-16725250D02*
X20114800Y-16730100D01*
X6588891Y-11767000D02*
X6601500Y-11776300D01*
X20400000Y-5800000D02*
X20615600Y-5810600D01*
X20687200Y-20479510D02*
X20686000Y-20474750D01*
X15446890Y-11853600D02*
X15452180Y-11838800D01*
X20065000Y-19485000D02*
X20069900Y-19485240D01*
X10514760Y-19530100D02*
X10515000Y-19535000D01*
X13688570Y-15290900D02*
X13692780Y-15293430D01*
X9525250Y-16314040D02*
X9520490Y-16312850D01*
X15733000Y-11811100D02*
X15741100Y-11824600D01*
X10506570Y-19507220D02*
X10509100Y-19511430D01*
X12115000Y-18135000D02*
X12115000Y-19065000D01*
X20317500Y-5614300D02*
X20302800Y-5605500D01*
X11758020Y-23994440D02*
X11679390Y-24006100D01*
X6359230Y-4684300D02*
X6360000Y-4700000D01*
X6168786Y-4856900D02*
X6153554Y-4853100D01*
X7893430Y-13907200D02*
X7896350Y-13903300D01*
X24823700Y-12001500D02*
X24813100Y-12013100D01*
X18511200Y-14884100D02*
X18509100Y-14888600D01*
X11103280Y-19496350D02*
X11107220Y-19493430D01*
X11107220Y-18093430D02*
X11111430Y-18090900D01*
X20245700Y-5377500D02*
X20254500Y-5362800D01*
X20554300Y-5542500D02*
X20545500Y-5557200D01*
X18515000Y-13465000D02*
X18514800Y-13469900D01*
X8906570Y-19092780D02*
X8903650Y-19096720D01*
X11096350Y-13903300D02*
X11099640Y-13899600D01*
X11085000Y-19065000D02*
X11085000Y-18135000D01*
X17535000Y-13885000D02*
X18465000Y-13885000D01*
X23292800Y-20506570D02*
X23288600Y-20509100D01*
X10824880Y-22964870D02*
X10851660Y-22890030D01*
X23314000Y-14874800D02*
X23312800Y-14879500D01*
X12685000Y-20465000D02*
X12685000Y-19535000D01*
X24700000Y-20940000D02*
X24715700Y-20940770D01*
X15269900Y-16314760D02*
X15265000Y-16315000D01*
X25015700Y-4540800D02*
X25031200Y-4543100D01*
X10503650Y-16296720D02*
X10500360Y-16300360D01*
X7205870Y-5028800D02*
X7210490Y-5027200D01*
X11120490Y-19487150D02*
X11125250Y-19485960D01*
X6647820Y-11961200D02*
X6641110Y-11975400D01*
X23364700Y-22841730D02*
X23400000Y-22840000D01*
X23055500Y-23304500D02*
X23046900Y-23270230D01*
X21700400Y-17700360D02*
X21696700Y-17703650D01*
X20744500Y-23095500D02*
X20753100Y-23129770D01*
X17535000Y-14915000D02*
X17530100Y-14914800D01*
X6386863Y-12013100D02*
X6376318Y-12001500D01*
X23311200Y-19515870D02*
X23312800Y-19520490D01*
X14288810Y-16284130D02*
X14287150Y-16279510D01*
X14285000Y-20465000D02*
X14285000Y-19535000D01*
X18514000Y-20474750D02*
X18512800Y-20479510D01*
X14315870Y-15288810D02*
X14320490Y-15287150D01*
X12715870Y-13511200D02*
X12711430Y-13509100D01*
X8909100Y-13911400D02*
X8911190Y-13915900D01*
X17515900Y-12488800D02*
X17520500Y-12487200D01*
X9535000Y-13515000D02*
X9530100Y-13514800D01*
X6168786Y-24343074D02*
X6184317Y-24340770D01*
X12114760Y-13930100D02*
X12115000Y-13935000D01*
X17515900Y-20511190D02*
X17511400Y-20509100D01*
X20735000Y-17715000D02*
X20730100Y-17714760D01*
X20725200Y-16685960D02*
X20730100Y-16685240D01*
X7175000Y-10925000D02*
X7175000Y-5075000D01*
X24840000Y-4700000D02*
X24840800Y-4684300D01*
X10514760Y-20469900D02*
X10514040Y-20474750D01*
X18570800Y-6777700D02*
X18699400Y-6604300D01*
X14290900Y-19088570D02*
X14288810Y-19084130D01*
X22442800Y-9347400D02*
X22435900Y-9331600D01*
X15713100Y-20986860D02*
X15723700Y-20998500D01*
X14758020Y-23994440D02*
X14679390Y-24006100D01*
X17067400Y-23337770D02*
X17055500Y-23304500D01*
X20364700Y-22841730D02*
X20400000Y-22840000D01*
X25153100Y-4653600D02*
X25156900Y-4668800D01*
X12730100Y-19114760D02*
X12725250Y-19114040D01*
X21709100Y-17688570D02*
X21706600Y-17692780D01*
X7890900Y-19511430D02*
X7893430Y-19507220D01*
X24624600Y-11758900D02*
X24638800Y-11752200D01*
X6575423Y-20958890D02*
X6588891Y-20966960D01*
X7885640Y-23581830D02*
X7851660Y-23509970D01*
X9273490Y-23650010D02*
X9226140Y-23713860D01*
X20707200Y-16693430D02*
X20711400Y-16690900D01*
X14303280Y-13503700D02*
X14299640Y-13500400D01*
X20688800Y-20484130D02*
X20687200Y-20479510D01*
X20106600Y-13492800D02*
X20103700Y-13496700D01*
X24846900Y-4746400D02*
X24843100Y-4731200D01*
X11364870Y-23975120D02*
X11290030Y-23948340D01*
X18506600Y-12507200D02*
X18509100Y-12511400D01*
X21688600Y-20509100D02*
X21684100Y-20511190D01*
X7890900Y-14888600D02*
X7888810Y-14884100D01*
X25046400Y-4853100D02*
X25031200Y-4856900D01*
X21622300Y-6170800D02*
X21795700Y-6299400D01*
X14287150Y-12520500D02*
X14288810Y-12515900D01*
X21712800Y-17679510D02*
X21711200Y-17684130D01*
X19111400Y-20509100D02*
X19107200Y-20506570D01*
X5601926Y-4460800D02*
X5600000Y-4500000D01*
X20686000Y-13474800D02*
X20685200Y-13469900D01*
X7851660Y-23509970D02*
X7824880Y-23435130D01*
X15273490Y-23650010D02*
X15226140Y-23713860D01*
X10851660Y-23509970D02*
X10824880Y-23435130D01*
X20699600Y-13500400D02*
X20696300Y-13496700D01*
X23364700Y-23558270D02*
X23329800Y-23553080D01*
X15446890Y-21053550D02*
X15452180Y-21038770D01*
X17400000Y-22840000D02*
X17435300Y-22841730D01*
X15524580Y-21241110D02*
X15511110Y-21233040D01*
X21692800Y-19493430D02*
X21696700Y-19496350D01*
X12685000Y-12535000D02*
X12685240Y-12530100D01*
X6546446Y-20946890D02*
X6561229Y-20952180D01*
X24859200Y-21115680D02*
X24856900Y-21131210D01*
X13665000Y-12485000D02*
X13669900Y-12485200D01*
X6633040Y-11811100D02*
X6641110Y-11824600D01*
X8884130Y-13888800D02*
X8888570Y-13890900D01*
X5883886Y-25082776D02*
X5921964Y-25092314D01*
X18465000Y-19485000D02*
X18469900Y-19485240D01*
X19107200Y-19493430D02*
X19111400Y-19490900D01*
X20114800Y-14869900D02*
X20114000Y-14874800D01*
X20333000Y-5621700D02*
X20317500Y-5614300D01*
X18500400Y-12499600D02*
X18503700Y-12503300D01*
X12711430Y-19490900D02*
X12715870Y-19488810D01*
X18211700Y-9095400D02*
X18228800Y-9097300D01*
X12687150Y-16279510D02*
X12685960Y-16274750D01*
X25153100Y-4746400D02*
X25147800Y-4761200D01*
X22661300Y-9433800D02*
X22645000Y-9439000D01*
X15701500Y-21223680D02*
X15688900Y-21233040D01*
X19115900Y-14911200D02*
X19111400Y-14909100D01*
X20711400Y-13890900D02*
X20715900Y-13888800D01*
X15296720Y-16303650D02*
X15292780Y-16306570D01*
X10479510Y-19487150D02*
X10484130Y-19488810D01*
X12696350Y-16296720D02*
X12693430Y-16292780D01*
X7911430Y-18090900D02*
X7915870Y-18088810D01*
X7893430Y-14892800D02*
X7890900Y-14888600D01*
X7193280Y-10963700D02*
X7189640Y-10960400D01*
X6261229Y-24647821D02*
X6246446Y-24653110D01*
X11120490Y-20512850D02*
X11115870Y-20511190D01*
X14288810Y-18115870D02*
X14290900Y-18111430D01*
X14285960Y-19074750D02*
X14285240Y-19069900D01*
X19088800Y-19515870D02*
X19090900Y-19511430D01*
X14293430Y-12507200D02*
X14296350Y-12503300D01*
X6468786Y-21256930D02*
X6453554Y-21253110D01*
X21955600Y-6444400D02*
X22100600Y-6604300D01*
X15466960Y-11811100D02*
X15476320Y-11798500D01*
X24653600Y-12053100D02*
X24638800Y-12047800D01*
X6043074Y-4731200D02*
X6040770Y-4715700D01*
X9515870Y-12488800D02*
X9520490Y-12487200D01*
X17753100Y-23129770D02*
X17758300Y-23164710D01*
X6659230Y-21115680D02*
X6656930Y-21131210D01*
X19093400Y-13907200D02*
X19096300Y-13903300D01*
X12084130Y-20511190D02*
X12079510Y-20512850D01*
X10515000Y-16265000D02*
X10514760Y-16269900D01*
X14299640Y-19499640D02*
X14303280Y-19496350D01*
X6086863Y-24386863D02*
X6098497Y-24376318D01*
X21711200Y-13484100D02*
X21709100Y-13488600D01*
X16013700Y-5043300D02*
X16016600Y-5047200D01*
X23311200Y-14884100D02*
X23309100Y-14888600D01*
X22330100Y-20514760D02*
X22325200Y-20514040D01*
X10500360Y-15299640D02*
X10503650Y-15303280D01*
X20600000Y-23499330D02*
X20569700Y-23517490D01*
X12375120Y-22964870D02*
X12394440Y-23041980D01*
X24823700Y-20998500D02*
X24833000Y-21011110D01*
X17753100Y-23270230D02*
X17744500Y-23304500D01*
X11027240Y-23772760D02*
X10973860Y-23713860D01*
X24843100Y-24531214D02*
X24840800Y-24515683D01*
X10484130Y-12488800D02*
X10488570Y-12490900D01*
X12103650Y-13903300D02*
X12106570Y-13907200D01*
X23435300Y-23558270D02*
X23400000Y-23560000D01*
X17678300Y-23428380D02*
X17654600Y-23454560D01*
X11218170Y-23914360D02*
X11149990Y-23873490D01*
X20225800Y-5477200D02*
X20225000Y-5460000D01*
X17486000Y-13474800D02*
X17485200Y-13469900D01*
X23303700Y-13903300D02*
X23306600Y-13907200D01*
X23279500Y-20512850D02*
X23274800Y-20514040D01*
X17145400Y-22945440D02*
X17171600Y-22921720D01*
X6641110Y-21175420D02*
X6633040Y-21188890D01*
X19090900Y-14888600D02*
X19088800Y-14884100D01*
X24813100Y-20986860D02*
X24823700Y-20998500D01*
X21714800Y-19530100D02*
X21715000Y-19535000D01*
X18514000Y-16725250D02*
X18514800Y-16730100D01*
X21715000Y-19535000D02*
X21715000Y-20465000D01*
X12730100Y-18085240D02*
X12735000Y-18085000D01*
X19086000Y-12525200D02*
X19087200Y-12520500D01*
X7907220Y-19106570D02*
X7903280Y-19103650D01*
X19085000Y-20465000D02*
X19085000Y-19535000D01*
X13679510Y-20512850D02*
X13674750Y-20514040D01*
X25598100Y-24739207D02*
X25600000Y-24700000D01*
X25147800Y-24438771D02*
X25153100Y-24453554D01*
X20690900Y-13488600D02*
X20688800Y-13484100D01*
X5630448Y-4346900D02*
X5617224Y-4383900D01*
X23296700Y-19496350D02*
X23300400Y-19499640D01*
X19120500Y-19487150D02*
X19125200Y-19485960D01*
X10465000Y-19115000D02*
X9535000Y-19115000D01*
X7911430Y-13890900D02*
X7915870Y-13888800D01*
X6515683Y-20940770D02*
X6531214Y-20943070D01*
X13703650Y-12503300D02*
X13706570Y-12507200D01*
X17507200Y-14906600D02*
X17503300Y-14903700D01*
X18245600Y-9101000D02*
X18261900Y-9106200D01*
X12725250Y-20514040D02*
X12720490Y-20512850D01*
X20111200Y-12515900D02*
X20112800Y-12520500D01*
X17515900Y-13888800D02*
X17520500Y-13887200D01*
X24586900Y-21213140D02*
X24576300Y-21201500D01*
X17496300Y-16703280D02*
X17499600Y-16699640D01*
X20696300Y-14896700D02*
X20693400Y-14892800D01*
X15279510Y-19112850D02*
X15274750Y-19114040D01*
X20055500Y-23095500D02*
X20067400Y-23062230D01*
X18492800Y-13893400D02*
X18496700Y-13896300D01*
X6366965Y-11811100D02*
X6376318Y-11798500D01*
X8086140Y-23826140D02*
X8027240Y-23772760D01*
X20715900Y-14911200D02*
X20711400Y-14909100D01*
X13692780Y-19493430D02*
X13696720Y-19496350D01*
X6653110Y-21146450D02*
X6647820Y-21161230D01*
X12685000Y-19535000D02*
X12685240Y-19530100D01*
X21709100Y-16711430D02*
X21711200Y-16715870D01*
X24552200Y-21161230D02*
X24546900Y-21146450D01*
X22589400Y-8215600D02*
X22557700Y-8429200D01*
X25316100Y-4117200D02*
X25278000Y-4107700D01*
X11096350Y-14896700D02*
X11093430Y-14892800D01*
X13712850Y-19520490D02*
X13714040Y-19525250D01*
X6647820Y-21038770D02*
X6653110Y-21053550D01*
X20497200Y-5314500D02*
X20511000Y-5324700D01*
X6453554Y-21253110D02*
X6438771Y-21247820D01*
X23082500Y-23369700D02*
X23067400Y-23337770D01*
X12069900Y-14914800D02*
X12065000Y-14915000D01*
X14320490Y-12487200D02*
X14325250Y-12486000D01*
X20707200Y-19493430D02*
X20711400Y-19490900D01*
X11093430Y-19092780D02*
X11090900Y-19088570D01*
X18188800Y-9444600D02*
X18171800Y-9442700D01*
X6352179Y-21161230D02*
X6346890Y-21146450D01*
X15443070Y-11931200D02*
X15440770Y-11915700D01*
X14288810Y-12515900D02*
X14290900Y-12511400D01*
X12690900Y-13488600D02*
X12688810Y-13484100D01*
X21674800Y-19485960D02*
X21679500Y-19487150D01*
X17569700Y-22882510D02*
X17600000Y-22900670D01*
X20717500Y-23369700D02*
X20699300Y-23400010D01*
X6546446Y-11746900D02*
X6561229Y-11752200D01*
X21714800Y-20469900D02*
X21714000Y-20474750D01*
X20678300Y-22971620D02*
X20699300Y-22999990D01*
X8879510Y-20512850D02*
X8874750Y-20514040D01*
X17732600Y-23337770D02*
X17717500Y-23369700D01*
X12685240Y-15330100D02*
X12685960Y-15325250D01*
X6313137Y-4813100D02*
X6301503Y-4823700D01*
X12112850Y-19079510D02*
X12111190Y-19084130D01*
X6340770Y-21115680D02*
X6340000Y-21100000D01*
X8914040Y-19074750D02*
X8912850Y-19079510D01*
X20434100Y-5288400D02*
X20450800Y-5292500D01*
X9535000Y-18085000D02*
X10465000Y-18085000D01*
X15723700Y-21201500D02*
X15713100Y-21213140D01*
X25388600Y-25052768D02*
X25422200Y-25032588D01*
X11090900Y-19511430D02*
X11093430Y-19507220D01*
X6231214Y-24656926D02*
X6215683Y-24659230D01*
X11103280Y-20503650D02*
X11099640Y-20500360D01*
X17486000Y-16725250D02*
X17487200Y-16720490D01*
X13674750Y-20514040D02*
X13669900Y-20514760D01*
X6343074Y-11868800D02*
X6346890Y-11853600D01*
X20688800Y-16715870D02*
X20690900Y-16711430D01*
X12707220Y-18093430D02*
X12711430Y-18090900D01*
X19086000Y-14874800D02*
X19085200Y-14869900D01*
X11111430Y-18090900D02*
X11115870Y-18088810D01*
X20569700Y-22882510D02*
X20600000Y-22900670D01*
X7903280Y-19103650D02*
X7899640Y-19100360D01*
X15688900Y-12033000D02*
X15675400Y-12041100D01*
X6138771Y-4552200D02*
X6153554Y-4546900D01*
X25159200Y-24484317D02*
X25160000Y-24500000D01*
X6124577Y-24641107D02*
X6111109Y-24633035D01*
X18469900Y-12485200D02*
X18474800Y-12486000D01*
X21679500Y-20512850D02*
X21674800Y-20514040D01*
X20537800Y-22867400D02*
X20569700Y-22882510D01*
X14311430Y-20509100D02*
X14307220Y-20506570D01*
X13706570Y-15307220D02*
X13709100Y-15311430D01*
X9496350Y-12503300D02*
X9499640Y-12499600D01*
X18048700Y-9357500D02*
X18040900Y-9342200D01*
X19125200Y-20514040D02*
X19120500Y-20512850D01*
X22742000Y-9371900D02*
X22731300Y-9385400D01*
X21714000Y-13474800D02*
X21712800Y-13479500D01*
X18496700Y-13503700D02*
X18492800Y-13506600D01*
X20106600Y-13907200D02*
X20109100Y-13911400D01*
X17760000Y-23200000D02*
X17758300Y-23235290D01*
X15292780Y-19493430D02*
X15296720Y-19496350D01*
X20725200Y-17714040D02*
X20720500Y-17712850D01*
X24840800Y-24484317D02*
X24843100Y-24468786D01*
X15511110Y-11767000D02*
X15524580Y-11758900D01*
X21709100Y-13488600D02*
X21706600Y-13492800D01*
X5811441Y-25052768D02*
X5846927Y-25069552D01*
X12092780Y-14906600D02*
X12088570Y-14909100D01*
X6111109Y-24633035D02*
X6098497Y-24623682D01*
X15311190Y-16284130D02*
X15309100Y-16288570D01*
X8909970Y-23948340D02*
X8835130Y-23975120D01*
X7893430Y-19092780D02*
X7890900Y-19088570D01*
X12115000Y-19535000D02*
X12115000Y-20465000D01*
X19099600Y-16699640D02*
X19103300Y-16696350D01*
X24886900Y-24386863D02*
X24898500Y-24376318D01*
X15723700Y-12001500D02*
X15713100Y-12013100D01*
X18339100Y-9376500D02*
X18328000Y-9389600D01*
X18465000Y-13515000D02*
X17535000Y-13515000D01*
X24700000Y-12060000D02*
X24684300Y-12059200D01*
X23279500Y-13887200D02*
X23284100Y-13888800D01*
X13684130Y-16311190D02*
X13679510Y-16312850D01*
X20295500Y-22855500D02*
X20329800Y-22846920D01*
X23288600Y-14909100D02*
X23284100Y-14911200D01*
X9507220Y-19106570D02*
X9503280Y-19103650D01*
X24700000Y-21260000D02*
X24684300Y-21259230D01*
X25015700Y-4859200D02*
X25000000Y-4860000D01*
X9226140Y-22686140D02*
X9273490Y-22749990D01*
X12730100Y-15285240D02*
X12735000Y-15285000D01*
X14311430Y-19109100D02*
X14307220Y-19106570D01*
X19096300Y-19503280D02*
X19099600Y-19499640D01*
X24860000Y-11900000D02*
X24859200Y-11915700D01*
X24867000Y-24588891D02*
X24858900Y-24575423D01*
X7885960Y-19074750D02*
X7885240Y-19069900D01*
X23300400Y-13899600D02*
X23303700Y-13903300D01*
X12112850Y-18120490D02*
X12114040Y-18125250D01*
X13714760Y-13469900D02*
X13714040Y-13474800D01*
X19130100Y-17714760D02*
X19125200Y-17714040D01*
X15394440Y-23358020D02*
X15375120Y-23435130D01*
X15274750Y-15285960D02*
X15279510Y-15287150D01*
X23292800Y-19493430D02*
X23296700Y-19496350D01*
X18043300Y-9192600D02*
X18051700Y-9177600D01*
X20400000Y-5285000D02*
X20417200Y-5285800D01*
X17082500Y-23369700D02*
X17067400Y-23337770D01*
X14315870Y-19488810D02*
X14320490Y-19487150D01*
X20040000Y-23200000D02*
X20041700Y-23164710D01*
X23269900Y-19485240D02*
X23274800Y-19485960D01*
X13712850Y-13479500D02*
X13711190Y-13484100D01*
X9490900Y-19511430D02*
X9493430Y-19507220D01*
X18514000Y-13925200D02*
X18514800Y-13930100D01*
X15269900Y-19485240D02*
X15274750Y-19485960D01*
X20382800Y-5285800D02*
X20400000Y-5285000D01*
X10514760Y-18130100D02*
X10515000Y-18135000D01*
X23758300Y-23235290D02*
X23753100Y-23270230D01*
X17493400Y-17692780D02*
X17490900Y-17688570D01*
X17488800Y-13484100D02*
X17487200Y-13479500D01*
X15265000Y-15285000D02*
X15269900Y-15285240D01*
X22293400Y-13907200D02*
X22296300Y-13903300D01*
X21709100Y-19511430D02*
X21711200Y-19515870D01*
X11107220Y-13893400D02*
X11111430Y-13890900D01*
X22335000Y-20515000D02*
X22330100Y-20514760D01*
X14441980Y-22405560D02*
X14520610Y-22393900D01*
X23311200Y-20484130D02*
X23309100Y-20488570D01*
X20145400Y-23454560D02*
X20121700Y-23428380D01*
X10500360Y-12499600D02*
X10503650Y-12503300D01*
X8865000Y-20515000D02*
X7935000Y-20515000D01*
X18128100Y-9110600D02*
X18144000Y-9104300D01*
X11107220Y-19493430D02*
X11111430Y-19490900D01*
X20112800Y-19520490D02*
X20114000Y-19525250D01*
X6076318Y-4598500D02*
X6086863Y-4586900D01*
X19107200Y-14906600D02*
X19103300Y-14903700D01*
X25532600Y-24922228D02*
X25552800Y-24888559D01*
X20111200Y-20484130D02*
X20109100Y-20488570D01*
X8879510Y-18087150D02*
X8884130Y-18088810D01*
X15688900Y-11767000D02*
X15701500Y-11776300D01*
X12092780Y-19493430D02*
X12096720Y-19496350D01*
X10503650Y-19503280D02*
X10506570Y-19507220D01*
X25123700Y-4801500D02*
X25113100Y-4813100D01*
X17485000Y-13935000D02*
X17485200Y-13930100D01*
X13679510Y-19112850D02*
X13674750Y-19114040D01*
X15568790Y-21256930D02*
X15553550Y-21253110D01*
X19099600Y-20500360D02*
X19096300Y-20496720D01*
X9314360Y-23581830D02*
X9273490Y-23650010D01*
X18375200Y-9264300D02*
X18374900Y-9281400D01*
X19088800Y-13484100D02*
X19087200Y-13479500D01*
X21715000Y-12535000D02*
X21715000Y-13465000D01*
X6376318Y-21201500D02*
X6366965Y-21188890D01*
X8903650Y-13903300D02*
X8906570Y-13907200D01*
X10793900Y-23120610D02*
X10805560Y-23041980D01*
X15584320Y-21259230D02*
X15568790Y-21256930D01*
X14299640Y-20500360D02*
X14296350Y-20496720D01*
X15747800Y-11961200D02*
X15741100Y-11975400D01*
X12314360Y-23581830D02*
X12273490Y-23650010D01*
X21669900Y-12485200D02*
X21674800Y-12486000D01*
X10512850Y-18120490D02*
X10514040Y-18125250D01*
X6613140Y-20986860D02*
X6623680Y-20998500D01*
X19093400Y-20492780D02*
X19090900Y-20488570D01*
X15314040Y-18125250D02*
X15314760Y-18130100D01*
X19087200Y-17679510D02*
X19086000Y-17674750D01*
X22594000Y-9444900D02*
X22576900Y-9443500D01*
X9530100Y-19485240D02*
X9535000Y-19485000D01*
X20686000Y-13925200D02*
X20687200Y-13920500D01*
X14335000Y-20515000D02*
X14330100Y-20514760D01*
X14288810Y-19084130D02*
X14287150Y-19079510D01*
X8896720Y-19496350D02*
X8900360Y-19499640D01*
X22731300Y-9385400D02*
X22719300Y-9397700D01*
X23569700Y-23517490D02*
X23537800Y-23532600D01*
X12693430Y-18107220D02*
X12696350Y-18103280D01*
X17503300Y-12496300D02*
X17507200Y-12493400D01*
X23171600Y-22921720D02*
X23200000Y-22900670D01*
X20115000Y-19535000D02*
X20115000Y-20465000D01*
X12703280Y-12496300D02*
X12707220Y-12493400D01*
X9520490Y-19487150D02*
X9525250Y-19485960D01*
X22773200Y-9292800D02*
X22770100Y-9309700D01*
X12685960Y-20474750D02*
X12685240Y-20469900D01*
X18351800Y-9182500D02*
X18359700Y-9197800D01*
X21684100Y-12488800D02*
X21688600Y-12490900D01*
X24746400Y-11746900D02*
X24761200Y-11752200D01*
X7180900Y-5051400D02*
X7183430Y-5047200D01*
X8888570Y-19490900D02*
X8892780Y-19493430D01*
X17496300Y-13903300D02*
X17499600Y-13899600D01*
X21665000Y-16685000D02*
X21669900Y-16685240D01*
X20065000Y-14915000D02*
X19135000Y-14915000D01*
X14315870Y-20511190D02*
X14311430Y-20509100D01*
X15296720Y-18096350D02*
X15300360Y-18099640D01*
X18465000Y-13885000D02*
X18469900Y-13885200D01*
X24860000Y-21100000D02*
X24859200Y-21115680D01*
X25582800Y-24816114D02*
X25592300Y-24778036D01*
X15747800Y-11838800D02*
X15753100Y-11853600D01*
X24840800Y-4715700D02*
X24840000Y-4700000D01*
X22432500Y-8841900D02*
X22340200Y-9037100D01*
X24624600Y-12041100D02*
X24611100Y-12033000D01*
X25422200Y-4167400D02*
X25388600Y-4147200D01*
X6641110Y-21024580D02*
X6647820Y-21038770D01*
X24856900Y-21131210D02*
X24853100Y-21146450D01*
X20696300Y-13496700D02*
X20693400Y-13492800D01*
X20686000Y-14874800D02*
X20685200Y-14869900D01*
X20690900Y-19511430D02*
X20693400Y-19507220D01*
X23470200Y-23553080D02*
X23435300Y-23558270D01*
X6231214Y-4543100D02*
X6246446Y-4546900D01*
X12069900Y-20514760D02*
X12065000Y-20515000D01*
X6647820Y-21161230D02*
X6641110Y-21175420D01*
X6358893Y-21024580D02*
X6366965Y-21011110D01*
X13700360Y-15299640D02*
X13703650Y-15303280D01*
X15538770Y-20952180D02*
X15553550Y-20946890D01*
X18084900Y-9138400D02*
X18098400Y-9127800D01*
X14758020Y-22405560D02*
X14835130Y-22424880D01*
X18469900Y-13514800D02*
X18465000Y-13515000D01*
X19096300Y-14896700D02*
X19093400Y-14892800D01*
X20678300Y-23428380D02*
X20654600Y-23454560D01*
X24859200Y-11884300D02*
X24860000Y-11900000D01*
X21665000Y-12485000D02*
X21669900Y-12485200D01*
X7885000Y-18135000D02*
X7885240Y-18130100D01*
X15279510Y-13512800D02*
X15274750Y-13514000D01*
X20725200Y-20514040D02*
X20720500Y-20512850D01*
X20711400Y-17709100D02*
X20707200Y-17706570D01*
X17485200Y-17669900D02*
X17485000Y-17665000D01*
X24540800Y-21084320D02*
X24543100Y-21068790D01*
X20079500Y-14912800D02*
X20074800Y-14914000D01*
X10824880Y-23435130D02*
X10805560Y-23358020D01*
X17121700Y-22971620D02*
X17145400Y-22945440D01*
X13714760Y-18130100D02*
X13715000Y-18135000D01*
X19120500Y-16687150D02*
X19125200Y-16685960D01*
X20111200Y-17684130D02*
X20109100Y-17688570D01*
X13669900Y-13514800D02*
X13665000Y-13515000D01*
X13688570Y-19109100D02*
X13684130Y-19111190D01*
X6575423Y-21241110D02*
X6561229Y-21247820D01*
X14290900Y-19511430D02*
X14293430Y-19507220D01*
X15292780Y-13506600D02*
X15288570Y-13509100D01*
X15274750Y-19114040D02*
X15269900Y-19114760D01*
X6058893Y-4775400D02*
X6052179Y-4761200D01*
X13714760Y-19530100D02*
X13715000Y-19535000D01*
X9530100Y-19114760D02*
X9525250Y-19114040D01*
X19085200Y-12530100D02*
X19086000Y-12525200D01*
X24546900Y-11853600D02*
X24552200Y-11838800D01*
X22293400Y-19507220D02*
X22296300Y-19503280D01*
X20545500Y-5362800D02*
X20554300Y-5377500D01*
X15476320Y-11798500D02*
X15486860Y-11786900D01*
X15443070Y-21131210D02*
X15440770Y-21115680D01*
X13684130Y-15288810D02*
X13688570Y-15290900D01*
X24953600Y-24346890D02*
X24968800Y-24343074D01*
X6484317Y-21259230D02*
X6468786Y-21256930D01*
X24853100Y-11853600D02*
X24856900Y-11868800D01*
X7183430Y-10952800D02*
X7180900Y-10948600D01*
X5960793Y-4101900D02*
X5921964Y-4107700D01*
X15675400Y-11758900D02*
X15688900Y-11767000D01*
X21700400Y-14900400D02*
X21696700Y-14903700D01*
X12685240Y-18130100D02*
X12685960Y-18125250D01*
X12688810Y-19084130D02*
X12687150Y-19079510D01*
X15568790Y-11743100D02*
X15584320Y-11740800D01*
X6076318Y-4801500D02*
X6066965Y-4788900D01*
X22687200Y-9118400D02*
X22701600Y-9127800D01*
X13714040Y-19525250D02*
X13714760Y-19530100D01*
X20111200Y-19515870D02*
X20112800Y-19520490D01*
X24788900Y-11767000D02*
X24801500Y-11776300D01*
X15312850Y-19079510D02*
X15311190Y-19084130D01*
X17525200Y-12486000D02*
X17530100Y-12485200D01*
X23274800Y-14914000D02*
X23269900Y-14914800D01*
X21669900Y-14914800D02*
X21665000Y-14915000D01*
X8869900Y-18085240D02*
X8874750Y-18085960D01*
X18068700Y-9385400D02*
X18058000Y-9371900D01*
X11090900Y-13911400D02*
X11093430Y-13907200D01*
X20686000Y-20474750D02*
X20685200Y-20469900D01*
X23055500Y-23095500D02*
X23067400Y-23062230D01*
X18492800Y-13506600D02*
X18488600Y-13509100D01*
X16024000Y-10934800D02*
X16022800Y-10939500D01*
X13700360Y-13500400D02*
X13696720Y-13503700D01*
X20289000Y-5324700D02*
X20302800Y-5314500D01*
X19096300Y-13496700D02*
X19093400Y-13492800D01*
X7907220Y-14906600D02*
X7903280Y-14903700D01*
X21688600Y-13509100D02*
X21684100Y-13511200D01*
X12065000Y-18085000D02*
X12069900Y-18085240D01*
X17535000Y-16685000D02*
X18465000Y-16685000D01*
X24823700Y-21201500D02*
X24813100Y-21213140D01*
X15288570Y-12490900D02*
X15292780Y-12493400D01*
X21688600Y-12490900D02*
X21692800Y-12493400D01*
X14287150Y-19079510D02*
X14285960Y-19074750D01*
X12715870Y-18088810D02*
X12720490Y-18087150D01*
X23309100Y-14888600D02*
X23306600Y-14892800D01*
X19103300Y-13503700D02*
X19099600Y-13500400D01*
X14364870Y-23975120D02*
X14290030Y-23948340D01*
X6588891Y-21233040D02*
X6575423Y-21241110D01*
X23145400Y-23454560D02*
X23121700Y-23428380D01*
X22497800Y-9412200D02*
X22484300Y-9401600D01*
X9493430Y-18107220D02*
X9496350Y-18103280D01*
X17230300Y-23517490D02*
X17200000Y-23499330D01*
X12685960Y-13474800D02*
X12685240Y-13469900D01*
X17487200Y-14879500D02*
X17486000Y-14874800D01*
X14285000Y-19535000D02*
X14285240Y-19530100D01*
X22325200Y-20514040D02*
X22320500Y-20512850D01*
X8884130Y-19488810D02*
X8888570Y-19490900D01*
X23315000Y-13935000D02*
X23315000Y-14865000D01*
X8903650Y-18103280D02*
X8906570Y-18107220D01*
X20688800Y-13484100D02*
X20687200Y-13479500D01*
X8892780Y-13893400D02*
X8896720Y-13896300D01*
X15661200Y-11752200D02*
X15675400Y-11758900D01*
X17511400Y-19490900D02*
X17515900Y-19488810D01*
X19135000Y-20515000D02*
X19130100Y-20514760D01*
X18500400Y-13500400D02*
X18496700Y-13503700D01*
X12111190Y-19084130D02*
X12109100Y-19088570D01*
X9503280Y-16303650D02*
X9499640Y-16300360D01*
X15284130Y-12488800D02*
X15288570Y-12490900D01*
X11125250Y-19114040D02*
X11120490Y-19112850D01*
X13679510Y-15287150D02*
X13684130Y-15288810D01*
X15314360Y-22818170D02*
X15348340Y-22890030D01*
X13692780Y-15293430D02*
X13696720Y-15296350D01*
X17493400Y-19507220D02*
X17496300Y-19503280D01*
X20111200Y-13484100D02*
X20109100Y-13488600D01*
X21703700Y-17696720D02*
X21700400Y-17700360D01*
X18509100Y-20488570D02*
X18506600Y-20492780D01*
X13706570Y-13492800D02*
X13703650Y-13496700D01*
X20685200Y-14869900D02*
X20685000Y-14865000D01*
X24543100Y-21068790D02*
X24546900Y-21053550D01*
X25600000Y-4500000D02*
X25598100Y-4460800D01*
X20302800Y-5314500D02*
X20317500Y-5305700D01*
X7887150Y-19079510D02*
X7885960Y-19074750D01*
X20230300Y-23517490D02*
X20200000Y-23499330D01*
X9485000Y-15335000D02*
X9485240Y-15330100D01*
X10514040Y-19074750D02*
X10512850Y-19079510D01*
X6043074Y-4668800D02*
X6046890Y-4653600D01*
X17628400Y-23478280D02*
X17600000Y-23499330D01*
X25061200Y-24647821D02*
X25046400Y-24653110D01*
X25000000Y-4860000D02*
X24984300Y-4859200D01*
X12088570Y-19490900D02*
X12092780Y-19493430D01*
X15688900Y-20966960D02*
X15701500Y-20976320D01*
X20829200Y-10157700D02*
X20615600Y-10189400D01*
X18515000Y-13935000D02*
X18515000Y-14865000D01*
X10492780Y-13506600D02*
X10488570Y-13509100D01*
X7915870Y-13888800D02*
X7920490Y-13887200D01*
X5846927Y-4130400D02*
X5811441Y-4147200D01*
X20688800Y-19515870D02*
X20690900Y-19511430D01*
X8874750Y-19114040D02*
X8869900Y-19114760D01*
X10465000Y-20515000D02*
X9535000Y-20515000D01*
X24833000Y-21188890D02*
X24823700Y-21201500D01*
X24611100Y-20966960D02*
X24624600Y-20958890D01*
X22571200Y-9097300D02*
X22588300Y-9095400D01*
X20084100Y-13888800D02*
X20088600Y-13890900D01*
X12711430Y-18090900D02*
X12715870Y-18088810D01*
X7824880Y-23435130D02*
X7805560Y-23358020D01*
X20262200Y-23532600D02*
X20230300Y-23517490D01*
X14311430Y-18090900D02*
X14315870Y-18088810D01*
X9485960Y-19525250D02*
X9487150Y-19520490D01*
X7935000Y-19115000D02*
X7930100Y-19114760D01*
X13674750Y-13514000D02*
X13669900Y-13514800D01*
X17485000Y-12535000D02*
X17485200Y-12530100D01*
X12685000Y-13465000D02*
X12685000Y-12535000D01*
X19135000Y-16685000D02*
X20065000Y-16685000D01*
X10503650Y-12503300D02*
X10506570Y-12507200D01*
X23312800Y-20479510D02*
X23311200Y-20484130D01*
X13665000Y-20515000D02*
X12735000Y-20515000D01*
X22320500Y-19487150D02*
X22325200Y-19485960D01*
X9485000Y-13465000D02*
X9485000Y-12535000D01*
X18034600Y-9326300D02*
X18029900Y-9309700D01*
X25075400Y-24641107D02*
X25061200Y-24647821D01*
X19088800Y-14884100D02*
X19087200Y-14879500D01*
X7896350Y-14896700D02*
X7893430Y-14892800D01*
X20467000Y-5621700D02*
X20450800Y-5627500D01*
X7899640Y-13899600D02*
X7903280Y-13896300D01*
X13851660Y-23509970D02*
X13824880Y-23435130D01*
X11096350Y-19503280D02*
X11099640Y-19499640D01*
X22303300Y-20503650D02*
X22299600Y-20500360D01*
X16021200Y-10944100D02*
X16019100Y-10948600D01*
X20715900Y-17711190D02*
X20711400Y-17709100D01*
X19115900Y-13511200D02*
X19111400Y-13509100D01*
X23274800Y-20514040D02*
X23269900Y-20514760D01*
X20333000Y-5298300D02*
X20349200Y-5292500D01*
X14285960Y-13474800D02*
X14285240Y-13469900D01*
X13679510Y-12487200D02*
X13684130Y-12488800D01*
X15452180Y-21161230D02*
X15446890Y-21146450D01*
X14315870Y-13511200D02*
X14311430Y-13509100D01*
X23314800Y-19530100D02*
X23315000Y-19535000D01*
X7893430Y-19507220D02*
X7896350Y-19503280D01*
X15312850Y-16279510D02*
X15311190Y-16284130D01*
X9520490Y-18087150D02*
X9525250Y-18085960D01*
X23314000Y-13925200D02*
X23314800Y-13930100D01*
X24611100Y-12033000D02*
X24598500Y-12023700D01*
X23753100Y-23270230D02*
X23744500Y-23304500D01*
X22296300Y-13903300D02*
X22299600Y-13899600D01*
X20232500Y-5409200D02*
X20238300Y-5393000D01*
X21715000Y-13935000D02*
X21715000Y-14865000D01*
X19103300Y-14903700D02*
X19099600Y-14900400D01*
X15631200Y-20943070D02*
X15646400Y-20946890D01*
X20688800Y-12515900D02*
X20690900Y-12511400D01*
X7896350Y-18103280D02*
X7899640Y-18099640D01*
X13712850Y-15320490D02*
X13714040Y-15325250D01*
X22765400Y-9326300D02*
X22759100Y-9342200D01*
X6340770Y-21084320D02*
X6343074Y-21068790D01*
X15979900Y-10974800D02*
X15975000Y-10975000D01*
X8903650Y-20496720D02*
X8900360Y-20500360D01*
X20225000Y-5460000D02*
X20225800Y-5442800D01*
X18488600Y-20509100D02*
X18484100Y-20511190D01*
X15292780Y-19106570D02*
X15288570Y-19109100D01*
X10512850Y-16279510D02*
X10511190Y-16284130D01*
X22288800Y-20484130D02*
X22287200Y-20479510D01*
X11135000Y-19485000D02*
X12065000Y-19485000D01*
X6046890Y-4746400D02*
X6043074Y-4731200D01*
X19093400Y-14892800D02*
X19090900Y-14888600D01*
X18319900Y-9142300D02*
X18331900Y-9154600D01*
X17200000Y-23499330D02*
X17171600Y-23478280D01*
X17503300Y-19496350D02*
X17507200Y-19493430D01*
X25156900Y-24468786D02*
X25159200Y-24484317D01*
X20114800Y-12530100D02*
X20115000Y-12535000D01*
X20112800Y-13479500D02*
X20111200Y-13484100D01*
X13712850Y-18120490D02*
X13714040Y-18125250D01*
X24858900Y-4624600D02*
X24867000Y-4611100D01*
X15446890Y-11946400D02*
X15443070Y-11931200D01*
X20082500Y-23369700D02*
X20067400Y-23337770D01*
X23717500Y-23030300D02*
X23732600Y-23062230D01*
X22290900Y-13911400D02*
X22293400Y-13907200D01*
X10514040Y-13474800D02*
X10512850Y-13479500D01*
X12715870Y-12488800D02*
X12720490Y-12487200D01*
X10973860Y-23713860D02*
X10926510Y-23650010D01*
X22448200Y-9182500D02*
X22457500Y-9168100D01*
X6200000Y-24340000D02*
X6215683Y-24340770D01*
X19086000Y-13925200D02*
X19087200Y-13920500D01*
X15486860Y-12013100D02*
X15476320Y-12001500D01*
X19130100Y-14914800D02*
X19125200Y-14914000D01*
X24543100Y-11868800D02*
X24546900Y-11853600D01*
X6411109Y-21233040D02*
X6398497Y-21223680D01*
X10805560Y-23358020D02*
X10793900Y-23279390D01*
X18469900Y-17714760D02*
X18465000Y-17715000D01*
X12685960Y-19525250D02*
X12687150Y-19520490D01*
X21714800Y-14869900D02*
X21714000Y-14874800D01*
X10509100Y-20488570D02*
X10506570Y-20492780D01*
X10515000Y-20465000D02*
X10514760Y-20469900D01*
X14441980Y-23994440D02*
X14364870Y-23975120D01*
X22770100Y-9309700D02*
X22765400Y-9326300D01*
X20717500Y-23030300D02*
X20732600Y-23062230D01*
X19761400Y-10105300D02*
X19558100Y-10032500D01*
X20554300Y-5377500D02*
X20561700Y-5393000D01*
X16016600Y-10952800D02*
X16013700Y-10956700D01*
X21684100Y-13511200D02*
X21679500Y-13512800D01*
X12314360Y-22818170D02*
X12348340Y-22890030D01*
X14307220Y-15293430D02*
X14311430Y-15290900D01*
X25123700Y-24398497D02*
X25133000Y-24411109D01*
X14285240Y-13469900D02*
X14285000Y-13465000D01*
X7201430Y-5030900D02*
X7205870Y-5028800D01*
X25000000Y-4540000D02*
X25015700Y-4540800D01*
X20400000Y-10200000D02*
X20184400Y-10189400D01*
X9485240Y-19530100D02*
X9485960Y-19525250D01*
X17485200Y-16730100D02*
X17486000Y-16725250D01*
X7915870Y-19488810D02*
X7920490Y-19487150D01*
X13696720Y-12496300D02*
X13700360Y-12499600D01*
X14307220Y-19106570D02*
X14303280Y-19103650D01*
X13700360Y-19100360D02*
X13696720Y-19103650D01*
X25592300Y-24778036D02*
X25598100Y-24739207D01*
X7805560Y-23358020D02*
X7793900Y-23279390D01*
X8912850Y-19079510D02*
X8911190Y-19084130D01*
X8911190Y-18115870D02*
X8912850Y-18120490D01*
X13851660Y-22890030D02*
X13885640Y-22818170D01*
X22290900Y-20488570D02*
X22288800Y-20484130D01*
X8909100Y-19088570D02*
X8906570Y-19092780D01*
X19087200Y-12520500D02*
X19088800Y-12515900D01*
X20467000Y-5298300D02*
X20482500Y-5305700D01*
X9499640Y-15299640D02*
X9503280Y-15296350D01*
X24668800Y-11743100D02*
X24684300Y-11740800D01*
X25552800Y-4311400D02*
X25532600Y-4277800D01*
X15306570Y-13492800D02*
X15303650Y-13496700D01*
X22287200Y-20479510D02*
X22286000Y-20474750D01*
X11099640Y-19100360D02*
X11096350Y-19096720D01*
X17499600Y-16699640D02*
X17503300Y-16696350D01*
X11088810Y-19515870D02*
X11090900Y-19511430D01*
X9488810Y-15315870D02*
X9490900Y-15311430D01*
X25239200Y-4101900D02*
X25200000Y-4100000D01*
X12735000Y-19115000D02*
X12730100Y-19114760D01*
X6356926Y-4668800D02*
X6359230Y-4684300D01*
X22434000Y-9213700D02*
X22440300Y-9197800D01*
X19115900Y-20511190D02*
X19111400Y-20509100D01*
X18302200Y-9412200D02*
X18287800Y-9421600D01*
X12114040Y-19074750D02*
X12112850Y-19079510D01*
X12687150Y-19520490D02*
X12688810Y-19515870D01*
X14285240Y-18130100D02*
X14285960Y-18125250D01*
X6613140Y-21213140D02*
X6601500Y-21223680D01*
X17496300Y-20496720D02*
X17493400Y-20492780D01*
X14303280Y-15296350D02*
X14307220Y-15293430D01*
X7885960Y-19525250D02*
X7887150Y-19520490D01*
X13688570Y-16309100D02*
X13684130Y-16311190D01*
X20092800Y-19493430D02*
X20096700Y-19496350D01*
X11090900Y-20488570D02*
X11088810Y-20484130D01*
X18500400Y-13899600D02*
X18503700Y-13903300D01*
X9515870Y-13511200D02*
X9511430Y-13509100D01*
X6376318Y-20998500D02*
X6386863Y-20986860D01*
X18469900Y-20514760D02*
X18465000Y-20515000D01*
X12690900Y-19088570D02*
X12688810Y-19084130D01*
X9490900Y-16288570D02*
X9488810Y-16284130D01*
X17530100Y-13885200D02*
X17535000Y-13885000D01*
X19761400Y-5894700D02*
X19970800Y-5842300D01*
X6656930Y-21068790D02*
X6659230Y-21084320D01*
X9493430Y-16292780D02*
X9490900Y-16288570D01*
X18194600Y-9095100D02*
X18211700Y-9095400D01*
X20711400Y-19490900D02*
X20715900Y-19488810D01*
X7885960Y-18125250D02*
X7887150Y-18120490D01*
X15524580Y-11758900D02*
X15538770Y-11752200D01*
X25046400Y-4546900D02*
X25061200Y-4552200D01*
X13706570Y-20492780D02*
X13703650Y-20496720D01*
X24801500Y-11776300D02*
X24813100Y-11786900D01*
X12074750Y-19114040D02*
X12069900Y-19114760D01*
X21714800Y-12530100D02*
X21715000Y-12535000D01*
X15303650Y-12503300D02*
X15306570Y-12507200D01*
X21437100Y-6059800D02*
X21622300Y-6170800D01*
X10506570Y-19092780D02*
X10503650Y-19096720D01*
X7911430Y-20509100D02*
X7907220Y-20506570D01*
X12172760Y-23772760D02*
X12113860Y-23826140D01*
X11090900Y-18111430D02*
X11093430Y-18107220D01*
X20699600Y-16699640D02*
X20703300Y-16696350D01*
X9507220Y-15293430D02*
X9511430Y-15290900D01*
X24540800Y-11884300D02*
X24543100Y-11868800D01*
X20295500Y-23544500D02*
X20262200Y-23532600D01*
X17507200Y-13506600D02*
X17503300Y-13503700D01*
X20686000Y-12525200D02*
X20687200Y-12520500D01*
X14835130Y-22424880D02*
X14909970Y-22451660D01*
X20720500Y-17712850D02*
X20715900Y-17711190D01*
X15511110Y-21233040D02*
X15498500Y-21223680D01*
X7899640Y-19499640D02*
X7903280Y-19496350D01*
X10514040Y-20474750D02*
X10512850Y-20479510D01*
X11111430Y-19109100D02*
X11107220Y-19106570D01*
X23303700Y-19503280D02*
X23306600Y-19507220D01*
X12065000Y-13885000D02*
X12069900Y-13885200D01*
X15760000Y-21100000D02*
X15759200Y-21115680D01*
X9487150Y-15320490D02*
X9488810Y-15315870D01*
X9511430Y-19109100D02*
X9507220Y-19106570D01*
X12106570Y-18107220D02*
X12109100Y-18111430D01*
X14320490Y-13512800D02*
X14315870Y-13511200D01*
X24953600Y-24653110D02*
X24938800Y-24647821D01*
X22457500Y-9168100D02*
X22468100Y-9154600D01*
X7175000Y-5075000D02*
X7175240Y-5070100D01*
X20693400Y-13907200D02*
X20696300Y-13903300D01*
X9406100Y-23279390D02*
X9394440Y-23358020D01*
X19125200Y-14914000D02*
X19120500Y-14912800D01*
X13709100Y-19088570D02*
X13706570Y-19092780D01*
X18256500Y-9435700D02*
X18240000Y-9440400D01*
X18503700Y-13496700D02*
X18500400Y-13500400D01*
X10500360Y-18099640D02*
X10503650Y-18103280D01*
X20688800Y-13915900D02*
X20690900Y-13911400D01*
X9499640Y-18099640D02*
X9503280Y-18096350D01*
X15440770Y-21115680D02*
X15440000Y-21100000D01*
X9050010Y-23873490D02*
X8981830Y-23914360D01*
X7197220Y-5033400D02*
X7201430Y-5030900D01*
X7915870Y-19111190D02*
X7911430Y-19109100D01*
X19096300Y-13903300D02*
X19099600Y-13899600D01*
X18331900Y-9154600D02*
X18342500Y-9168100D01*
X7885240Y-18130100D02*
X7885960Y-18125250D01*
X11115870Y-13888800D02*
X11120490Y-13887200D01*
X10511190Y-15315870D02*
X10512850Y-15320490D01*
X17520500Y-13887200D02*
X17525200Y-13886000D01*
X12109100Y-18111430D02*
X12111190Y-18115870D01*
X12720490Y-20512850D02*
X12715870Y-20511190D01*
X17744500Y-23095500D02*
X17753100Y-23129770D01*
X20523700Y-5583700D02*
X20511000Y-5595300D01*
X15314040Y-13474800D02*
X15312850Y-13479500D01*
X8884130Y-14911200D02*
X8879510Y-14912800D01*
X8900360Y-13899600D02*
X8903650Y-13903300D01*
X18292700Y-9121400D02*
X18306800Y-9131200D01*
X6366965Y-21188890D02*
X6358893Y-21175420D01*
X22600000Y-8000000D02*
X22589400Y-8215600D01*
X15410000Y-23200000D02*
X15406100Y-23279390D01*
X24638800Y-20952180D02*
X24653600Y-20946890D01*
X20109100Y-17688570D02*
X20106600Y-17692780D01*
X20575000Y-5460000D02*
X20574200Y-5477200D01*
X20730100Y-13885200D02*
X20735000Y-13885000D01*
X20100400Y-13500400D02*
X20096700Y-13503700D01*
X20732600Y-23062230D02*
X20744500Y-23095500D01*
X16006700Y-10963700D02*
X16002800Y-10966600D01*
X24586900Y-12013100D02*
X24576300Y-12001500D01*
X12696350Y-13496700D02*
X12693430Y-13492800D01*
X12693430Y-19507220D02*
X12696350Y-19503280D01*
X22229200Y-6777700D02*
X22340200Y-6962900D01*
X19120500Y-13512800D02*
X19115900Y-13511200D01*
X10474750Y-13514000D02*
X10469900Y-13514800D01*
X15265000Y-19485000D02*
X15269900Y-19485240D01*
X25088900Y-24633035D02*
X25075400Y-24641107D01*
X22315900Y-14911200D02*
X22311400Y-14909100D01*
X21715000Y-16735000D02*
X21715000Y-17665000D01*
X12715870Y-15288810D02*
X12720490Y-15287150D01*
X13665000Y-13515000D02*
X12735000Y-13515000D01*
X25133000Y-4611100D02*
X25141100Y-4624600D01*
X18509100Y-19511430D02*
X18511200Y-19515870D01*
X18479500Y-20512850D02*
X18474800Y-20514040D01*
X8900360Y-20500360D02*
X8896720Y-20503650D01*
X19099600Y-14900400D02*
X19096300Y-14896700D01*
X8679390Y-22393900D02*
X8758020Y-22405560D01*
X10506570Y-13492800D02*
X10503650Y-13496700D01*
X14679390Y-24006100D02*
X14600000Y-24010000D01*
X20690900Y-14888600D02*
X20688800Y-14884100D01*
X20686000Y-16725250D02*
X20687200Y-16720490D01*
X15296720Y-19103650D02*
X15292780Y-19106570D01*
X13712850Y-16279510D02*
X13711190Y-16284130D01*
X12114760Y-18130100D02*
X12115000Y-18135000D01*
X19362900Y-6059800D02*
X19558100Y-5967500D01*
X18277700Y-9113000D02*
X18292700Y-9121400D01*
X12685000Y-19065000D02*
X12685000Y-18135000D01*
X18496700Y-19496350D02*
X18500400Y-19499640D01*
X24867000Y-4788900D02*
X24858900Y-4775400D01*
X12711430Y-16309100D02*
X12707220Y-16306570D01*
X25015700Y-24659230D02*
X25000000Y-24660000D01*
X18025700Y-9258600D02*
X18027600Y-9241500D01*
X12687150Y-15320490D02*
X12688810Y-15315870D01*
X13715000Y-12535000D02*
X13715000Y-13465000D01*
X23744500Y-23304500D02*
X23732600Y-23337770D01*
X19103300Y-17703650D02*
X19099600Y-17700360D01*
X11088810Y-19084130D02*
X11087150Y-19079510D01*
X8874750Y-14914000D02*
X8869900Y-14914800D01*
X20687200Y-14879500D02*
X20686000Y-14874800D01*
X15348340Y-22890030D02*
X15375120Y-22964870D01*
X8149990Y-22526510D02*
X8218170Y-22485640D01*
X10469900Y-12485200D02*
X10474750Y-12486000D01*
X20200000Y-22900670D02*
X20230300Y-22882510D01*
X20111200Y-13915900D02*
X20112800Y-13920500D01*
X17520500Y-12487200D02*
X17525200Y-12486000D01*
X19111400Y-14909100D02*
X19107200Y-14906600D01*
X21692800Y-20506570D02*
X21688600Y-20509100D01*
X15675400Y-12041100D02*
X15661200Y-12047800D01*
X12685960Y-15325250D02*
X12687150Y-15320490D01*
X17530100Y-16685240D02*
X17535000Y-16685000D01*
X20685200Y-12530100D02*
X20686000Y-12525200D01*
X17525200Y-13886000D02*
X17530100Y-13885200D01*
X22493200Y-9131200D02*
X22507300Y-9121400D01*
X24853100Y-21146450D02*
X24847800Y-21161230D01*
X10509100Y-19511430D02*
X10511190Y-19515870D01*
X25353100Y-25069552D02*
X25388600Y-25052768D01*
X12348340Y-23509970D02*
X12314360Y-23581830D01*
X8914760Y-19069900D02*
X8914040Y-19074750D01*
X24638800Y-12047800D02*
X24624600Y-12041100D01*
X19120500Y-13887200D02*
X19125200Y-13886000D01*
X13714040Y-19074750D02*
X13712850Y-19079510D01*
X7885240Y-13930100D02*
X7885960Y-13925200D01*
X20115000Y-14865000D02*
X20114800Y-14869900D01*
X12100360Y-19499640D02*
X12103650Y-19503280D01*
X17520500Y-13512800D02*
X17515900Y-13511200D01*
X13703650Y-16296720D02*
X13700360Y-16300360D01*
X13665000Y-18085000D02*
X13669900Y-18085240D01*
X11085960Y-14874800D02*
X11085240Y-14869900D01*
X16006700Y-5036300D02*
X16010400Y-5039600D01*
X6153554Y-24653110D02*
X6138771Y-24647821D01*
X6052179Y-24561229D02*
X6046890Y-24546446D01*
X22330100Y-13885200D02*
X22335000Y-13885000D01*
X20103700Y-19503280D02*
X20106600Y-19507220D01*
X19107200Y-20506570D02*
X19103300Y-20503650D01*
X15998600Y-10969100D02*
X15994100Y-10971200D01*
X20417200Y-5634200D02*
X20400000Y-5635000D01*
X20114800Y-20469900D02*
X20114000Y-20474750D01*
X24833000Y-11988900D02*
X24823700Y-12001500D01*
X13885640Y-23581830D02*
X13851660Y-23509970D01*
X23265000Y-19485000D02*
X23269900Y-19485240D01*
X13714760Y-16269900D02*
X13714040Y-16274750D01*
X15279510Y-16312850D02*
X15274750Y-16314040D01*
X9406100Y-23120610D02*
X9410000Y-23200000D01*
X21688600Y-16690900D02*
X21692800Y-16693430D01*
X15306570Y-12507200D02*
X15309100Y-12511400D01*
X10488570Y-16309100D02*
X10484130Y-16311190D01*
X20349200Y-5292500D02*
X20365900Y-5288400D01*
X7887150Y-13920500D02*
X7888810Y-13915900D01*
X8364870Y-23975120D02*
X8290030Y-23948340D01*
X24968800Y-4856900D02*
X24953600Y-4853100D01*
X20067400Y-23062230D02*
X20082500Y-23030300D01*
X12112850Y-19520490D02*
X12114040Y-19525250D01*
X20114800Y-19530100D02*
X20115000Y-19535000D01*
X21711200Y-16715870D02*
X21712800Y-16720490D01*
X18469900Y-13885200D02*
X18474800Y-13886000D01*
X6633040Y-21011110D02*
X6641110Y-21024580D01*
X17535000Y-12485000D02*
X18465000Y-12485000D01*
X12106570Y-13907200D02*
X12109100Y-13911400D01*
X22774600Y-9275700D02*
X22773200Y-9292800D01*
X12096720Y-19496350D02*
X12100360Y-19499640D01*
X6561229Y-21247820D02*
X6546446Y-21253110D01*
X10512850Y-15320490D02*
X10514040Y-15325250D01*
X21712800Y-12520500D02*
X21714000Y-12525200D01*
X17262200Y-22867400D02*
X17295500Y-22855500D01*
X11088810Y-13915900D02*
X11090900Y-13911400D01*
X20690900Y-12511400D02*
X20693400Y-12507200D01*
X22589400Y-7784400D02*
X22600000Y-8000000D01*
X20600000Y-22900670D02*
X20628400Y-22921720D01*
X22299600Y-19499640D02*
X22303300Y-19496350D01*
X9530100Y-15285240D02*
X9535000Y-15285000D01*
X7887150Y-20479510D02*
X7885960Y-20474750D01*
X20574200Y-5442800D02*
X20575000Y-5460000D01*
X13669900Y-20514760D02*
X13665000Y-20515000D01*
X14290900Y-20488570D02*
X14288810Y-20484130D01*
X20504500Y-23544500D02*
X20470200Y-23553080D01*
X11088810Y-20484130D02*
X11087150Y-20479510D01*
X12100360Y-18099640D02*
X12103650Y-18103280D01*
X17486000Y-17674750D02*
X17485200Y-17669900D01*
X20079500Y-13887200D02*
X20084100Y-13888800D01*
X15300360Y-12499600D02*
X15303650Y-12503300D01*
X7885000Y-13935000D02*
X7885240Y-13930100D01*
X13684130Y-20511190D02*
X13679510Y-20512850D01*
X7189640Y-5039600D02*
X7193280Y-5036300D01*
X25278000Y-25092314D02*
X25316100Y-25082776D01*
X12410000Y-23200000D02*
X12406100Y-23279390D01*
X19085000Y-13935000D02*
X19085200Y-13930100D01*
X6359230Y-4715700D02*
X6356926Y-4731200D01*
X18492800Y-14906600D02*
X18488600Y-14909100D01*
X23296700Y-20503650D02*
X23292800Y-20506570D01*
X25133000Y-24411109D02*
X25141100Y-24424577D01*
X20065000Y-12485000D02*
X20069900Y-12485200D01*
X17486000Y-12525200D02*
X17487200Y-12520500D01*
X18514800Y-20469900D02*
X18514000Y-20474750D01*
X18511200Y-13915900D02*
X18512800Y-13920500D01*
X24638800Y-11752200D02*
X24653600Y-11746900D01*
X24938800Y-24647821D02*
X24924600Y-24641107D01*
X20696300Y-13903300D02*
X20699600Y-13899600D01*
X19085000Y-16735000D02*
X19085200Y-16730100D01*
X20730100Y-13514800D02*
X20725200Y-13514000D01*
X17121700Y-23428380D02*
X17100700Y-23400010D01*
X25075400Y-4841100D02*
X25061200Y-4847800D01*
X7887150Y-19520490D02*
X7888810Y-19515870D01*
X12699640Y-18099640D02*
X12703280Y-18096350D01*
X22299600Y-13899600D02*
X22303300Y-13896300D01*
X9530100Y-20514760D02*
X9525250Y-20514040D01*
X15303650Y-19503280D02*
X15306570Y-19507220D01*
X17493400Y-12507200D02*
X17496300Y-12503300D01*
X11099640Y-14900400D02*
X11096350Y-14896700D01*
X15759200Y-21115680D02*
X15756900Y-21131210D01*
X19115900Y-16688810D02*
X19120500Y-16687150D01*
X6660000Y-11900000D02*
X6659230Y-11915700D01*
X24540800Y-11915700D02*
X24540000Y-11900000D01*
X14296350Y-15303280D02*
X14299640Y-15299640D01*
X9488810Y-13484100D02*
X9487150Y-13479500D01*
X17470200Y-23553080D02*
X17435300Y-23558270D01*
X9499640Y-13500400D02*
X9496350Y-13496700D01*
X20685200Y-16730100D02*
X20686000Y-16725250D01*
X15747800Y-21038770D02*
X15753100Y-21053550D01*
X10474750Y-19485960D02*
X10479510Y-19487150D01*
X17487200Y-12520500D02*
X17488800Y-12515900D01*
X21795700Y-6299400D02*
X21955600Y-6444400D01*
X13669900Y-18085240D02*
X13674750Y-18085960D01*
X9535000Y-16315000D02*
X9530100Y-16314760D01*
X13709100Y-16288570D02*
X13706570Y-16292780D01*
X6613140Y-12013100D02*
X6601500Y-12023700D01*
X9525250Y-19485960D02*
X9530100Y-19485240D01*
X19120500Y-12487200D02*
X19125200Y-12486000D01*
X8900360Y-19100360D02*
X8896720Y-19103650D01*
X7896350Y-19503280D02*
X7899640Y-19499640D01*
X7175960Y-10934800D02*
X7175240Y-10929900D01*
X20703300Y-19496350D02*
X20707200Y-19493430D01*
X6561229Y-11752200D02*
X6575423Y-11758900D01*
X9503280Y-12496300D02*
X9507220Y-12493400D01*
X5607686Y-4422000D02*
X5601926Y-4460800D01*
X10512850Y-19079510D02*
X10511190Y-19084130D01*
X24558900Y-21024580D02*
X24567000Y-21011110D01*
X18484100Y-16688810D02*
X18488600Y-16690900D01*
X8888570Y-13890900D02*
X8892780Y-13893400D01*
X25278000Y-4107700D02*
X25239200Y-4101900D01*
X15309100Y-13488600D02*
X15306570Y-13492800D01*
X14285000Y-12535000D02*
X14285240Y-12530100D01*
X24847800Y-11961200D02*
X24841100Y-11975400D01*
X12079510Y-18087150D02*
X12084130Y-18088810D01*
X20115000Y-16735000D02*
X20115000Y-17665000D01*
X23628400Y-23478280D02*
X23600000Y-23499330D01*
X20067400Y-23337770D02*
X20055500Y-23304500D01*
X14149990Y-22526510D02*
X14218170Y-22485640D01*
X12690900Y-20488570D02*
X12688810Y-20484130D01*
X15292780Y-15293430D02*
X15296720Y-15296350D01*
X24840000Y-24500000D02*
X24840800Y-24484317D01*
X20106600Y-12507200D02*
X20109100Y-12511400D01*
X12111190Y-18115870D02*
X12112850Y-18120490D01*
X18072600Y-9150400D02*
X18084900Y-9138400D01*
X18514000Y-19525250D02*
X18514800Y-19530100D01*
X6275423Y-4558900D02*
X6288891Y-4567000D01*
X7903280Y-19496350D02*
X7907220Y-19493430D01*
X20685000Y-13465000D02*
X20685000Y-12535000D01*
X14303280Y-19103650D02*
X14299640Y-19100360D01*
X22287200Y-14879500D02*
X22286000Y-14874800D01*
X25031200Y-4543100D02*
X25046400Y-4546900D01*
X9515870Y-18088810D02*
X9520490Y-18087150D01*
X20511000Y-5595300D02*
X20497200Y-5605500D01*
X8900360Y-18099640D02*
X8903650Y-18103280D01*
X22285200Y-19530100D02*
X22286000Y-19525250D01*
X22645000Y-9439000D02*
X22628200Y-9442700D01*
X25101500Y-4823700D02*
X25088900Y-4833000D01*
X15498500Y-12023700D02*
X15486860Y-12013100D01*
X20329800Y-22846920D02*
X20364700Y-22841730D01*
X12115000Y-19065000D02*
X12114760Y-19069900D01*
X15661200Y-12047800D02*
X15646400Y-12053100D01*
X20276300Y-5336300D02*
X20289000Y-5324700D01*
X20685000Y-13935000D02*
X20685200Y-13930100D01*
X12720490Y-19487150D02*
X12725250Y-19485960D01*
X15486860Y-21213140D02*
X15476320Y-21201500D01*
X8914040Y-19525250D02*
X8914760Y-19530100D01*
X18509100Y-16711430D02*
X18511200Y-16715870D01*
X8906570Y-14892800D02*
X8903650Y-14896700D01*
X14311430Y-19490900D02*
X14315870Y-19488810D01*
X19115900Y-12488800D02*
X19120500Y-12487200D01*
X24856900Y-11931200D02*
X24853100Y-11946400D01*
X6411109Y-11767000D02*
X6424577Y-11758900D01*
X20699600Y-12499600D02*
X20703300Y-12496300D01*
X8364870Y-22424880D02*
X8441980Y-22405560D01*
X24858900Y-24424577D02*
X24867000Y-24411109D01*
X17504500Y-22855500D02*
X17537800Y-22867400D01*
X18506600Y-17692780D02*
X18503700Y-17696720D01*
X17055500Y-23095500D02*
X17067400Y-23062230D01*
X20571600Y-5425900D02*
X20574200Y-5442800D01*
X18479500Y-13512800D02*
X18474800Y-13514000D01*
X24731200Y-12056900D02*
X24715700Y-12059200D01*
X7885960Y-20474750D02*
X7885240Y-20469900D01*
X15759200Y-21084320D02*
X15760000Y-21100000D01*
X6138771Y-24647821D02*
X6124577Y-24641107D01*
X10514040Y-15325250D02*
X10514760Y-15330100D01*
X23504500Y-22855500D02*
X23537800Y-22867400D01*
X13665000Y-15285000D02*
X13669900Y-15285240D01*
X12088570Y-18090900D02*
X12092780Y-18093430D01*
X24984300Y-4859200D02*
X24968800Y-4856900D01*
X9530100Y-16314760D02*
X9525250Y-16314040D01*
X15279510Y-20512850D02*
X15274750Y-20514040D01*
X15274750Y-16314040D02*
X15269900Y-16314760D01*
X18210600Y-7784400D02*
X18242300Y-7570800D01*
X10474750Y-15285960D02*
X10479510Y-15287150D01*
X20720500Y-12487200D02*
X20725200Y-12486000D01*
X15440770Y-11884300D02*
X15443070Y-11868800D01*
X22293400Y-14892800D02*
X22290900Y-14888600D01*
X22335000Y-13885000D02*
X23265000Y-13885000D01*
X18512800Y-13920500D02*
X18514000Y-13925200D01*
X14835130Y-23975120D02*
X14758020Y-23994440D01*
X6346890Y-11853600D02*
X6352179Y-11838800D01*
X8915000Y-20465000D02*
X8914760Y-20469900D01*
X21715000Y-17665000D02*
X21714800Y-17669900D01*
X11090900Y-19088570D02*
X11088810Y-19084130D01*
X10488570Y-18090900D02*
X10492780Y-18093430D01*
X25141100Y-4624600D02*
X25147800Y-4638800D01*
X12685240Y-13469900D02*
X12685000Y-13465000D01*
X7925250Y-18085960D02*
X7930100Y-18085240D01*
X15615700Y-12059200D02*
X15600000Y-12060000D01*
X20382800Y-5634200D02*
X20365900Y-5631600D01*
X12092780Y-13893400D02*
X12096720Y-13896300D01*
X21700400Y-20500360D02*
X21696700Y-20503650D01*
X18514000Y-12525200D02*
X18514800Y-12530100D01*
X6353110Y-24453554D02*
X6356926Y-24468786D01*
X24876300Y-4598500D02*
X24886900Y-4586900D01*
X7925250Y-19485960D02*
X7930100Y-19485240D01*
X12690900Y-18111430D02*
X12693430Y-18107220D01*
X24852200Y-4761200D02*
X24846900Y-4746400D01*
X23628400Y-22921720D02*
X23654600Y-22945440D01*
X11087150Y-18120490D02*
X11088810Y-18115870D01*
X11107220Y-14906600D02*
X11103280Y-14903700D01*
X19135000Y-19485000D02*
X20065000Y-19485000D01*
X22706200Y-9408800D02*
X22692100Y-9418600D01*
X8888570Y-14909100D02*
X8884130Y-14911200D01*
X17295500Y-23544500D02*
X17262200Y-23532600D01*
X20171600Y-22921720D02*
X20200000Y-22900670D01*
X12687150Y-19079510D02*
X12685960Y-19074750D01*
X14320490Y-15287150D02*
X14325250Y-15285960D01*
X25159200Y-4684300D02*
X25160000Y-4700000D01*
X15486860Y-11786900D02*
X15498500Y-11776300D01*
X19087200Y-13479500D02*
X19086000Y-13474800D01*
X24761200Y-12047800D02*
X24746400Y-12053100D01*
X14296350Y-13496700D02*
X14293430Y-13492800D01*
X19085000Y-14865000D02*
X19085000Y-13935000D01*
X15615700Y-21259230D02*
X15600000Y-21260000D01*
X11600000Y-22390000D02*
X11679390Y-22393900D01*
X9348340Y-22890030D02*
X9375120Y-22964870D01*
X8835130Y-23975120D02*
X8758020Y-23994440D01*
X15312850Y-19520490D02*
X15314040Y-19525250D01*
X20758300Y-23235290D02*
X20753100Y-23270230D01*
X23041700Y-23164710D02*
X23046900Y-23129770D01*
X9520490Y-20512850D02*
X9515870Y-20511190D01*
X6346890Y-21053550D02*
X6352179Y-21038770D01*
X13703650Y-20496720D02*
X13700360Y-20500360D01*
X12096720Y-19103650D02*
X12092780Y-19106570D01*
X15284130Y-19488810D02*
X15288570Y-19490900D01*
X9485000Y-19065000D02*
X9485000Y-18135000D01*
X15701500Y-12023700D02*
X15688900Y-12033000D01*
X12074750Y-18085960D02*
X12079510Y-18087150D01*
X8914040Y-13925200D02*
X8914760Y-13930100D01*
X6043074Y-24468786D02*
X6046890Y-24453554D01*
X10805560Y-23041980D02*
X10824880Y-22964870D01*
X15375120Y-23435130D02*
X15348340Y-23509970D01*
X10515000Y-12535000D02*
X10515000Y-13465000D01*
X14330100Y-12485200D02*
X14335000Y-12485000D01*
X6046890Y-24453554D02*
X6052179Y-24438771D01*
X15975000Y-5025000D02*
X15979900Y-5025200D01*
X21714800Y-13469900D02*
X21714000Y-13474800D01*
X24653600Y-21253110D02*
X24638800Y-21247820D01*
X7930100Y-13885200D02*
X7935000Y-13885000D01*
X19130100Y-19485240D02*
X19135000Y-19485000D01*
X6138771Y-4847800D02*
X6124577Y-4841100D01*
X20696300Y-20496720D02*
X20693400Y-20492780D01*
X6531214Y-12056900D02*
X6515683Y-12059200D01*
X6653110Y-21053550D02*
X6656930Y-21068790D01*
X20687200Y-17679510D02*
X20686000Y-17674750D01*
X13684130Y-12488800D02*
X13688570Y-12490900D01*
X23274800Y-13886000D02*
X23279500Y-13887200D01*
X21712800Y-20479510D02*
X21711200Y-20484130D01*
X21714000Y-12525200D02*
X21714800Y-12530100D01*
X23300400Y-14900400D02*
X23296700Y-14903700D01*
X15265000Y-13515000D02*
X14335000Y-13515000D01*
X12100360Y-20500360D02*
X12096720Y-20503650D01*
X11088810Y-18115870D02*
X11090900Y-18111430D01*
X12106570Y-19507220D02*
X12109100Y-19511430D01*
X6340770Y-11915700D02*
X6340000Y-11900000D01*
X14330100Y-15285240D02*
X14335000Y-15285000D01*
X17493400Y-16707220D02*
X17496300Y-16703280D01*
X11135000Y-14915000D02*
X11130100Y-14914800D01*
X19085200Y-16730100D02*
X19086000Y-16725250D01*
X18515000Y-12535000D02*
X18515000Y-13465000D01*
X9499640Y-19100360D02*
X9496350Y-19096720D01*
X15511110Y-20966960D02*
X15524580Y-20958890D01*
X17499600Y-13500400D02*
X17496300Y-13496700D01*
X18488600Y-14909100D02*
X18484100Y-14911200D01*
X18512800Y-19520490D02*
X18514000Y-19525250D01*
X23654600Y-23454560D02*
X23628400Y-23478280D01*
X17486000Y-13925200D02*
X17487200Y-13920500D01*
X21669900Y-13885200D02*
X21674800Y-13886000D01*
X10496720Y-18096350D02*
X10500360Y-18099640D01*
X7935000Y-13885000D02*
X8865000Y-13885000D01*
X6246446Y-24653110D02*
X6231214Y-24656926D01*
X12685960Y-12525200D02*
X12687150Y-12520500D01*
X18512800Y-13479500D02*
X18511200Y-13484100D01*
X12735000Y-13515000D02*
X12730100Y-13514800D01*
X7920490Y-18087150D02*
X7925250Y-18085960D01*
X22522300Y-9113000D02*
X22538100Y-9106200D01*
X18474800Y-14914000D02*
X18469900Y-14914800D01*
X8884130Y-19111190D02*
X8879510Y-19112850D01*
X22738500Y-9163500D02*
X22748300Y-9177600D01*
X14285960Y-18125250D02*
X14287150Y-18120490D01*
X10469900Y-18085240D02*
X10474750Y-18085960D01*
X6500000Y-11740000D02*
X6515683Y-11740800D01*
X12707220Y-19106570D02*
X12703280Y-19103650D01*
X25569600Y-4346900D02*
X25552800Y-4311400D01*
X6275423Y-24641107D02*
X6261229Y-24647821D01*
X18488600Y-17709100D02*
X18484100Y-17711190D01*
X17485200Y-13469900D02*
X17485000Y-13465000D01*
X12688810Y-13484100D02*
X12687150Y-13479500D01*
X13712850Y-12520500D02*
X13714040Y-12525200D01*
X6043074Y-24531214D02*
X6040770Y-24515683D01*
X13973860Y-23713860D02*
X13926510Y-23650010D01*
X14311430Y-12490900D02*
X14315870Y-12488800D01*
X17082500Y-23030300D02*
X17100700Y-22999990D01*
X11125250Y-19485960D02*
X11130100Y-19485240D01*
X19096300Y-20496720D02*
X19093400Y-20492780D01*
X15226140Y-23713860D02*
X15172760Y-23772760D01*
X20088600Y-17709100D02*
X20084100Y-17711190D01*
X18514000Y-13474800D02*
X18512800Y-13479500D01*
X15466960Y-21188890D02*
X15458890Y-21175420D01*
X12106570Y-14892800D02*
X12103650Y-14896700D01*
X9520490Y-15287150D02*
X9525250Y-15285960D01*
X18348900Y-9362400D02*
X18339100Y-9376500D01*
X20703300Y-16696350D02*
X20707200Y-16693430D01*
X20696300Y-16703280D02*
X20699600Y-16699640D01*
X21688600Y-17709100D02*
X21684100Y-17711190D01*
X22315900Y-19488810D02*
X22320500Y-19487150D01*
X15312850Y-12520500D02*
X15314040Y-12525200D01*
X25123700Y-4598500D02*
X25133000Y-4611100D01*
X6340000Y-21100000D02*
X6340770Y-21084320D01*
X12084130Y-14911200D02*
X12079510Y-14912800D01*
X6333035Y-4611100D02*
X6341107Y-4624600D01*
X14325250Y-18085960D02*
X14330100Y-18085240D01*
X24775400Y-20958890D02*
X24788900Y-20966960D01*
X12693430Y-15307220D02*
X12696350Y-15303280D01*
X11125250Y-14914000D02*
X11120490Y-14912800D01*
X20435300Y-23558270D02*
X20400000Y-23560000D01*
X25153100Y-24453554D02*
X25156900Y-24468786D01*
X12703280Y-18096350D02*
X12707220Y-18093430D01*
X7896350Y-13903300D02*
X7899640Y-13899600D01*
X8520610Y-24006100D02*
X8441980Y-23994440D01*
X8149990Y-23873490D02*
X8086140Y-23826140D01*
X6200000Y-4540000D02*
X6215683Y-4540800D01*
X21688600Y-19490900D02*
X21692800Y-19493430D01*
X19125200Y-19485960D02*
X19130100Y-19485240D01*
X17717500Y-23369700D02*
X17699300Y-23400010D01*
X9493430Y-12507200D02*
X9496350Y-12503300D01*
X17499600Y-17700360D02*
X17496300Y-17696720D01*
X8027240Y-22627240D02*
X8086140Y-22573860D01*
X17758300Y-23235290D02*
X17753100Y-23270230D01*
X11103280Y-18096350D02*
X11107220Y-18093430D01*
X21696700Y-16696350D02*
X21700400Y-16699640D01*
X6424577Y-12041100D02*
X6411109Y-12033000D01*
X23537800Y-22867400D02*
X23569700Y-22882510D01*
X18160600Y-9099600D02*
X18177500Y-9096500D01*
X8914040Y-20474750D02*
X8912850Y-20479510D01*
X10515000Y-15335000D02*
X10515000Y-16265000D01*
X6356926Y-24468786D02*
X6359230Y-24484317D01*
X12115000Y-20465000D02*
X12114760Y-20469900D01*
X20084100Y-19488810D02*
X20088600Y-19490900D01*
X11120490Y-13887200D02*
X11125250Y-13886000D01*
X6341107Y-4624600D02*
X6347821Y-4638800D01*
X9375120Y-22964870D02*
X9394440Y-23041980D01*
X12688810Y-19515870D02*
X12690900Y-19511430D01*
X19135000Y-13885000D02*
X20065000Y-13885000D01*
X20400000Y-5635000D02*
X20382800Y-5634200D01*
X15269900Y-12485200D02*
X15274750Y-12486000D01*
X18496700Y-12496300D02*
X18500400Y-12499600D01*
X14287150Y-18120490D02*
X14288810Y-18115870D01*
X9525250Y-12486000D02*
X9530100Y-12485200D01*
X7911430Y-19109100D02*
X7907220Y-19106570D01*
X24624600Y-21241110D02*
X24611100Y-21233040D01*
X10514760Y-19069900D02*
X10514040Y-19074750D01*
X24876300Y-24398497D02*
X24886900Y-24386863D01*
X6438771Y-20952180D02*
X6453554Y-20946890D01*
X15274750Y-20514040D02*
X15269900Y-20514760D01*
X24938800Y-24352179D02*
X24953600Y-24346890D01*
X24911100Y-24633035D02*
X24898500Y-24623682D01*
X17537800Y-22867400D02*
X17569700Y-22882510D01*
X23314000Y-20474750D02*
X23312800Y-20479510D01*
X20829200Y-5842300D02*
X21038600Y-5894700D01*
X15306570Y-16292780D02*
X15303650Y-16296720D01*
X21692800Y-12493400D02*
X21696700Y-12496300D01*
X11120490Y-14912800D02*
X11115870Y-14911200D01*
X22756700Y-9192600D02*
X22763500Y-9208400D01*
X22307200Y-20506570D02*
X22303300Y-20503650D01*
X25075400Y-24358893D02*
X25088900Y-24366965D01*
X9496350Y-20496720D02*
X9493430Y-20492780D01*
X21674800Y-13514000D02*
X21669900Y-13514800D01*
X6601500Y-20976320D02*
X6613140Y-20986860D01*
X21679500Y-14912800D02*
X21674800Y-14914000D01*
X18294700Y-7361400D02*
X18367500Y-7158100D01*
X13714040Y-18125250D02*
X13714760Y-18130100D01*
X12720490Y-13512800D02*
X12715870Y-13511200D01*
X5607686Y-24778036D02*
X5617224Y-24816114D01*
X22335000Y-14915000D02*
X22330100Y-14914800D01*
X8520610Y-22393900D02*
X8600000Y-22390000D01*
X22426200Y-9247200D02*
X22429300Y-9230300D01*
X15553550Y-20946890D02*
X15568790Y-20943070D01*
X10474750Y-19114040D02*
X10469900Y-19114760D01*
X6040000Y-24500000D02*
X6040770Y-24484317D01*
X15646400Y-11746900D02*
X15661200Y-11752200D01*
X22639400Y-9099600D02*
X22656000Y-9104300D01*
X17654600Y-22945440D02*
X17678300Y-22971620D01*
X12688810Y-12515900D02*
X12690900Y-12511400D01*
X15314760Y-12530100D02*
X15315000Y-12535000D01*
X23306600Y-19507220D02*
X23309100Y-19511430D01*
X23292800Y-13893400D02*
X23296700Y-13896300D01*
X18210600Y-8215600D02*
X18200000Y-8000000D01*
X6200000Y-4860000D02*
X6184317Y-4859200D01*
X9515870Y-15288810D02*
X9520490Y-15287150D01*
X24552200Y-11838800D02*
X24558900Y-11824600D01*
X7885240Y-19530100D02*
X7885960Y-19525250D01*
X9496350Y-15303280D02*
X9499640Y-15299640D01*
X20693400Y-16707220D02*
X20696300Y-16703280D01*
X12375120Y-23435130D02*
X12348340Y-23509970D01*
X19103300Y-19496350D02*
X19107200Y-19493430D01*
X21700400Y-13500400D02*
X21696700Y-13503700D01*
X10496720Y-19496350D02*
X10500360Y-19499640D01*
X14299640Y-19100360D02*
X14296350Y-19096720D01*
X12096720Y-14903700D02*
X12092780Y-14906600D01*
X14325250Y-19114040D02*
X14320490Y-19112850D01*
X6124577Y-4558900D02*
X6138771Y-4552200D01*
X23100700Y-22999990D02*
X23121700Y-22971620D01*
X23279500Y-14912800D02*
X23274800Y-14914000D01*
X12699640Y-12499600D02*
X12703280Y-12496300D01*
X9511430Y-19490900D02*
X9515870Y-19488810D01*
X21674800Y-16685960D02*
X21679500Y-16687150D01*
X15314040Y-19525250D02*
X15314760Y-19530100D01*
X6040770Y-4684300D02*
X6043074Y-4668800D01*
X6340770Y-11884300D02*
X6343074Y-11868800D01*
X17487200Y-13920500D02*
X17488800Y-13915900D01*
X18228800Y-9097300D02*
X18245600Y-9101000D01*
X8914040Y-14874800D02*
X8912850Y-14879500D01*
X8914760Y-19530100D02*
X8915000Y-19535000D01*
X14285000Y-19065000D02*
X14285000Y-18135000D01*
X15303650Y-18103280D02*
X15306570Y-18107220D01*
X8892780Y-19493430D02*
X8896720Y-19496350D01*
X8915000Y-19535000D02*
X8915000Y-20465000D01*
X20685000Y-16735000D02*
X20685200Y-16730100D01*
X17504500Y-23544500D02*
X17470200Y-23553080D01*
X10500360Y-19499640D02*
X10503650Y-19503280D01*
X21711200Y-14884100D02*
X21709100Y-14888600D01*
X20685000Y-17665000D02*
X20685000Y-16735000D01*
X12109100Y-20488570D02*
X12106570Y-20492780D01*
X10488570Y-15290900D02*
X10492780Y-15293430D01*
X9487150Y-12520500D02*
X9488810Y-12515900D01*
X6484317Y-20940770D02*
X6500000Y-20940000D01*
X20114800Y-13469900D02*
X20114000Y-13474800D01*
X19087200Y-14879500D02*
X19086000Y-14874800D01*
X12685240Y-20469900D02*
X12685000Y-20465000D01*
X19120500Y-14912800D02*
X19115900Y-14911200D01*
X23121700Y-22971620D02*
X23145400Y-22945440D01*
X24984300Y-24340770D02*
X25000000Y-24340000D01*
X25147800Y-4638800D02*
X25153100Y-4653600D01*
X5690796Y-4246200D02*
X5667412Y-4277800D01*
X20450800Y-5627500D02*
X20434100Y-5631600D01*
X23300400Y-19499640D02*
X23303700Y-19503280D01*
X22330100Y-19485240D02*
X22335000Y-19485000D01*
X16024800Y-5070100D02*
X16025000Y-5075000D01*
X17699300Y-22999990D02*
X17717500Y-23030300D01*
X8915000Y-13935000D02*
X8915000Y-14865000D01*
X18699400Y-9395700D02*
X18570800Y-9222300D01*
X15292780Y-16306570D02*
X15288570Y-16309100D01*
X9487150Y-13479500D02*
X9485960Y-13474800D01*
X9394440Y-23041980D02*
X9406100Y-23120610D01*
X24859200Y-21084320D02*
X24860000Y-21100000D01*
X9172760Y-22627240D02*
X9226140Y-22686140D01*
X14285960Y-16274750D02*
X14285240Y-16269900D01*
X24801500Y-12023700D02*
X24788900Y-12033000D01*
X17435300Y-22841730D02*
X17470200Y-22846920D01*
X24886900Y-24613137D02*
X24876300Y-24601503D01*
X8027240Y-23772760D02*
X7973860Y-23713860D01*
X13692780Y-13506600D02*
X13688570Y-13509100D01*
X14315870Y-16311190D02*
X14311430Y-16309100D01*
X16024000Y-5065200D02*
X16024800Y-5070100D01*
X18570800Y-9222300D02*
X18459800Y-9037100D01*
X24684300Y-21259230D02*
X24668800Y-21256930D01*
X6411109Y-20966960D02*
X6424577Y-20958890D01*
X10514760Y-15330100D02*
X10515000Y-15335000D01*
X8914760Y-18130100D02*
X8915000Y-18135000D01*
X22430700Y-9315300D02*
X22427000Y-9298500D01*
X15314040Y-20474750D02*
X15312850Y-20479510D01*
X11441980Y-23994440D02*
X11364870Y-23975120D01*
X24761200Y-21247820D02*
X24746400Y-21253110D01*
X22325200Y-13886000D02*
X22330100Y-13885200D01*
X9394440Y-23358020D02*
X9375120Y-23435130D01*
X12699640Y-13500400D02*
X12696350Y-13496700D01*
X6066965Y-4611100D02*
X6076318Y-4598500D01*
X6052179Y-4761200D02*
X6046890Y-4746400D01*
X6633040Y-11988900D02*
X6623680Y-12001500D01*
X20111200Y-14884100D02*
X20109100Y-14888600D01*
X18370700Y-9230300D02*
X18373800Y-9247200D01*
X11835130Y-22424880D02*
X11909970Y-22451660D01*
X15314040Y-15325250D02*
X15314760Y-15330100D01*
X13665000Y-19115000D02*
X12735000Y-19115000D01*
X25200000Y-25100000D02*
X25239200Y-25098074D01*
X5717157Y-4217200D02*
X5690796Y-4246200D01*
X9511430Y-12490900D02*
X9515870Y-12488800D01*
X10484130Y-19111190D02*
X10479510Y-19112850D01*
X17487200Y-16720490D02*
X17488800Y-16715870D01*
X13696720Y-15296350D02*
X13700360Y-15299640D01*
X15269900Y-15285240D02*
X15274750Y-15285960D01*
X18474800Y-12486000D02*
X18479500Y-12487200D01*
X12096720Y-13896300D02*
X12100360Y-13899600D01*
X20435300Y-22841730D02*
X20470200Y-22846920D01*
X18488600Y-13509100D02*
X18484100Y-13511200D01*
X17490900Y-16711430D02*
X17493400Y-16707220D01*
X18484100Y-13888800D02*
X18488600Y-13890900D01*
X10973860Y-22686140D02*
X11027240Y-22627240D01*
X18514800Y-12530100D02*
X18515000Y-12535000D01*
X25031200Y-24343074D02*
X25046400Y-24346890D01*
X24731200Y-11743100D02*
X24746400Y-11746900D01*
X20069900Y-17714760D02*
X20065000Y-17715000D01*
X25061200Y-4847800D02*
X25046400Y-4853100D01*
X11115870Y-20511190D02*
X11111430Y-20509100D01*
X13709100Y-18111430D02*
X13711190Y-18115870D01*
X18479500Y-12487200D02*
X18484100Y-12488800D01*
X7183430Y-5047200D02*
X7186350Y-5043300D01*
X14293430Y-13492800D02*
X14290900Y-13488600D01*
X20069900Y-19485240D02*
X20074800Y-19485960D01*
X20760000Y-23200000D02*
X20758300Y-23235290D01*
X9511430Y-15290900D02*
X9515870Y-15288810D01*
X20725200Y-13886000D02*
X20730100Y-13885200D01*
X14218170Y-22485640D02*
X14290030Y-22451660D01*
X18026800Y-9292800D02*
X18025400Y-9275700D01*
X21679500Y-16687150D02*
X21684100Y-16688810D01*
X18061500Y-9163500D02*
X18072600Y-9150400D01*
X10790000Y-23200000D02*
X10793900Y-23120610D01*
X15446890Y-21146450D02*
X15443070Y-21131210D01*
X10509100Y-16288570D02*
X10506570Y-16292780D01*
X20145400Y-22945440D02*
X20171600Y-22921720D01*
X15661200Y-20952180D02*
X15675400Y-20958890D01*
X20114800Y-17669900D02*
X20114000Y-17674750D01*
X20103700Y-14896700D02*
X20100400Y-14900400D01*
X22286000Y-20474750D02*
X22285200Y-20469900D01*
X12696350Y-18103280D02*
X12699640Y-18099640D01*
X9499640Y-19499640D02*
X9503280Y-19496350D01*
X15741100Y-21175420D02*
X15733000Y-21188890D01*
X19125200Y-17714040D02*
X19120500Y-17712850D01*
X24801500Y-20976320D02*
X24813100Y-20986860D01*
X21674800Y-14914000D02*
X21669900Y-14914800D01*
X18027600Y-9241500D02*
X18031300Y-9224700D01*
X19088800Y-17684130D02*
X19087200Y-17679510D01*
X11909970Y-22451660D02*
X11981830Y-22485640D01*
X11086140Y-23826140D02*
X11027240Y-23772760D01*
X21700400Y-12499600D02*
X21703700Y-12503300D01*
X6153554Y-4853100D02*
X6138771Y-4847800D01*
X12703280Y-19496350D02*
X12707220Y-19493430D01*
X12092780Y-20506570D02*
X12088570Y-20509100D01*
X6301503Y-24623682D02*
X6288891Y-24633035D01*
X12715870Y-16311190D02*
X12711430Y-16309100D01*
X25015700Y-24340770D02*
X25031200Y-24343074D01*
X24843100Y-24468786D02*
X24846900Y-24453554D01*
X7885240Y-19069900D02*
X7885000Y-19065000D01*
X20065000Y-20515000D02*
X19135000Y-20515000D01*
X21679500Y-19487150D02*
X21684100Y-19488810D01*
X20100400Y-13899600D02*
X20103700Y-13903300D01*
X21674800Y-12486000D02*
X21679500Y-12487200D01*
X13712850Y-19079510D02*
X13711190Y-19084130D01*
X23284100Y-14911200D02*
X23279500Y-14912800D01*
X11218170Y-22485640D02*
X11290030Y-22451660D01*
X24924600Y-24358893D02*
X24938800Y-24352179D01*
X10492780Y-19106570D02*
X10488570Y-19109100D01*
X14287150Y-13479500D02*
X14285960Y-13474800D01*
X17569700Y-23517490D02*
X17537800Y-23532600D01*
X10514040Y-12525200D02*
X10514760Y-12530100D01*
X9493430Y-13492800D02*
X9490900Y-13488600D01*
X10484130Y-20511190D02*
X10479510Y-20512850D01*
X18479500Y-19487150D02*
X18484100Y-19488810D01*
X22290900Y-14888600D02*
X22288800Y-14884100D01*
X8888570Y-19109100D02*
X8884130Y-19111190D01*
X9485000Y-16265000D02*
X9485000Y-15335000D01*
X22285000Y-14865000D02*
X22285000Y-13935000D01*
X13926510Y-22749990D02*
X13973860Y-22686140D01*
X18122900Y-9427000D02*
X18107900Y-9418600D01*
X7925250Y-20514040D02*
X7920490Y-20512850D01*
X13696720Y-19103650D02*
X13692780Y-19106570D01*
X20732600Y-23337770D02*
X20717500Y-23369700D01*
X15265000Y-18085000D02*
X15269900Y-18085240D01*
X11130100Y-13885200D02*
X11135000Y-13885000D01*
X17503300Y-13896300D02*
X17507200Y-13893400D01*
X8912850Y-20479510D02*
X8911190Y-20484130D01*
X24576300Y-20998500D02*
X24586900Y-20986860D01*
X24841100Y-21024580D02*
X24847800Y-21038770D01*
X25088900Y-4833000D02*
X25075400Y-4841100D01*
X13665000Y-16315000D02*
X12735000Y-16315000D01*
X20103700Y-12503300D02*
X20106600Y-12507200D01*
X20707200Y-13893400D02*
X20711400Y-13890900D01*
X18484100Y-17711190D02*
X18479500Y-17712850D01*
X23537800Y-23532600D02*
X23504500Y-23544500D01*
X11085000Y-18135000D02*
X11085240Y-18130100D01*
X13926510Y-23650010D02*
X13885640Y-23581830D01*
X14330100Y-16314760D02*
X14325250Y-16314040D01*
X20685200Y-17669900D02*
X20685000Y-17665000D01*
X19111400Y-19490900D02*
X19115900Y-19488810D01*
X9507220Y-12493400D02*
X9511430Y-12490900D01*
X15553550Y-11746900D02*
X15568790Y-11743100D01*
X23121700Y-23428380D02*
X23100700Y-23400010D01*
X23171600Y-23478280D02*
X23145400Y-23454560D01*
X9525250Y-15285960D02*
X9530100Y-15285240D01*
X16024800Y-10929900D02*
X16024000Y-10934800D01*
X7790000Y-23200000D02*
X7793900Y-23120610D01*
X21714800Y-16730100D02*
X21715000Y-16735000D01*
X6086863Y-24613137D02*
X6076318Y-24601503D01*
X7215250Y-10974000D02*
X7210490Y-10972800D01*
X17493400Y-13492800D02*
X17490900Y-13488600D01*
X25046400Y-24346890D02*
X25061200Y-24352179D01*
X23269900Y-14914800D02*
X23265000Y-14915000D01*
X12688810Y-18115870D02*
X12690900Y-18111430D01*
X17520500Y-20512850D02*
X17515900Y-20511190D01*
X21700400Y-19499640D02*
X21703700Y-19503280D01*
X17486000Y-19525250D02*
X17487200Y-19520490D01*
X8290030Y-23948340D02*
X8218170Y-23914360D01*
X14303280Y-19496350D02*
X14307220Y-19493430D01*
X23732600Y-23337770D02*
X23717500Y-23369700D01*
X7893430Y-18107220D02*
X7896350Y-18103280D01*
X17511400Y-17709100D02*
X17507200Y-17706570D01*
X20707200Y-14906600D02*
X20703300Y-14903700D01*
X22435900Y-9331600D02*
X22430700Y-9315300D01*
X6052179Y-24438771D02*
X6058893Y-24424577D01*
X11130100Y-14914800D02*
X11125250Y-14914000D01*
X17485000Y-16735000D02*
X17485200Y-16730100D01*
X20703300Y-12496300D02*
X20707200Y-12493400D01*
X24567000Y-11811100D02*
X24576300Y-11798500D01*
X8906570Y-18107220D02*
X8909100Y-18111430D01*
X7907220Y-18093430D02*
X7911430Y-18090900D01*
X20115000Y-17665000D02*
X20114800Y-17669900D01*
X25509200Y-24953757D02*
X25532600Y-24922228D01*
X7885960Y-14874800D02*
X7885240Y-14869900D01*
X11111430Y-20509100D02*
X11107220Y-20506570D01*
X8874750Y-19485960D02*
X8879510Y-19487150D01*
X20711400Y-14909100D02*
X20707200Y-14906600D01*
X22628200Y-9442700D02*
X22611200Y-9444600D01*
X6515683Y-11740800D02*
X6531214Y-11743100D01*
X25113100Y-24613137D02*
X25101500Y-24623682D01*
X17678300Y-22971620D02*
X17699300Y-22999990D01*
X20730100Y-17714760D02*
X20725200Y-17714040D01*
X8911190Y-19515870D02*
X8912850Y-19520490D01*
X20184400Y-5810600D02*
X20400000Y-5800000D01*
X17488800Y-20484130D02*
X17487200Y-20479510D01*
X20046900Y-23129770D02*
X20055500Y-23095500D01*
X24586900Y-11786900D02*
X24598500Y-11776300D01*
X15306570Y-19507220D02*
X15309100Y-19511430D01*
X14520610Y-24006100D02*
X14441980Y-23994440D01*
X12690900Y-19511430D02*
X12693430Y-19507220D01*
X19085000Y-12535000D02*
X19085200Y-12530100D01*
X18171800Y-9442700D02*
X18155000Y-9439000D01*
X6111109Y-24366965D02*
X6124577Y-24358893D01*
X8892780Y-18093430D02*
X8896720Y-18096350D01*
X20569700Y-23517490D02*
X20537800Y-23532600D01*
X19120500Y-20512850D02*
X19115900Y-20511190D01*
X20100400Y-17700360D02*
X20096700Y-17703650D01*
X20100400Y-19499640D02*
X20103700Y-19503280D01*
X22320500Y-20512850D02*
X22315900Y-20511190D01*
X13669900Y-16314760D02*
X13665000Y-16315000D01*
X9488810Y-19515870D02*
X9490900Y-19511430D01*
X19111400Y-17709100D02*
X19107200Y-17706570D01*
X20715900Y-19488810D02*
X20720500Y-19487150D01*
X19086000Y-16725250D02*
X19087200Y-16720490D01*
X6231214Y-4856900D02*
X6215683Y-4859200D01*
X13714040Y-15325250D02*
X13714760Y-15330100D01*
X12096720Y-18096350D02*
X12100360Y-18099640D01*
X15756900Y-11868800D02*
X15759200Y-11884300D01*
X7935000Y-18085000D02*
X8865000Y-18085000D01*
X24938800Y-4552200D02*
X24953600Y-4546900D01*
X22622500Y-9096500D02*
X22639400Y-9099600D01*
X12092780Y-18093430D02*
X12096720Y-18096350D01*
X20511000Y-5324700D02*
X20523700Y-5336300D01*
X14315870Y-12488800D02*
X14320490Y-12487200D01*
X20074800Y-13886000D02*
X20079500Y-13887200D01*
X20065000Y-13885000D02*
X20069900Y-13885200D01*
X12226140Y-23713860D02*
X12172760Y-23772760D01*
X12707220Y-20506570D02*
X12703280Y-20503650D01*
X20687200Y-16720490D02*
X20688800Y-16715870D01*
X6366965Y-21011110D02*
X6376318Y-20998500D01*
X23303700Y-14896700D02*
X23300400Y-14900400D01*
X12115000Y-13935000D02*
X12115000Y-14865000D01*
X8869900Y-14914800D02*
X8865000Y-14915000D01*
X25141100Y-24424577D02*
X25147800Y-24438771D01*
X17262200Y-23532600D02*
X17230300Y-23517490D01*
X17485000Y-20465000D02*
X17485000Y-19535000D01*
X15314040Y-12525200D02*
X15314760Y-12530100D01*
X20545500Y-5557200D02*
X20535300Y-5571000D01*
X12715870Y-19488810D02*
X12720490Y-19487150D01*
X11679390Y-24006100D02*
X11600000Y-24010000D01*
X7899640Y-20500360D02*
X7896350Y-20496720D01*
X20685200Y-20469900D02*
X20685000Y-20465000D01*
X25113100Y-24386863D02*
X25123700Y-24398497D01*
X14335000Y-15285000D02*
X15265000Y-15285000D01*
X6656930Y-11931200D02*
X6653110Y-11946400D01*
X13669900Y-19485240D02*
X13674750Y-19485960D01*
X14027240Y-22627240D02*
X14086140Y-22573860D01*
X15600000Y-20940000D02*
X15615700Y-20940770D01*
X21700400Y-16699640D02*
X21703700Y-16703280D01*
X18515000Y-19535000D02*
X18515000Y-20465000D01*
X12735000Y-19485000D02*
X13665000Y-19485000D01*
X17364700Y-22841730D02*
X17400000Y-22840000D01*
X12711430Y-15290900D02*
X12715870Y-15288810D01*
X17515900Y-19488810D02*
X17520500Y-19487150D01*
X19086000Y-13474800D02*
X19085200Y-13469900D01*
X12088570Y-13890900D02*
X12092780Y-13893400D01*
X14335000Y-19485000D02*
X15265000Y-19485000D01*
X7911430Y-14909100D02*
X7907220Y-14906600D01*
X7930100Y-18085240D02*
X7935000Y-18085000D01*
X22290900Y-19511430D02*
X22293400Y-19507220D01*
X12106570Y-19092780D02*
X12103650Y-19096720D01*
X17520500Y-19487150D02*
X17525200Y-19485960D01*
X6052179Y-4638800D02*
X6058893Y-4624600D01*
X18515000Y-14865000D02*
X18514800Y-14869900D01*
X8874750Y-18085960D02*
X8879510Y-18087150D01*
X6398497Y-12023700D02*
X6386863Y-12013100D01*
X14325250Y-15285960D02*
X14330100Y-15285240D01*
X6058893Y-4624600D02*
X6066965Y-4611100D01*
X12715870Y-20511190D02*
X12711430Y-20509100D01*
X21684100Y-13888800D02*
X21688600Y-13890900D01*
X22287200Y-13920500D02*
X22288800Y-13915900D01*
X19088800Y-13915900D02*
X19090900Y-13911400D01*
X8879510Y-13887200D02*
X8884130Y-13888800D01*
X25239200Y-25098074D02*
X25278000Y-25092314D01*
X21711200Y-19515870D02*
X21712800Y-19520490D01*
X23400000Y-23560000D02*
X23364700Y-23558270D01*
X18479500Y-14912800D02*
X18474800Y-14914000D01*
X8903650Y-14896700D02*
X8900360Y-14900400D01*
X19125200Y-13514000D02*
X19120500Y-13512800D01*
X7930100Y-19485240D02*
X7935000Y-19485000D01*
X13703650Y-19503280D02*
X13706570Y-19507220D01*
X22576900Y-9443500D02*
X22560000Y-9440400D01*
X8884130Y-20511190D02*
X8879510Y-20512850D01*
X19177700Y-6170800D02*
X19362900Y-6059800D01*
X10885640Y-22818170D02*
X10926510Y-22749990D01*
X8874750Y-13886000D02*
X8879510Y-13887200D01*
X25000000Y-24340000D02*
X25015700Y-24340770D01*
X12688810Y-15315870D02*
X12690900Y-15311430D01*
X24968800Y-24343074D02*
X24984300Y-24340770D01*
X24788900Y-21233040D02*
X24775400Y-21241110D01*
X20753100Y-23129770D02*
X20758300Y-23164710D01*
X8915000Y-19065000D02*
X8914760Y-19069900D01*
X10479510Y-20512850D02*
X10474750Y-20514040D01*
X6215683Y-24340770D02*
X6231214Y-24343074D01*
X21696700Y-14903700D02*
X21692800Y-14906600D01*
X25133000Y-24588891D02*
X25123700Y-24601503D01*
X9485240Y-19069900D02*
X9485000Y-19065000D01*
X8915000Y-14865000D02*
X8914760Y-14869900D01*
X5617224Y-4383900D02*
X5607686Y-4422000D01*
X14981830Y-23914360D02*
X14909970Y-23948340D01*
X22505300Y-8638600D02*
X22432500Y-8841900D01*
X17507200Y-20506570D02*
X17503300Y-20503650D01*
X6288891Y-4833000D02*
X6275423Y-4841100D01*
X23284100Y-13888800D02*
X23288600Y-13890900D01*
X21696700Y-20503650D02*
X21692800Y-20506570D01*
X20109100Y-12511400D02*
X20111200Y-12515900D01*
X15288570Y-15290900D02*
X15292780Y-15293430D01*
X18315700Y-9401600D02*
X18302200Y-9412200D01*
X24953600Y-4546900D02*
X24968800Y-4543100D01*
X24638800Y-21247820D02*
X24624600Y-21241110D01*
X20096700Y-13503700D02*
X20092800Y-13506600D01*
X24668800Y-21256930D02*
X24653600Y-21253110D01*
X21437100Y-9940200D02*
X21241900Y-10032500D01*
X14325250Y-13514000D02*
X14320490Y-13512800D01*
X23296700Y-14903700D02*
X23292800Y-14906600D01*
X24746400Y-12053100D02*
X24731200Y-12056900D01*
X6438771Y-21247820D02*
X6424577Y-21241110D01*
X23753100Y-23129770D02*
X23758300Y-23164710D01*
X25061200Y-24352179D02*
X25075400Y-24358893D01*
X20349200Y-5627500D02*
X20333000Y-5621700D01*
X13715000Y-15335000D02*
X13715000Y-16265000D01*
X25141100Y-24575423D02*
X25133000Y-24588891D01*
X23300400Y-20500360D02*
X23296700Y-20503650D01*
X6246446Y-24346890D02*
X6261229Y-24352179D01*
X17490900Y-20488570D02*
X17488800Y-20484130D01*
X18509100Y-13488600D02*
X18506600Y-13492800D01*
X20730100Y-19485240D02*
X20735000Y-19485000D01*
X20184400Y-10189400D02*
X19970800Y-10157700D01*
X15306570Y-18107220D02*
X15309100Y-18111430D01*
X14285000Y-16265000D02*
X14285000Y-15335000D01*
X6366965Y-11988900D02*
X6358893Y-11975400D01*
X9525250Y-13514000D02*
X9520490Y-13512800D01*
X20753100Y-23270230D02*
X20744500Y-23304500D01*
X9410000Y-23200000D02*
X9406100Y-23279390D01*
X22340200Y-6962900D02*
X22432500Y-7158100D01*
X10492780Y-19493430D02*
X10496720Y-19496350D01*
X6261229Y-24352179D02*
X6275423Y-24358893D01*
X7175240Y-10929900D02*
X7175000Y-10925000D01*
X21712800Y-13479500D02*
X21711200Y-13484100D01*
X15300360Y-13500400D02*
X15296720Y-13503700D01*
X15756900Y-21131210D02*
X15753100Y-21146450D01*
X15274750Y-18085960D02*
X15279510Y-18087150D01*
X19130100Y-16685240D02*
X19135000Y-16685000D01*
X20685000Y-19535000D02*
X20685200Y-19530100D01*
X7205870Y-10971200D02*
X7201430Y-10969100D01*
X12348340Y-22890030D02*
X12375120Y-22964870D01*
X20079500Y-19487150D02*
X20084100Y-19488810D01*
X6333035Y-24588891D02*
X6323682Y-24601503D01*
X25133000Y-4788900D02*
X25123700Y-4801500D01*
X24938800Y-4847800D02*
X24924600Y-4841100D01*
X20100400Y-14900400D02*
X20096700Y-14903700D01*
X13706570Y-18107220D02*
X13709100Y-18111430D01*
X7890900Y-13911400D02*
X7893430Y-13907200D01*
X12084130Y-19111190D02*
X12079510Y-19112850D01*
X20744500Y-23304500D02*
X20732600Y-23337770D01*
X18272500Y-9429400D02*
X18256500Y-9435700D01*
X13711190Y-18115870D02*
X13712850Y-18120490D01*
X22325200Y-14914000D02*
X22320500Y-14912800D01*
X13706570Y-19507220D02*
X13709100Y-19511430D01*
X7973860Y-22686140D02*
X8027240Y-22627240D01*
X17486000Y-20474750D02*
X17485200Y-20469900D01*
X12730100Y-16314760D02*
X12725250Y-16314040D01*
X21706600Y-13907200D02*
X21709100Y-13911400D01*
X6040770Y-24515683D02*
X6040000Y-24500000D01*
X14290900Y-15311430D02*
X14293430Y-15307220D01*
X7186350Y-10956700D02*
X7183430Y-10952800D01*
X14287150Y-20479510D02*
X14285960Y-20474750D01*
X24546900Y-21146450D02*
X24543100Y-21131210D01*
X22311400Y-19490900D02*
X22315900Y-19488810D01*
X6184317Y-24659230D02*
X6168786Y-24656926D01*
X15315000Y-13465000D02*
X15314760Y-13469900D01*
X21711200Y-13915900D02*
X21712800Y-13920500D01*
X10514040Y-19525250D02*
X10514760Y-19530100D01*
X13679510Y-13512800D02*
X13674750Y-13514000D01*
X16019100Y-10948600D02*
X16016600Y-10952800D01*
X18509100Y-17688570D02*
X18506600Y-17692780D01*
X10926510Y-23650010D02*
X10885640Y-23581830D01*
X24540000Y-11900000D02*
X24540800Y-11884300D01*
X17490900Y-14888600D02*
X17488800Y-14884100D01*
X12720490Y-15287150D02*
X12725250Y-15285960D01*
X13674750Y-16314040D02*
X13669900Y-16314760D01*
X8911190Y-13915900D02*
X8912850Y-13920500D01*
X24668800Y-20943070D02*
X24684300Y-20940770D01*
X20041700Y-23164710D02*
X20046900Y-23129770D01*
X20112800Y-13920500D02*
X20114000Y-13925200D01*
X17490900Y-17688570D02*
X17488800Y-17684130D01*
X22759100Y-9342200D02*
X22751300Y-9357500D01*
X9485240Y-20469900D02*
X9485000Y-20465000D01*
X20690900Y-13911400D02*
X20693400Y-13907200D01*
X21706600Y-19507220D02*
X21709100Y-19511430D01*
X20699600Y-14900400D02*
X20696300Y-14896700D01*
X14290030Y-22451660D02*
X14364870Y-22424880D01*
X14285240Y-19069900D02*
X14285000Y-19065000D01*
X23600000Y-23499330D02*
X23569700Y-23517490D01*
X12114760Y-20469900D02*
X12114040Y-20474750D01*
X18509100Y-12511400D02*
X18511200Y-12515900D01*
X15458890Y-21024580D02*
X15466960Y-21011110D01*
X7177150Y-5060500D02*
X7178810Y-5055900D01*
X20400000Y-22840000D02*
X20435300Y-22841730D01*
X11135000Y-13885000D02*
X12065000Y-13885000D01*
X20699600Y-20500360D02*
X20696300Y-20496720D01*
X10512850Y-20479510D02*
X10511190Y-20484130D01*
X15311190Y-12515900D02*
X15312850Y-12520500D01*
X15600000Y-11740000D02*
X15615700Y-11740800D01*
X23306600Y-13907200D02*
X23309100Y-13911400D01*
X20092800Y-20506570D02*
X20088600Y-20509100D01*
X14307220Y-19493430D02*
X14311430Y-19490900D01*
X24700000Y-11740000D02*
X24715700Y-11740800D01*
X21709100Y-13911400D02*
X21711200Y-13915900D01*
X25552800Y-24888559D02*
X25569600Y-24853073D01*
X15311190Y-18115870D02*
X15312850Y-18120490D01*
X22543500Y-9435700D02*
X22527500Y-9429400D01*
X20434100Y-5631600D02*
X20417200Y-5634200D01*
X15113860Y-23826140D02*
X15050010Y-23873490D01*
X22315900Y-20511190D02*
X22311400Y-20509100D01*
X11085000Y-13935000D02*
X11085240Y-13930100D01*
X5960793Y-25098074D02*
X6000000Y-25100000D01*
X20109100Y-20488570D02*
X20106600Y-20492780D01*
X6356926Y-24531214D02*
X6353110Y-24546446D01*
X8906570Y-20492780D02*
X8903650Y-20496720D01*
X18515000Y-16735000D02*
X18515000Y-17665000D01*
X17535000Y-19485000D02*
X18465000Y-19485000D01*
X15279510Y-12487200D02*
X15284130Y-12488800D01*
X9485960Y-18125250D02*
X9487150Y-18120490D01*
X15306570Y-19092780D02*
X15303650Y-19096720D01*
X12725250Y-18085960D02*
X12730100Y-18085240D01*
X6231214Y-24343074D02*
X6246446Y-24346890D01*
X9511430Y-13509100D02*
X9507220Y-13506600D01*
X20725200Y-19485960D02*
X20730100Y-19485240D01*
X21703700Y-16703280D02*
X21706600Y-16707220D01*
X12687150Y-13479500D02*
X12685960Y-13474800D01*
X15646400Y-20946890D02*
X15661200Y-20952180D01*
X19085200Y-13930100D02*
X19086000Y-13925200D01*
X10515000Y-13465000D02*
X10514760Y-13469900D01*
X19096300Y-12503300D02*
X19099600Y-12499600D01*
X10509100Y-19088570D02*
X10506570Y-19092780D01*
X17488800Y-19515870D02*
X17490900Y-19511430D01*
X20106600Y-16707220D02*
X20109100Y-16711430D01*
X13711190Y-16284130D02*
X13709100Y-16288570D01*
X12703280Y-16303650D02*
X12699640Y-16300360D01*
X24984300Y-24659230D02*
X24968800Y-24656926D01*
X8909100Y-14888600D02*
X8906570Y-14892800D01*
X19125200Y-12486000D02*
X19130100Y-12485200D01*
X8865000Y-18085000D02*
X8869900Y-18085240D01*
X6066965Y-4788900D02*
X6058893Y-4775400D01*
X6561229Y-20952180D02*
X6575423Y-20958890D01*
X20074800Y-20514040D02*
X20069900Y-20514760D01*
X12069900Y-18085240D02*
X12074750Y-18085960D01*
X8086140Y-22573860D02*
X8149990Y-22526510D01*
X7915870Y-14911200D02*
X7911430Y-14909100D01*
X21706600Y-17692780D02*
X21703700Y-17696720D01*
X21665000Y-13515000D02*
X20735000Y-13515000D01*
X25482800Y-4217200D02*
X25453800Y-4190800D01*
X22285200Y-14869900D02*
X22285000Y-14865000D01*
X9496350Y-18103280D02*
X9499640Y-18099640D01*
X18484100Y-13511200D02*
X18479500Y-13512800D01*
X21688600Y-14909100D02*
X21684100Y-14911200D01*
X15274750Y-19485960D02*
X15279510Y-19487150D01*
X6066965Y-24588891D02*
X6058893Y-24575423D01*
X17511400Y-13509100D02*
X17507200Y-13506600D01*
X12069900Y-19114760D02*
X12065000Y-19115000D01*
X18328000Y-9389600D02*
X18315700Y-9401600D01*
X21674800Y-17714040D02*
X21669900Y-17714760D01*
X25422200Y-25032588D02*
X25453800Y-25009204D01*
X24624600Y-20958890D02*
X24638800Y-20952180D01*
X12730100Y-13514800D02*
X12725250Y-13514000D01*
X7920490Y-13887200D02*
X7925250Y-13886000D01*
X10500360Y-16300360D02*
X10496720Y-16303650D01*
X18177500Y-9096500D02*
X18194600Y-9095100D01*
X12111190Y-13915900D02*
X12112850Y-13920500D01*
X20046900Y-23270230D02*
X20041700Y-23235290D01*
X9496350Y-16296720D02*
X9493430Y-16292780D01*
X13706570Y-12507200D02*
X13709100Y-12511400D01*
X18031300Y-9224700D02*
X18036500Y-9208400D01*
X24840800Y-4684300D02*
X24843100Y-4668800D01*
X7926510Y-23650010D02*
X7885640Y-23581830D01*
X12735000Y-12485000D02*
X13665000Y-12485000D01*
X15733000Y-11988900D02*
X15723700Y-12001500D01*
X23435300Y-22841730D02*
X23470200Y-22846920D01*
X6386863Y-11786900D02*
X6398497Y-11776300D01*
X9530100Y-13514800D02*
X9525250Y-13514000D01*
X25046400Y-24653110D02*
X25031200Y-24656926D01*
X7920490Y-14912800D02*
X7915870Y-14911200D01*
X6346890Y-21146450D02*
X6343074Y-21131210D01*
X21692800Y-17706570D02*
X21688600Y-17709100D01*
X18223100Y-9443500D02*
X18206000Y-9444900D01*
X6641110Y-11824600D02*
X6647820Y-11838800D01*
X12711430Y-12490900D02*
X12715870Y-12488800D01*
X21669900Y-17714760D02*
X21665000Y-17715000D01*
X7805560Y-23041980D02*
X7824880Y-22964870D01*
X24911100Y-4833000D02*
X24898500Y-4823700D01*
X14311430Y-15290900D02*
X14315870Y-15288810D01*
X10469900Y-19114760D02*
X10465000Y-19115000D01*
X17200000Y-22900670D02*
X17230300Y-22882510D01*
X14149990Y-23873490D02*
X14086140Y-23826140D01*
X17758300Y-23164710D02*
X17760000Y-23200000D01*
X7926510Y-22749990D02*
X7973860Y-22686140D01*
X23315000Y-14865000D02*
X23314800Y-14869900D01*
X20092800Y-16693430D02*
X20096700Y-16696350D01*
X24898500Y-24376318D02*
X24911100Y-24366965D01*
X12273490Y-22749990D02*
X12314360Y-22818170D01*
X23265000Y-13885000D02*
X23269900Y-13885200D01*
X23306600Y-14892800D02*
X23303700Y-14896700D01*
X19093400Y-16707220D02*
X19096300Y-16703280D01*
X20264700Y-5349000D02*
X20276300Y-5336300D01*
X23269900Y-13885200D02*
X23274800Y-13886000D01*
X7885640Y-22818170D02*
X7926510Y-22749990D01*
X15309100Y-20488570D02*
X15306570Y-20492780D01*
X7885000Y-19065000D02*
X7885000Y-18135000D01*
X6301503Y-4823700D02*
X6288891Y-4833000D01*
X15050010Y-23873490D02*
X14981830Y-23914360D01*
X12720490Y-19112850D02*
X12715870Y-19111190D01*
X10512850Y-13479500D02*
X10511190Y-13484100D01*
X9503280Y-13503700D02*
X9499640Y-13500400D01*
X17485000Y-14865000D02*
X17485000Y-13935000D01*
X12735000Y-20515000D02*
X12730100Y-20514760D01*
X25075400Y-4558900D02*
X25088900Y-4567000D01*
X19085000Y-13465000D02*
X19085000Y-12535000D01*
X10488570Y-20509100D02*
X10484130Y-20511190D01*
X14293430Y-19092780D02*
X14290900Y-19088570D01*
X15524580Y-12041100D02*
X15511110Y-12033000D01*
X14293430Y-18107220D02*
X14296350Y-18103280D01*
X20041700Y-23235290D02*
X20040000Y-23200000D01*
X15274750Y-12486000D02*
X15279510Y-12487200D01*
X6098497Y-4576300D02*
X6111109Y-4567000D01*
X15303650Y-16296720D02*
X15300360Y-16300360D01*
X9487150Y-16279510D02*
X9485960Y-16274750D01*
X20084100Y-13511200D02*
X20079500Y-13512800D01*
X24968800Y-24656926D02*
X24953600Y-24653110D01*
X20711400Y-12490900D02*
X20715900Y-12488800D01*
X19087200Y-16720490D02*
X19088800Y-16715870D01*
X18465000Y-12485000D02*
X18469900Y-12485200D01*
X10503650Y-15303280D02*
X10506570Y-15307220D01*
X15568790Y-12056900D02*
X15553550Y-12053100D01*
X20088600Y-12490900D02*
X20092800Y-12493400D01*
X24746400Y-20946890D02*
X24761200Y-20952180D01*
X19111400Y-13890900D02*
X19115900Y-13888800D01*
X15284130Y-15288810D02*
X15288570Y-15290900D01*
X7903280Y-14903700D02*
X7899640Y-14900400D01*
X23046900Y-23270230D02*
X23041700Y-23235290D01*
X6323682Y-24601503D02*
X6313137Y-24613137D01*
X18503700Y-17696720D02*
X18500400Y-17700360D01*
X8903650Y-19503280D02*
X8906570Y-19507220D01*
X17530100Y-20514760D02*
X17525200Y-20514040D01*
X17470200Y-22846920D02*
X17504500Y-22855500D01*
X6411109Y-12033000D02*
X6398497Y-12023700D01*
X9499640Y-12499600D02*
X9503280Y-12496300D01*
X18474800Y-16685960D02*
X18479500Y-16687150D01*
X9507220Y-18093430D02*
X9511430Y-18090900D01*
X20699600Y-19499640D02*
X20703300Y-19496350D01*
X6333035Y-4788900D02*
X6323682Y-4801500D01*
X18040900Y-9342200D02*
X18034600Y-9326300D01*
X13700360Y-19499640D02*
X13703650Y-19503280D01*
X25200000Y-4100000D02*
X6000000Y-4100000D01*
X18144000Y-9104300D02*
X18160600Y-9099600D01*
X7888810Y-19084130D02*
X7887150Y-19079510D01*
X17515900Y-16688810D02*
X17520500Y-16687150D01*
X15984800Y-5026000D02*
X15989500Y-5027200D01*
X6500000Y-20940000D02*
X6515683Y-20940770D01*
X20574200Y-5477200D02*
X20571600Y-5494100D01*
X10503650Y-20496720D02*
X10500360Y-20500360D01*
X15440770Y-11915700D02*
X15440000Y-11900000D01*
X8896720Y-18096350D02*
X8900360Y-18099640D01*
X8441980Y-23994440D02*
X8364870Y-23975120D01*
X19111400Y-12490900D02*
X19115900Y-12488800D01*
X9520490Y-19112850D02*
X9515870Y-19111190D01*
X17744500Y-23304500D02*
X17732600Y-23337770D01*
X23314800Y-14869900D02*
X23314000Y-14874800D01*
X20079500Y-16687150D02*
X20084100Y-16688810D01*
X12226140Y-22686140D02*
X12273490Y-22749990D01*
X22472000Y-9389600D02*
X22460900Y-9376500D01*
X12715870Y-19111190D02*
X12711430Y-19109100D01*
X18051700Y-9177600D02*
X18061500Y-9163500D01*
X22286000Y-19525250D02*
X22287200Y-19520490D01*
X23504500Y-23544500D02*
X23470200Y-23553080D01*
X21241900Y-10032500D02*
X21038600Y-10105300D01*
X9535000Y-12485000D02*
X10465000Y-12485000D01*
X14285240Y-15330100D02*
X14285960Y-15325250D01*
X17100700Y-22999990D02*
X17121700Y-22971620D01*
X20114000Y-17674750D02*
X20112800Y-17679510D01*
X8915000Y-18135000D02*
X8915000Y-19065000D01*
X24841100Y-11975400D02*
X24833000Y-11988900D01*
X6086863Y-4586900D02*
X6098497Y-4576300D01*
X12112850Y-13920500D02*
X12114040Y-13925200D01*
X11130100Y-20514760D02*
X11125250Y-20514040D01*
X22512200Y-9421600D02*
X22497800Y-9412200D01*
X15273490Y-22749990D02*
X15314360Y-22818170D01*
X12079510Y-13887200D02*
X12084130Y-13888800D01*
X24856900Y-21068790D02*
X24859200Y-21084320D01*
X8906570Y-13907200D02*
X8909100Y-13911400D01*
X14330100Y-19485240D02*
X14335000Y-19485000D01*
X9525250Y-19114040D02*
X9520490Y-19112850D01*
X19096300Y-16703280D02*
X19099600Y-16699640D01*
X12394440Y-23358020D02*
X12375120Y-23435130D01*
X24833000Y-21011110D02*
X24841100Y-21024580D01*
X23306600Y-20492780D02*
X23303700Y-20496720D01*
X13700360Y-18099640D02*
X13703650Y-18103280D01*
X24813100Y-11786900D02*
X24823700Y-11798500D01*
X15315000Y-18135000D02*
X15315000Y-19065000D01*
X18200000Y-8000000D02*
X18210600Y-7784400D01*
X7885240Y-14869900D02*
X7885000Y-14865000D01*
X11085000Y-19535000D02*
X11085240Y-19530100D01*
X15741100Y-21024580D02*
X15747800Y-21038770D01*
X20686000Y-19525250D02*
X20687200Y-19520490D01*
X21714000Y-13925200D02*
X21714800Y-13930100D01*
X17520500Y-14912800D02*
X17515900Y-14911200D01*
X14290900Y-18111430D02*
X14293430Y-18107220D01*
X17511400Y-20509100D02*
X17507200Y-20506570D01*
X12707220Y-12493400D02*
X12711430Y-12490900D01*
X17171600Y-23478280D02*
X17145400Y-23454560D01*
X6398497Y-21223680D02*
X6386863Y-21213140D01*
X10509100Y-12511400D02*
X10511190Y-12515900D01*
X8835130Y-22424880D02*
X8909970Y-22451660D01*
X8912850Y-14879500D02*
X8911190Y-14884100D01*
X18479500Y-13887200D02*
X18484100Y-13888800D01*
X17486000Y-14874800D02*
X17485200Y-14869900D01*
X6531214Y-11743100D02*
X6546446Y-11746900D01*
X6184317Y-4540800D02*
X6200000Y-4540000D01*
X12079510Y-19112850D02*
X12074750Y-19114040D01*
X19090900Y-20488570D02*
X19088800Y-20484130D01*
X7824880Y-22964870D02*
X7851660Y-22890030D01*
X15274750Y-13514000D02*
X15269900Y-13514800D01*
X11099640Y-18099640D02*
X11103280Y-18096350D01*
X15733000Y-21011110D02*
X15741100Y-21024580D01*
X23046900Y-23129770D02*
X23055500Y-23095500D01*
X15288570Y-19109100D02*
X15284130Y-19111190D01*
X14335000Y-16315000D02*
X14330100Y-16314760D01*
X14335000Y-12485000D02*
X15265000Y-12485000D01*
X12720490Y-18087150D02*
X12725250Y-18085960D01*
X20055500Y-23304500D02*
X20046900Y-23270230D01*
X17496300Y-14896700D02*
X17493400Y-14892800D01*
X19135000Y-14915000D02*
X19130100Y-14914800D01*
X14293430Y-15307220D02*
X14296350Y-15303280D01*
X21955600Y-9555600D02*
X21795700Y-9700600D01*
X17507200Y-17706570D02*
X17503300Y-17703650D01*
X25582800Y-4383900D02*
X25569600Y-4346900D01*
X20693400Y-19507220D02*
X20696300Y-19503280D01*
X25592300Y-4422000D02*
X25582800Y-4383900D01*
X6288891Y-4567000D02*
X6301503Y-4576300D01*
X12065000Y-19115000D02*
X11135000Y-19115000D01*
X24859200Y-11915700D02*
X24856900Y-11931200D01*
X18512800Y-20479510D02*
X18511200Y-20484130D01*
X20082500Y-23030300D02*
X20100700Y-22999990D01*
X18488600Y-19490900D02*
X18492800Y-19493430D01*
X19103300Y-12496300D02*
X19107200Y-12493400D01*
X20115000Y-13935000D02*
X20115000Y-14865000D01*
X22505300Y-7361400D02*
X22557700Y-7570800D01*
X14288810Y-19515870D02*
X14290900Y-19511430D01*
X23470200Y-22846920D02*
X23504500Y-22855500D01*
X22311400Y-14909100D02*
X22307200Y-14906600D01*
X18492800Y-17706570D02*
X18488600Y-17709100D01*
X18514800Y-13930100D02*
X18515000Y-13935000D01*
X7888810Y-19515870D02*
X7890900Y-19511430D01*
X13696720Y-19496350D02*
X13700360Y-19499640D01*
X15675400Y-21241110D02*
X15661200Y-21247820D01*
X17535000Y-13515000D02*
X17530100Y-13514800D01*
X9490900Y-12511400D02*
X9493430Y-12507200D01*
X17600000Y-23499330D02*
X17569700Y-23517490D01*
X6659230Y-11915700D02*
X6656930Y-11931200D01*
X6398497Y-20976320D02*
X6411109Y-20966960D01*
X9487150Y-18120490D02*
X9488810Y-18115870D01*
X6333035Y-24411109D02*
X6341107Y-24424577D01*
X11115870Y-14911200D02*
X11111430Y-14909100D01*
X12111190Y-20484130D02*
X12109100Y-20488570D01*
X12693430Y-20492780D02*
X12690900Y-20488570D01*
X9507220Y-16306570D02*
X9503280Y-16303650D01*
X17488800Y-14884100D02*
X17487200Y-14879500D01*
X18511200Y-19515870D02*
X18512800Y-19520490D01*
X13793900Y-23279390D02*
X13790000Y-23200000D01*
X17055500Y-23304500D02*
X17046900Y-23270230D01*
X15998600Y-5030900D02*
X16002800Y-5033400D01*
X15733000Y-21188890D02*
X15723700Y-21201500D01*
X11085960Y-19525250D02*
X11087150Y-19520490D01*
X15688900Y-21233040D02*
X15675400Y-21241110D01*
X17487200Y-19520490D02*
X17488800Y-19515870D01*
X21711200Y-20484130D02*
X21709100Y-20488570D01*
X13679510Y-16312850D02*
X13674750Y-16314040D01*
X14287150Y-16279510D02*
X14285960Y-16274750D01*
X15498500Y-11776300D02*
X15511110Y-11767000D01*
X9515870Y-20511190D02*
X9511430Y-20509100D01*
X15284130Y-19111190D02*
X15279510Y-19112850D01*
X21696700Y-19496350D02*
X21700400Y-19499640D01*
X7903280Y-18096350D02*
X7907220Y-18093430D01*
X20069900Y-14914800D02*
X20065000Y-14915000D01*
X10492780Y-16306570D02*
X10488570Y-16309100D01*
X19088800Y-12515900D02*
X19090900Y-12511400D01*
X22719300Y-9397700D02*
X22706200Y-9408800D01*
X12735000Y-18085000D02*
X13665000Y-18085000D01*
X18844400Y-9555600D02*
X18699400Y-9395700D01*
X12696350Y-15303280D02*
X12699640Y-15299640D01*
X9520490Y-13512800D02*
X9515870Y-13511200D01*
X13715000Y-19535000D02*
X13715000Y-20465000D01*
X7180900Y-10948600D02*
X7178810Y-10944100D01*
X12693430Y-19092780D02*
X12690900Y-19088570D01*
X10479510Y-18087150D02*
X10484130Y-18088810D01*
X20112800Y-12520500D02*
X20114000Y-12525200D01*
X10496720Y-19103650D02*
X10492780Y-19106570D01*
X6184317Y-4859200D02*
X6168786Y-4856900D01*
X8758020Y-22405560D02*
X8835130Y-22424880D01*
X19085000Y-19535000D02*
X19085200Y-19530100D01*
X9113860Y-22573860D02*
X9172760Y-22627240D01*
X7935000Y-20515000D02*
X7930100Y-20514760D01*
X12730100Y-12485200D02*
X12735000Y-12485000D01*
X18506600Y-20492780D02*
X18503700Y-20496720D01*
X11088810Y-14884100D02*
X11087150Y-14879500D01*
X12114040Y-20474750D02*
X12112850Y-20479510D01*
X12685960Y-18125250D02*
X12687150Y-18120490D01*
X22425100Y-9281400D02*
X22424800Y-9264300D01*
X15303650Y-15303280D02*
X15306570Y-15307220D01*
X13714760Y-19069900D02*
X13714040Y-19074750D01*
X13674750Y-19114040D02*
X13669900Y-19114760D01*
X9485960Y-15325250D02*
X9487150Y-15320490D01*
X14299640Y-18099640D02*
X14303280Y-18096350D01*
X18496700Y-17703650D02*
X18492800Y-17706570D01*
X15524580Y-20958890D02*
X15538770Y-20952180D01*
X18511200Y-17684130D02*
X18509100Y-17688570D01*
X20084100Y-14911200D02*
X20079500Y-14912800D01*
X13805560Y-23358020D02*
X13793900Y-23279390D01*
X9314360Y-22818170D02*
X9348340Y-22890030D01*
X6343074Y-21068790D02*
X6346890Y-21053550D01*
X22468100Y-9154600D02*
X22480100Y-9142300D01*
X20109100Y-13911400D02*
X20111200Y-13915900D01*
X15723700Y-11798500D02*
X15733000Y-11811100D01*
X18511200Y-16715870D02*
X18512800Y-16720490D01*
X6301503Y-4576300D02*
X6313137Y-4586900D01*
X24546900Y-11946400D02*
X24543100Y-11931200D01*
X6323682Y-4598500D02*
X6333035Y-4611100D01*
X15406100Y-23120610D02*
X15410000Y-23200000D01*
X13700360Y-16300360D02*
X13696720Y-16303650D01*
X22100600Y-9395700D02*
X21955600Y-9555600D01*
X24847800Y-21161230D02*
X24841100Y-21175420D01*
X15584320Y-12059200D02*
X15568790Y-12056900D01*
X5647231Y-4311400D02*
X5630448Y-4346900D01*
X19130100Y-13885200D02*
X19135000Y-13885000D01*
X23292800Y-14906600D02*
X23288600Y-14909100D01*
X6588891Y-12033000D02*
X6575423Y-12041100D01*
X21711200Y-17684130D02*
X21709100Y-17688570D01*
X14307220Y-12493400D02*
X14311430Y-12490900D01*
X22557700Y-8429200D02*
X22505300Y-8638600D01*
X7930100Y-20514760D02*
X7925250Y-20514040D01*
X10926510Y-22749990D02*
X10973860Y-22686140D01*
X20687200Y-13920500D02*
X20688800Y-13915900D01*
X12720490Y-12487200D02*
X12725250Y-12486000D01*
X18844400Y-6444400D02*
X19004300Y-6299400D01*
X19107200Y-16693430D02*
X19111400Y-16690900D01*
X17490900Y-19511430D02*
X17493400Y-19507220D01*
X19085200Y-19530100D02*
X19086000Y-19525250D01*
X18366000Y-9213700D02*
X18370700Y-9230300D01*
X21715000Y-13465000D02*
X21714800Y-13469900D01*
X7925250Y-19114040D02*
X7920490Y-19112850D01*
X10500360Y-20500360D02*
X10496720Y-20503650D01*
X20720500Y-14912800D02*
X20715900Y-14911200D01*
X19087200Y-20479510D02*
X19086000Y-20474750D01*
X17329800Y-22846920D02*
X17364700Y-22841730D01*
X15440000Y-21100000D02*
X15440770Y-21084320D01*
X15646400Y-12053100D02*
X15631200Y-12056900D01*
X17520500Y-17712850D02*
X17515900Y-17711190D01*
X17295500Y-22855500D02*
X17329800Y-22846920D01*
X6153554Y-24346890D02*
X6168786Y-24343074D01*
X24567000Y-11988900D02*
X24558900Y-11975400D01*
X11093430Y-18107220D02*
X11096350Y-18103280D01*
X25101500Y-24623682D02*
X25088900Y-24633035D01*
X22611200Y-9444600D02*
X22594000Y-9444900D01*
X11086140Y-22573860D02*
X11149990Y-22526510D01*
X10479510Y-16312850D02*
X10474750Y-16314040D01*
X23654600Y-22945440D02*
X23678300Y-22971620D01*
X18306800Y-9131200D02*
X18319900Y-9142300D01*
X22285200Y-20469900D02*
X22285000Y-20465000D01*
X6313137Y-24386863D02*
X6323682Y-24398497D01*
X16022800Y-5060500D02*
X16024000Y-5065200D01*
X20696300Y-17696720D02*
X20693400Y-17692780D01*
X17040000Y-23200000D02*
X17041700Y-23164710D01*
X23067400Y-23062230D02*
X23082500Y-23030300D01*
X8441980Y-22405560D02*
X8520610Y-22393900D01*
X22557700Y-7570800D02*
X22589400Y-7784400D01*
X15265000Y-12485000D02*
X15269900Y-12485200D01*
X18506600Y-19507220D02*
X18509100Y-19511430D01*
X21714800Y-17669900D02*
X21714000Y-17674750D01*
X19970800Y-10157700D02*
X19761400Y-10105300D01*
X13973860Y-22686140D02*
X14027240Y-22627240D01*
X12688810Y-16284130D02*
X12687150Y-16279510D01*
X15309100Y-15311430D02*
X15311190Y-15315870D01*
X14027240Y-23772760D02*
X13973860Y-23713860D01*
X10509100Y-15311430D02*
X10511190Y-15315870D01*
X7920490Y-19487150D02*
X7925250Y-19485960D01*
X22727400Y-9150400D02*
X22738500Y-9163500D01*
X9485960Y-20474750D02*
X9485240Y-20469900D01*
X15315000Y-19535000D02*
X15315000Y-20465000D01*
X20711400Y-16690900D02*
X20715900Y-16688810D01*
X24552200Y-21038770D02*
X24558900Y-21024580D01*
X19099600Y-17700360D02*
X19096300Y-17696720D01*
X12050010Y-22526510D02*
X12113860Y-22573860D01*
X7930100Y-19114760D02*
X7925250Y-19114040D01*
X9375120Y-23435130D02*
X9348340Y-23509970D01*
X6359230Y-24484317D02*
X6360000Y-24500000D01*
X22288800Y-13915900D02*
X22290900Y-13911400D01*
X22774300Y-9258600D02*
X22774600Y-9275700D01*
X13709100Y-19511430D02*
X13711190Y-19515870D01*
X25101500Y-24376318D02*
X25113100Y-24386863D01*
X6656930Y-21131210D02*
X6653110Y-21146450D01*
X12114760Y-19069900D02*
X12114040Y-19074750D01*
X22588300Y-9095400D02*
X22605400Y-9095100D01*
X19103300Y-13896300D02*
X19107200Y-13893400D01*
X5777772Y-4167400D02*
X5746243Y-4190800D01*
X20115000Y-20465000D02*
X20114800Y-20469900D01*
X9273490Y-22749990D02*
X9314360Y-22818170D01*
X18112800Y-9118400D02*
X18128100Y-9110600D01*
X22286000Y-13925200D02*
X22287200Y-13920500D01*
X14290900Y-12511400D02*
X14293430Y-12507200D01*
X19088800Y-16715870D02*
X19090900Y-16711430D01*
X12699640Y-20500360D02*
X12696350Y-20496720D01*
X23262200Y-23532600D02*
X23230300Y-23517490D01*
X15315000Y-20465000D02*
X15314760Y-20469900D01*
X16021200Y-5055900D02*
X16022800Y-5060500D01*
X23284100Y-19488810D02*
X23288600Y-19490900D01*
X18492800Y-12493400D02*
X18496700Y-12496300D01*
X6360000Y-24500000D02*
X6359230Y-24515683D01*
X11111430Y-13890900D02*
X11115870Y-13888800D01*
X24968800Y-4543100D02*
X24984300Y-4540800D01*
X12079510Y-20512850D02*
X12074750Y-20514040D01*
X7907220Y-13893400D02*
X7911430Y-13890900D01*
X15989500Y-5027200D02*
X15994100Y-5028800D01*
X20711400Y-13509100D02*
X20707200Y-13506600D01*
X25000000Y-24660000D02*
X24984300Y-24659230D01*
X9172760Y-23772760D02*
X9113860Y-23826140D01*
X19135000Y-12485000D02*
X20065000Y-12485000D01*
X12685240Y-12530100D02*
X12685960Y-12525200D01*
X22307200Y-13893400D02*
X22311400Y-13890900D01*
X18500400Y-20500360D02*
X18496700Y-20503650D01*
X15584320Y-11740800D02*
X15600000Y-11740000D01*
X5921964Y-4107700D02*
X5883886Y-4117200D01*
X18509100Y-14888600D02*
X18506600Y-14892800D01*
X17046900Y-23270230D02*
X17041700Y-23235290D01*
X15984800Y-10974000D02*
X15979900Y-10974800D01*
X9515870Y-19488810D02*
X9520490Y-19487150D01*
X6500000Y-21260000D02*
X6484317Y-21259230D01*
X9511430Y-16309100D02*
X9507220Y-16306570D01*
X17041700Y-23235290D02*
X17040000Y-23200000D01*
X20289000Y-5595300D02*
X20276300Y-5583700D01*
X24546900Y-21053550D02*
X24552200Y-21038770D01*
X9511430Y-20509100D02*
X9507220Y-20506570D01*
X18514800Y-14869900D02*
X18514000Y-14874800D01*
X9515870Y-16311190D02*
X9511430Y-16309100D01*
X9503280Y-18096350D02*
X9507220Y-18093430D01*
X20109100Y-13488600D02*
X20106600Y-13492800D01*
X15309100Y-19088570D02*
X15306570Y-19092780D01*
X10506570Y-20492780D02*
X10503650Y-20496720D01*
X18469900Y-16685240D02*
X18474800Y-16685960D01*
X9488810Y-19084130D02*
X9487150Y-19079510D01*
X15284130Y-16311190D02*
X15279510Y-16312850D01*
X15538770Y-21247820D02*
X15524580Y-21241110D01*
X10469900Y-19485240D02*
X10474750Y-19485960D01*
X10465000Y-19485000D02*
X10469900Y-19485240D01*
X10465000Y-18085000D02*
X10469900Y-18085240D01*
X21706600Y-14892800D02*
X21703700Y-14896700D01*
X23145400Y-22945440D02*
X23171600Y-22921720D01*
X22480100Y-9142300D02*
X22493200Y-9131200D01*
X18261900Y-9106200D02*
X18277700Y-9113000D01*
X15288570Y-19490900D02*
X15292780Y-19493430D01*
X9488810Y-16284130D02*
X9487150Y-16279510D01*
X5617224Y-24816114D02*
X5630448Y-24853073D01*
X11120490Y-18087150D02*
X11125250Y-18085960D01*
X12084130Y-19488810D02*
X12088570Y-19490900D01*
X6313137Y-4586900D02*
X6323682Y-4598500D01*
X14299640Y-13500400D02*
X14296350Y-13496700D01*
X11085240Y-19069900D02*
X11085000Y-19065000D01*
X13790000Y-23200000D02*
X13793900Y-23120610D01*
X20364700Y-23558270D02*
X20329800Y-23553080D01*
X8896720Y-20503650D02*
X8892780Y-20506570D01*
X8679390Y-24006100D02*
X8600000Y-24010000D01*
X14335000Y-13515000D02*
X14330100Y-13514800D01*
X12707220Y-15293430D02*
X12711430Y-15290900D01*
X12114760Y-19530100D02*
X12115000Y-19535000D01*
X19107200Y-13506600D02*
X19103300Y-13503700D01*
X13669900Y-15285240D02*
X13674750Y-15285960D01*
X20112800Y-14879500D02*
X20111200Y-14884100D01*
X18514800Y-16730100D02*
X18515000Y-16735000D01*
X22229200Y-9222300D02*
X22100600Y-9395700D01*
X14311430Y-13509100D02*
X14307220Y-13506600D01*
X18503700Y-20496720D02*
X18500400Y-20500360D01*
X7175240Y-5070100D02*
X7175960Y-5065200D01*
X20069900Y-12485200D02*
X20074800Y-12486000D01*
X15760000Y-11900000D02*
X15759200Y-11915700D01*
X17041700Y-23164710D02*
X17046900Y-23129770D01*
X9490900Y-18111430D02*
X9493430Y-18107220D01*
X15538770Y-11752200D02*
X15553550Y-11746900D01*
X9488810Y-12515900D02*
X9490900Y-12511400D01*
X10474750Y-20514040D02*
X10469900Y-20514760D01*
X17499600Y-12499600D02*
X17503300Y-12496300D01*
X20074800Y-12486000D02*
X20079500Y-12487200D01*
X15265000Y-20515000D02*
X14335000Y-20515000D01*
X22484300Y-9401600D02*
X22472000Y-9389600D01*
X24898500Y-4576300D02*
X24911100Y-4567000D01*
X25453800Y-25009204D02*
X25482800Y-24982843D01*
X12707220Y-13506600D02*
X12703280Y-13503700D01*
X9485000Y-20465000D02*
X9485000Y-19535000D01*
X18500400Y-16699640D02*
X18503700Y-16703280D01*
X17485000Y-19535000D02*
X17485200Y-19530100D01*
X12685240Y-19530100D02*
X12685960Y-19525250D01*
X10500360Y-13500400D02*
X10496720Y-13503700D01*
X9499640Y-16300360D02*
X9496350Y-16296720D01*
X11087150Y-20479510D02*
X11085960Y-20474750D01*
X20100400Y-20500360D02*
X20096700Y-20503650D01*
X17535000Y-17715000D02*
X17530100Y-17714760D01*
X8911190Y-14884100D02*
X8909100Y-14888600D01*
X21709100Y-14888600D02*
X21706600Y-14892800D01*
X22286000Y-14874800D02*
X22285200Y-14869900D01*
X23400000Y-22840000D02*
X23435300Y-22841730D01*
X7225000Y-10975000D02*
X7220100Y-10974800D01*
X20725200Y-14914000D02*
X20720500Y-14912800D01*
X10474750Y-12486000D02*
X10479510Y-12487200D01*
X12696350Y-19503280D02*
X12699640Y-19499640D01*
X20470200Y-23553080D02*
X20435300Y-23558270D01*
X11125250Y-18085960D02*
X11130100Y-18085240D01*
X14086140Y-22573860D02*
X14149990Y-22526510D01*
X6613140Y-11786900D02*
X6623680Y-11798500D01*
X20735000Y-13515000D02*
X20730100Y-13514800D01*
X18492800Y-20506570D02*
X18488600Y-20509100D01*
X19085200Y-20469900D02*
X19085000Y-20465000D01*
X25598100Y-4460800D02*
X25592300Y-4422000D01*
X17488800Y-12515900D02*
X17490900Y-12511400D01*
X21038600Y-10105300D02*
X20829200Y-10157700D01*
X12703280Y-13503700D02*
X12699640Y-13500400D01*
X8909100Y-19511430D02*
X8911190Y-19515870D01*
X23082500Y-23030300D02*
X23100700Y-22999990D01*
X18503700Y-12503300D02*
X18506600Y-12507200D01*
X24684300Y-12059200D02*
X24668800Y-12056900D01*
X19107200Y-12493400D02*
X19111400Y-12490900D01*
X11909970Y-23948340D02*
X11835130Y-23975120D01*
X20715900Y-12488800D02*
X20720500Y-12487200D01*
X21669900Y-13514800D02*
X21665000Y-13515000D01*
X12703280Y-15296350D02*
X12707220Y-15293430D01*
X17067400Y-23062230D02*
X17082500Y-23030300D01*
X11085240Y-19530100D02*
X11085960Y-19525250D01*
X20725200Y-12486000D02*
X20730100Y-12485200D01*
X25453800Y-4190800D02*
X25422200Y-4167400D01*
X24775400Y-12041100D02*
X24761200Y-12047800D01*
X8900360Y-19499640D02*
X8903650Y-19503280D01*
X20106600Y-17692780D02*
X20103700Y-17696720D01*
X10484130Y-13511200D02*
X10479510Y-13512800D01*
X17511400Y-16690900D02*
X17515900Y-16688810D01*
X22507300Y-9121400D02*
X22522300Y-9113000D01*
X15309100Y-12511400D02*
X15311190Y-12515900D01*
X17507200Y-16693430D02*
X17511400Y-16690900D01*
X12687150Y-18120490D02*
X12688810Y-18115870D01*
X19093400Y-12507200D02*
X19096300Y-12503300D01*
X12685960Y-19074750D02*
X12685240Y-19069900D01*
X17515900Y-14911200D02*
X17511400Y-14909100D01*
X21703700Y-13903300D02*
X21706600Y-13907200D01*
X11085960Y-13925200D02*
X11087150Y-13920500D01*
X20561700Y-5393000D02*
X20567500Y-5409200D01*
X10496720Y-16303650D02*
X10492780Y-16306570D01*
X6515683Y-21259230D02*
X6500000Y-21260000D01*
X6453554Y-11746900D02*
X6468786Y-11743100D01*
X15615700Y-11740800D02*
X15631200Y-11743100D01*
X10484130Y-16311190D02*
X10479510Y-16312850D01*
X12725250Y-19485960D02*
X12730100Y-19485240D01*
X13669900Y-19114760D02*
X13665000Y-19115000D01*
X20715900Y-16688810D02*
X20720500Y-16687150D01*
X24715700Y-12059200D02*
X24700000Y-12060000D01*
X23314800Y-20469900D02*
X23314000Y-20474750D01*
X9496350Y-19096720D02*
X9493430Y-19092780D01*
X9525250Y-18085960D02*
X9530100Y-18085240D01*
X18492800Y-16693430D02*
X18496700Y-16696350D01*
X17503300Y-13503700D02*
X17499600Y-13500400D01*
X21703700Y-19503280D02*
X21706600Y-19507220D01*
X15296720Y-12496300D02*
X15300360Y-12499600D01*
X24567000Y-21188890D02*
X24558900Y-21175420D01*
X11103280Y-13896300D02*
X11107220Y-13893400D01*
X15306570Y-15307220D02*
X15309100Y-15311430D01*
X11149990Y-23873490D02*
X11086140Y-23826140D01*
X21706600Y-16707220D02*
X21709100Y-16711430D01*
X20693400Y-17692780D02*
X20690900Y-17688570D01*
X12103650Y-20496720D02*
X12100360Y-20500360D01*
X10469900Y-16314760D02*
X10465000Y-16315000D01*
X17499600Y-20500360D02*
X17496300Y-20496720D01*
X24841100Y-21175420D02*
X24833000Y-21188890D01*
X9113860Y-23826140D02*
X9050010Y-23873490D01*
X20079500Y-20512850D02*
X20074800Y-20514040D01*
X15458890Y-21175420D02*
X15452180Y-21161230D01*
X19120500Y-17712850D02*
X19115900Y-17711190D01*
X10496720Y-13503700D02*
X10492780Y-13506600D01*
X8903650Y-19096720D02*
X8900360Y-19100360D01*
X10503650Y-19096720D02*
X10500360Y-19100360D01*
X24598500Y-12023700D02*
X24586900Y-12013100D01*
X11130100Y-19114760D02*
X11125250Y-19114040D01*
X14330100Y-19114760D02*
X14325250Y-19114040D01*
X17499600Y-14900400D02*
X17496300Y-14896700D01*
X7911430Y-19490900D02*
X7915870Y-19488810D01*
X9485960Y-12525200D02*
X9487150Y-12520500D01*
X6184317Y-24340770D02*
X6200000Y-24340000D01*
X12111190Y-19515870D02*
X12112850Y-19520490D01*
X22320500Y-14912800D02*
X22315900Y-14911200D01*
X11087150Y-13920500D02*
X11088810Y-13915900D01*
X11093430Y-19507220D02*
X11096350Y-19503280D01*
X5647231Y-24888559D02*
X5667412Y-24922228D01*
X12103650Y-19503280D02*
X12106570Y-19507220D01*
X17496300Y-12503300D02*
X17499600Y-12499600D01*
X13696720Y-18096350D02*
X13700360Y-18099640D01*
X24847800Y-11838800D02*
X24853100Y-11853600D01*
X20088600Y-20509100D02*
X20084100Y-20511190D01*
X6484317Y-12059200D02*
X6468786Y-12056900D01*
X20092800Y-14906600D02*
X20088600Y-14909100D01*
X15265000Y-19115000D02*
X14335000Y-19115000D01*
X20114000Y-20474750D02*
X20112800Y-20479510D01*
X14285240Y-16269900D02*
X14285000Y-16265000D01*
X20628400Y-22921720D02*
X20654600Y-22945440D01*
X22311400Y-13890900D02*
X22315900Y-13888800D01*
X9493430Y-20492780D02*
X9490900Y-20488570D01*
X15615700Y-20940770D02*
X15631200Y-20943070D01*
X14909970Y-23948340D02*
X14835130Y-23975120D01*
X13692780Y-18093430D02*
X13696720Y-18096350D01*
X8865000Y-19115000D02*
X7935000Y-19115000D01*
X12696350Y-20496720D02*
X12693430Y-20492780D01*
X22307200Y-19493430D02*
X22311400Y-19490900D01*
X6153554Y-4546900D02*
X6168786Y-4543100D01*
X18511200Y-20484130D02*
X18509100Y-20488570D01*
X24801500Y-21223680D02*
X24788900Y-21233040D01*
X18036500Y-9208400D02*
X18043300Y-9192600D01*
X20079500Y-13512800D02*
X20074800Y-13514000D01*
X13824880Y-22964870D02*
X13851660Y-22890030D01*
X12065000Y-19485000D02*
X12069900Y-19485240D01*
X16016600Y-5047200D02*
X16019100Y-5051400D01*
X19107200Y-13893400D02*
X19111400Y-13890900D01*
X17496300Y-13496700D02*
X17493400Y-13492800D01*
X13711190Y-19515870D02*
X13712850Y-19520490D01*
X9487150Y-20479510D02*
X9485960Y-20474750D01*
X7899640Y-19100360D02*
X7896350Y-19096720D01*
X19130100Y-12485200D02*
X19135000Y-12485000D01*
X11096350Y-20496720D02*
X11093430Y-20492780D01*
X19090900Y-12511400D02*
X19093400Y-12507200D01*
X6066965Y-24411109D02*
X6076318Y-24398497D01*
X6424577Y-20958890D02*
X6438771Y-20952180D01*
X17503300Y-14903700D02*
X17499600Y-14900400D01*
X23312800Y-13920500D02*
X23314000Y-13925200D01*
X18496700Y-16696350D02*
X18500400Y-16699640D01*
X6347821Y-4761200D02*
X6341107Y-4775400D01*
X13711190Y-20484130D02*
X13709100Y-20488570D01*
X15314760Y-13469900D02*
X15314040Y-13474800D01*
X8600000Y-22390000D02*
X8679390Y-22393900D01*
X8912850Y-18120490D02*
X8914040Y-18125250D01*
X13688570Y-19490900D02*
X13692780Y-19493430D01*
X21684100Y-14911200D02*
X21679500Y-14912800D01*
X20096700Y-14903700D02*
X20092800Y-14906600D01*
X14325250Y-20514040D02*
X14320490Y-20512850D01*
X19086000Y-17674750D02*
X19085200Y-17669900D01*
X20707200Y-17706570D02*
X20703300Y-17703650D01*
X18342500Y-9168100D02*
X18351800Y-9182500D01*
X10514760Y-12530100D02*
X10515000Y-12535000D01*
X21665000Y-20515000D02*
X20735000Y-20515000D01*
X23744500Y-23095500D02*
X23753100Y-23129770D01*
X12112850Y-20479510D02*
X12111190Y-20484130D01*
X21688600Y-13890900D02*
X21692800Y-13893400D01*
X12112850Y-14879500D02*
X12111190Y-14884100D01*
X22335000Y-19485000D02*
X23265000Y-19485000D01*
X21706600Y-13492800D02*
X21703700Y-13496700D01*
X15300360Y-19499640D02*
X15303650Y-19503280D01*
X13674750Y-18085960D02*
X13679510Y-18087150D01*
X25153100Y-24546446D02*
X25147800Y-24561229D01*
X7186350Y-5043300D02*
X7189640Y-5039600D01*
X17525200Y-16685960D02*
X17530100Y-16685240D01*
X7935000Y-19485000D02*
X8865000Y-19485000D01*
X10465000Y-13515000D02*
X9535000Y-13515000D01*
X13703650Y-13496700D02*
X13700360Y-13500400D01*
X9487150Y-19079510D02*
X9485960Y-19074750D01*
X18367500Y-7158100D02*
X18459800Y-6962900D01*
X15314760Y-15330100D02*
X15315000Y-15335000D01*
X17511400Y-13890900D02*
X17515900Y-13888800D01*
X23230300Y-22882510D02*
X23262200Y-22867400D01*
X13714040Y-12525200D02*
X13714760Y-12530100D01*
X6386863Y-21213140D02*
X6376318Y-21201500D01*
X6343074Y-11931200D02*
X6340770Y-11915700D01*
X15312850Y-18120490D02*
X15314040Y-18125250D01*
X7899640Y-14900400D02*
X7896350Y-14896700D01*
X18373800Y-9247200D02*
X18375200Y-9264300D01*
X20074800Y-17714040D02*
X20069900Y-17714760D01*
X20707200Y-13506600D02*
X20703300Y-13503700D01*
X10509100Y-18111430D02*
X10511190Y-18115870D01*
X21692800Y-13893400D02*
X21696700Y-13896300D01*
X21712800Y-14879500D02*
X21711200Y-14884100D01*
X17485200Y-12530100D02*
X17486000Y-12525200D01*
X20329800Y-23553080D02*
X20295500Y-23544500D01*
X17485200Y-13930100D02*
X17486000Y-13925200D01*
X12688810Y-20484130D02*
X12687150Y-20479510D01*
X6076318Y-24601503D02*
X6066965Y-24588891D01*
X10515000Y-19065000D02*
X10514760Y-19069900D01*
X12074750Y-13886000D02*
X12079510Y-13887200D01*
X17496300Y-19503280D02*
X17499600Y-19499640D01*
X11099640Y-19499640D02*
X11103280Y-19496350D01*
X14299640Y-15299640D02*
X14303280Y-15296350D01*
X24586900Y-20986860D02*
X24598500Y-20976320D01*
X12707220Y-16306570D02*
X12703280Y-16303650D01*
X19125200Y-16685960D02*
X19130100Y-16685240D01*
X18469900Y-14914800D02*
X18465000Y-14915000D01*
X20302800Y-5605500D02*
X20289000Y-5595300D01*
X14285000Y-13465000D02*
X14285000Y-12535000D01*
X20685000Y-12535000D02*
X20685200Y-12530100D01*
X20735000Y-20515000D02*
X20730100Y-20514760D01*
X6323682Y-4801500D02*
X6313137Y-4813100D01*
X13709100Y-12511400D02*
X13711190Y-12515900D01*
X14285000Y-18135000D02*
X14285240Y-18130100D01*
X11130100Y-18085240D02*
X11135000Y-18085000D01*
X15476320Y-20998500D02*
X15486860Y-20986860D01*
X24853100Y-21053550D02*
X24856900Y-21068790D01*
X6323682Y-24398497D02*
X6333035Y-24411109D01*
X20730100Y-12485200D02*
X20735000Y-12485000D01*
X18474800Y-13514000D02*
X18469900Y-13514800D01*
X18459800Y-9037100D02*
X18367500Y-8841900D01*
X13711190Y-19084130D02*
X13709100Y-19088570D01*
X15631200Y-11743100D02*
X15646400Y-11746900D01*
X15303650Y-20496720D02*
X15300360Y-20500360D01*
X24984300Y-4540800D02*
X25000000Y-4540000D01*
X20690900Y-16711430D02*
X20693400Y-16707220D01*
X14285960Y-19525250D02*
X14287150Y-19520490D01*
X20238300Y-5393000D02*
X20245700Y-5377500D01*
X10515000Y-19535000D02*
X10515000Y-20465000D01*
X20088600Y-14909100D02*
X20084100Y-14911200D01*
X7890900Y-20488570D02*
X7888810Y-20484130D01*
X11981830Y-22485640D02*
X12050010Y-22526510D01*
X13688570Y-18090900D02*
X13692780Y-18093430D01*
X11107220Y-20506570D02*
X11103280Y-20503650D01*
X18479500Y-16687150D02*
X18484100Y-16688810D01*
X8892780Y-14906600D02*
X8888570Y-14909100D01*
X10488570Y-12490900D02*
X10492780Y-12493400D01*
X12711430Y-20509100D02*
X12707220Y-20506570D01*
X15314040Y-19074750D02*
X15312850Y-19079510D01*
X21706600Y-20492780D02*
X21703700Y-20496720D01*
X24898500Y-4823700D02*
X24886900Y-4813100D01*
X18515000Y-17665000D02*
X18514800Y-17669900D01*
X10793900Y-23279390D02*
X10790000Y-23200000D01*
X15279510Y-19487150D02*
X15284130Y-19488810D01*
X24852200Y-4638800D02*
X24858900Y-4624600D01*
X22656000Y-9104300D02*
X22671900Y-9110600D01*
X20615600Y-5810600D02*
X20829200Y-5842300D01*
X6601500Y-11776300D02*
X6613140Y-11786900D01*
X8879510Y-14912800D02*
X8874750Y-14914000D01*
X13674750Y-15285960D02*
X13679510Y-15287150D01*
X24598500Y-20976320D02*
X24611100Y-20966960D01*
X7896350Y-19096720D02*
X7893430Y-19092780D01*
X6623680Y-11798500D02*
X6633040Y-11811100D01*
X11103280Y-19103650D02*
X11099640Y-19100360D01*
X16010400Y-5039600D02*
X16013700Y-5043300D01*
X12725250Y-16314040D02*
X12720490Y-16312850D01*
X6138771Y-24352179D02*
X6153554Y-24346890D01*
X20106600Y-14892800D02*
X20103700Y-14896700D01*
X6561229Y-12047800D02*
X6546446Y-12053100D01*
X22432500Y-7158100D02*
X22505300Y-7361400D01*
X10511190Y-16284130D02*
X10509100Y-16288570D01*
X18474800Y-20514040D02*
X18469900Y-20514760D01*
X12687150Y-12520500D02*
X12688810Y-12515900D01*
X17732600Y-23062230D02*
X17744500Y-23095500D01*
X12115000Y-14865000D02*
X12114760Y-14869900D01*
X12114040Y-18125250D02*
X12114760Y-18130100D01*
X7793900Y-23120610D02*
X7805560Y-23041980D01*
X7215250Y-5026000D02*
X7220100Y-5025200D01*
X22303300Y-13896300D02*
X22307200Y-13893400D01*
X22527500Y-9429400D02*
X22512200Y-9421600D01*
X15661200Y-21247820D02*
X15646400Y-21253110D01*
X10465000Y-12485000D02*
X10469900Y-12485200D01*
X8869900Y-20514760D02*
X8865000Y-20515000D01*
X7890900Y-19088570D02*
X7888810Y-19084130D01*
X8912850Y-13920500D02*
X8914040Y-13925200D01*
X20654600Y-23454560D02*
X20628400Y-23478280D01*
X9535000Y-19485000D02*
X10465000Y-19485000D01*
X21712800Y-13920500D02*
X21714000Y-13925200D01*
X21684100Y-20511190D02*
X21679500Y-20512850D01*
X6484317Y-11740800D02*
X6500000Y-11740000D01*
X7888810Y-20484130D02*
X7887150Y-20479510D01*
X15311190Y-19515870D02*
X15312850Y-19520490D01*
X18514000Y-14874800D02*
X18512800Y-14879500D01*
X11093430Y-20492780D02*
X11090900Y-20488570D01*
X20687200Y-19520490D02*
X20688800Y-19515870D01*
X7885000Y-14865000D02*
X7885000Y-13935000D01*
X18367500Y-8841900D02*
X18294700Y-8638600D01*
X9520490Y-12487200D02*
X9525250Y-12486000D01*
X9515870Y-19111190D02*
X9511430Y-19109100D01*
X8600000Y-24010000D02*
X8520610Y-24006100D01*
X10474750Y-18085960D02*
X10479510Y-18087150D01*
X11120490Y-19112850D02*
X11115870Y-19111190D01*
X6200000Y-24660000D02*
X6184317Y-24659230D01*
X20114000Y-13925200D02*
X20114800Y-13930100D01*
X12103650Y-18103280D02*
X12106570Y-18107220D01*
X6246446Y-4853100D02*
X6231214Y-4856900D01*
X11085000Y-20465000D02*
X11085000Y-19535000D01*
X22768700Y-9224700D02*
X22772400Y-9241500D01*
X20228400Y-5425900D02*
X20232500Y-5409200D01*
X23200000Y-23499330D02*
X23171600Y-23478280D01*
X12725250Y-15285960D02*
X12730100Y-15285240D01*
X12092780Y-19106570D02*
X12088570Y-19109100D01*
X9485240Y-18130100D02*
X9485960Y-18125250D01*
X19085200Y-13469900D02*
X19085000Y-13465000D01*
X12703280Y-20503650D02*
X12699640Y-20500360D01*
X23262200Y-22867400D02*
X23295500Y-22855500D01*
X15314360Y-23581830D02*
X15273490Y-23650010D01*
X15226140Y-22686140D02*
X15273490Y-22749990D01*
X11981830Y-23914360D02*
X11909970Y-23948340D01*
X12172760Y-22627240D02*
X12226140Y-22686140D01*
X15296720Y-19496350D02*
X15300360Y-19499640D01*
X20103700Y-13496700D02*
X20100400Y-13500400D01*
X25600000Y-24700000D02*
X25600000Y-4500000D01*
X9496350Y-13496700D02*
X9493430Y-13492800D01*
X22285000Y-20465000D02*
X22285000Y-19535000D01*
X9493430Y-19092780D02*
X9490900Y-19088570D01*
X6313137Y-24613137D02*
X6301503Y-24623682D01*
X21703700Y-12503300D02*
X21706600Y-12507200D01*
X6515683Y-12059200D02*
X6500000Y-12060000D01*
X20735000Y-19485000D02*
X21665000Y-19485000D01*
X20365900Y-5631600D02*
X20349200Y-5627500D01*
X6360000Y-4700000D02*
X6359230Y-4715700D01*
X14288810Y-20484130D02*
X14287150Y-20479510D01*
X6000000Y-4100000D02*
X5960793Y-4101900D01*
X20074800Y-19485960D02*
X20079500Y-19487150D01*
X13715000Y-13465000D02*
X13714760Y-13469900D01*
X25388600Y-4147200D02*
X25353100Y-4130400D01*
X12074750Y-19485960D02*
X12079510Y-19487150D01*
X15172760Y-22627240D02*
X15226140Y-22686140D01*
X15713100Y-11786900D02*
X15723700Y-11798500D01*
X20317500Y-5305700D02*
X20333000Y-5298300D01*
X21714000Y-17674750D02*
X21712800Y-17679510D01*
X18500400Y-14900400D02*
X18496700Y-14903700D01*
X20715900Y-20511190D02*
X20711400Y-20509100D01*
X22748300Y-9177600D02*
X22756700Y-9192600D01*
X18093800Y-9408800D02*
X18080700Y-9397700D01*
X9496350Y-19503280D02*
X9499640Y-19499640D01*
X24867000Y-4611100D02*
X24876300Y-4598500D01*
X20703300Y-14903700D02*
X20699600Y-14900400D01*
X7887150Y-14879500D02*
X7885960Y-14874800D01*
X7189640Y-10960400D02*
X7186350Y-10956700D01*
X13684130Y-19111190D02*
X13679510Y-19112850D01*
X11115870Y-19488810D02*
X11120490Y-19487150D01*
X15311190Y-19084130D02*
X15309100Y-19088570D01*
X6346890Y-11946400D02*
X6343074Y-11931200D01*
X19115900Y-19488810D02*
X19120500Y-19487150D01*
X10885640Y-23581830D02*
X10851660Y-23509970D01*
X19090900Y-19511430D02*
X19093400Y-19507220D01*
X18488600Y-12490900D02*
X18492800Y-12493400D01*
X24847800Y-21038770D02*
X24853100Y-21053550D01*
X21711200Y-12515900D02*
X21712800Y-12520500D01*
X20100400Y-12499600D02*
X20103700Y-12503300D01*
X21679500Y-17712850D02*
X21674800Y-17714040D01*
X20245700Y-5542500D02*
X20238300Y-5527000D01*
X10469900Y-13514800D02*
X10465000Y-13515000D01*
X11679390Y-22393900D02*
X11758020Y-22405560D01*
X20084100Y-17711190D02*
X20079500Y-17712850D01*
X22763500Y-9208400D02*
X22768700Y-9224700D01*
X17171600Y-22921720D02*
X17200000Y-22900670D01*
X20100700Y-22999990D02*
X20121700Y-22971620D01*
X15756900Y-11931200D02*
X15753100Y-11946400D01*
X24876300Y-4801500D02*
X24867000Y-4788900D01*
X20079500Y-12487200D02*
X20084100Y-12488800D01*
X20735000Y-12485000D02*
X21665000Y-12485000D01*
X11085960Y-20474750D02*
X11085240Y-20469900D01*
X17485000Y-13465000D02*
X17485000Y-12535000D01*
X14307220Y-13506600D02*
X14303280Y-13503700D01*
X13692780Y-16306570D02*
X13688570Y-16309100D01*
X11115870Y-19111190D02*
X11111430Y-19109100D01*
X8879510Y-19112850D02*
X8874750Y-19114040D01*
X14285240Y-12530100D02*
X14285960Y-12525200D01*
X9485240Y-15330100D02*
X9485960Y-15325250D01*
X19130100Y-20514760D02*
X19125200Y-20514040D01*
X24558900Y-11975400D02*
X24552200Y-11961200D01*
X15394440Y-23041980D02*
X15406100Y-23120610D01*
X6261229Y-4552200D02*
X6275423Y-4558900D01*
X22677100Y-9427000D02*
X22661300Y-9433800D01*
X20084100Y-20511190D02*
X20079500Y-20512850D01*
X5717157Y-24982843D02*
X5746243Y-25009204D01*
X23314000Y-19525250D02*
X23314800Y-19530100D01*
X15314760Y-18130100D02*
X15315000Y-18135000D01*
X20693400Y-14892800D02*
X20690900Y-14888600D01*
X24540800Y-21115680D02*
X24540000Y-21100000D01*
X14330100Y-13514800D02*
X14325250Y-13514000D01*
X18369300Y-9315300D02*
X18364100Y-9331600D01*
X20228400Y-5494100D02*
X20225800Y-5477200D01*
X17100700Y-23400010D02*
X17082500Y-23369700D01*
X19099600Y-13500400D02*
X19096300Y-13496700D01*
X10465000Y-16315000D02*
X9535000Y-16315000D01*
X15269900Y-13514800D02*
X15265000Y-13515000D01*
X11085960Y-18125250D02*
X11087150Y-18120490D01*
X18496700Y-20503650D02*
X18492800Y-20506570D01*
X18512800Y-12520500D02*
X18514000Y-12525200D01*
X13824880Y-23435130D02*
X13805560Y-23358020D01*
X23288600Y-20509100D02*
X23284100Y-20511190D01*
X14285000Y-15335000D02*
X14285240Y-15330100D01*
X11111430Y-14909100D02*
X11107220Y-14906600D01*
X6215683Y-4540800D02*
X6231214Y-4543100D01*
X8906570Y-19507220D02*
X8909100Y-19511430D01*
X17503300Y-20503650D02*
X17499600Y-20500360D01*
X7925250Y-14914000D02*
X7920490Y-14912800D01*
X11149990Y-22526510D02*
X11218170Y-22485640D01*
X8914760Y-14869900D02*
X8914040Y-14874800D01*
X20096700Y-17703650D02*
X20092800Y-17706570D01*
X22427000Y-9298500D02*
X22425100Y-9281400D01*
X11093430Y-14892800D02*
X11090900Y-14888600D01*
X20200000Y-23499330D02*
X20171600Y-23478280D01*
X20720500Y-16687150D02*
X20725200Y-16685960D01*
X15300360Y-19100360D02*
X15296720Y-19103650D01*
X15315000Y-12535000D02*
X15315000Y-13465000D01*
X6347821Y-24561229D02*
X6341107Y-24575423D01*
X15292780Y-12493400D02*
X15296720Y-12496300D01*
X23040000Y-23200000D02*
X23041700Y-23164710D01*
X14335000Y-19115000D02*
X14330100Y-19114760D01*
X17400000Y-23560000D02*
X17364700Y-23558270D01*
X23312800Y-19520490D02*
X23314000Y-19525250D01*
X6438771Y-11752200D02*
X6453554Y-11746900D01*
X17485200Y-19530100D02*
X17486000Y-19525250D01*
X6215683Y-4859200D02*
X6200000Y-4860000D01*
X15315000Y-16265000D02*
X15314760Y-16269900D01*
X10474750Y-16314040D02*
X10469900Y-16314760D01*
X14320490Y-20512850D02*
X14315870Y-20511190D01*
X22315900Y-13888800D02*
X22320500Y-13887200D01*
X15452180Y-11838800D02*
X15458890Y-11824600D01*
X14330100Y-18085240D02*
X14335000Y-18085000D01*
X21709100Y-12511400D02*
X21711200Y-12515900D01*
X7885240Y-20469900D02*
X7885000Y-20465000D01*
X7887150Y-18120490D02*
X7888810Y-18115870D01*
X8914760Y-20469900D02*
X8914040Y-20474750D01*
X25031200Y-4856900D02*
X25015700Y-4859200D01*
X17717500Y-23030300D02*
X17732600Y-23062230D01*
X24843100Y-4731200D02*
X24840800Y-4715700D01*
X5746243Y-4190800D02*
X5717157Y-4217200D01*
X21696700Y-13896300D02*
X21700400Y-13899600D01*
X20703300Y-13896300D02*
X20707200Y-13893400D01*
X22330100Y-14914800D02*
X22325200Y-14914000D01*
X6633040Y-21188890D02*
X6623680Y-21201500D01*
X13715000Y-19065000D02*
X13714760Y-19069900D01*
X23279500Y-19487150D02*
X23284100Y-19488810D01*
X13674750Y-12486000D02*
X13679510Y-12487200D01*
X9530100Y-12485200D02*
X9535000Y-12485000D01*
X9488810Y-20484130D02*
X9487150Y-20479510D01*
X10479510Y-19112850D02*
X10474750Y-19114040D01*
X19085200Y-14869900D02*
X19085000Y-14865000D01*
X15498500Y-21223680D02*
X15486860Y-21213140D01*
X18364100Y-9331600D02*
X18357200Y-9347400D01*
X15296720Y-20503650D02*
X15292780Y-20506570D01*
X15269900Y-19114760D02*
X15265000Y-19115000D01*
X11085960Y-19074750D02*
X11085240Y-19069900D01*
X17600000Y-22900670D02*
X17628400Y-22921720D01*
X25088900Y-24366965D02*
X25101500Y-24376318D01*
X15458890Y-11975400D02*
X15452180Y-11961200D01*
X17520500Y-16687150D02*
X17525200Y-16685960D01*
X11364870Y-22424880D02*
X11441980Y-22405560D01*
X8884130Y-18088810D02*
X8888570Y-18090900D01*
X17485000Y-17665000D02*
X17485000Y-16735000D01*
X15288570Y-18090900D02*
X15292780Y-18093430D01*
X6347821Y-4638800D02*
X6353110Y-4653600D01*
X18509100Y-13911400D02*
X18511200Y-13915900D01*
X11125250Y-20514040D02*
X11120490Y-20512850D01*
X25061200Y-4552200D02*
X25075400Y-4558900D01*
X17515900Y-13511200D02*
X17511400Y-13509100D01*
X7885000Y-20465000D02*
X7885000Y-19535000D01*
X23274800Y-19485960D02*
X23279500Y-19487150D01*
X24576300Y-12001500D02*
X24567000Y-11988900D01*
X22293400Y-20492780D02*
X22290900Y-20488570D01*
X25141100Y-4775400D02*
X25133000Y-4788900D01*
X20096700Y-16696350D02*
X20100400Y-16699640D01*
X15296720Y-15296350D02*
X15300360Y-15299640D01*
X10514040Y-18125250D02*
X10514760Y-18130100D01*
X15994100Y-10971200D02*
X15989500Y-10972800D01*
X20735000Y-16685000D02*
X21665000Y-16685000D01*
X20084100Y-16688810D02*
X20088600Y-16690900D01*
X17046900Y-23129770D02*
X17055500Y-23095500D01*
X19111400Y-13509100D02*
X19107200Y-13506600D01*
X17487200Y-17679510D02*
X17486000Y-17674750D01*
X15311190Y-20484130D02*
X15309100Y-20488570D01*
X15265000Y-16315000D02*
X14335000Y-16315000D01*
X8290030Y-22451660D02*
X8364870Y-22424880D01*
X14315870Y-19111190D02*
X14311430Y-19109100D01*
X20417200Y-5285800D02*
X20434100Y-5288400D01*
X19115900Y-13888800D02*
X19120500Y-13887200D01*
X7201430Y-10969100D02*
X7197220Y-10966600D01*
X23760000Y-23200000D02*
X23758300Y-23235290D01*
X20696300Y-19503280D02*
X20699600Y-19499640D01*
X12693430Y-13492800D02*
X12690900Y-13488600D01*
X15300360Y-18099640D02*
X15303650Y-18103280D01*
X6358893Y-21175420D02*
X6352179Y-21161230D01*
X15284130Y-13511200D02*
X15279510Y-13512800D01*
X14320490Y-18087150D02*
X14325250Y-18085960D01*
X9507220Y-13506600D02*
X9503280Y-13503700D01*
X18459800Y-6962900D02*
X18570800Y-6777700D01*
X22303300Y-14903700D02*
X22299600Y-14900400D01*
X12084130Y-13888800D02*
X12088570Y-13890900D01*
X10511190Y-13484100D02*
X10509100Y-13488600D01*
X8912850Y-19520490D02*
X8914040Y-19525250D01*
X12685000Y-18135000D02*
X12685240Y-18130100D01*
X17525200Y-20514040D02*
X17520500Y-20512850D01*
X13709100Y-20488570D02*
X13706570Y-20492780D01*
X21241900Y-5967500D02*
X21437100Y-6059800D01*
X22751300Y-9357500D02*
X22742000Y-9371900D01*
X13714040Y-13474800D02*
X13712850Y-13479500D01*
X21714800Y-13930100D02*
X21715000Y-13935000D01*
X15753100Y-21053550D02*
X15756900Y-21068790D01*
X5921964Y-25092314D02*
X5960793Y-25098074D01*
X20720500Y-19487150D02*
X20725200Y-19485960D01*
X18374900Y-9281400D02*
X18373000Y-9298500D01*
X20690900Y-17688570D02*
X20688800Y-17684130D01*
X18287800Y-9421600D02*
X18272500Y-9429400D01*
X6386863Y-20986860D02*
X6398497Y-20976320D01*
X8865000Y-13885000D02*
X8869900Y-13885200D01*
X11290030Y-22451660D02*
X11364870Y-22424880D01*
X5690796Y-24953757D02*
X5717157Y-24982843D01*
X22440300Y-9197800D02*
X22448200Y-9182500D01*
X8218170Y-23914360D02*
X8149990Y-23873490D01*
X24856900Y-11868800D02*
X24859200Y-11884300D01*
X6040770Y-4715700D02*
X6040000Y-4700000D01*
X6111109Y-4567000D02*
X6124577Y-4558900D01*
X20103700Y-20496720D02*
X20100400Y-20500360D01*
X14288810Y-13484100D02*
X14287150Y-13479500D01*
X10506570Y-12507200D02*
X10509100Y-12511400D01*
X19970800Y-5842300D02*
X20184400Y-5810600D01*
X10506570Y-16292780D02*
X10503650Y-16296720D01*
X20074800Y-13514000D02*
X20069900Y-13514800D01*
X5600000Y-4500000D02*
X5600000Y-24700000D01*
X5667412Y-4277800D02*
X5647231Y-4311400D01*
X11115870Y-18088810D02*
X11120490Y-18087150D01*
X10511190Y-12515900D02*
X10512850Y-12520500D01*
X18294700Y-8638600D02*
X18242300Y-8429200D01*
X22671900Y-9110600D02*
X22687200Y-9118400D01*
X10511190Y-19515870D02*
X10512850Y-19520490D01*
X14307220Y-18093430D02*
X14311430Y-18090900D01*
X18503700Y-13903300D02*
X18506600Y-13907200D01*
X11125250Y-13886000D02*
X11130100Y-13885200D01*
X15288570Y-13509100D02*
X15284130Y-13511200D01*
X14335000Y-18085000D02*
X15265000Y-18085000D01*
X22451100Y-9362400D02*
X22442800Y-9347400D01*
X17507200Y-19493430D02*
X17511400Y-19490900D01*
X16025000Y-10925000D02*
X16024800Y-10929900D01*
X24731200Y-20943070D02*
X24746400Y-20946890D01*
X19085200Y-17669900D02*
X19085000Y-17665000D01*
X20088600Y-19490900D02*
X20092800Y-19493430D01*
X12074750Y-14914000D02*
X12069900Y-14914800D01*
X6656930Y-11868800D02*
X6659230Y-11884300D01*
X14218170Y-23914360D02*
X14149990Y-23873490D01*
X17530100Y-12485200D02*
X17535000Y-12485000D01*
X15486860Y-20986860D02*
X15498500Y-20976320D01*
X6424577Y-11758900D02*
X6438771Y-11752200D01*
X7915870Y-20511190D02*
X7911430Y-20509100D01*
X21679500Y-13887200D02*
X21684100Y-13888800D01*
X25159200Y-4715700D02*
X25156900Y-4731200D01*
X12109100Y-19088570D02*
X12106570Y-19092780D01*
X17503300Y-16696350D02*
X17507200Y-16693430D01*
X18511200Y-12515900D02*
X18512800Y-12520500D01*
X20225800Y-5442800D02*
X20228400Y-5425900D01*
X15300360Y-16300360D02*
X15296720Y-16303650D01*
X24813100Y-21213140D02*
X24801500Y-21223680D01*
X13709100Y-15311430D02*
X13711190Y-15315870D01*
X5667412Y-24922228D02*
X5690796Y-24953757D01*
X18357200Y-9347400D02*
X18348900Y-9362400D01*
X11087150Y-19079510D02*
X11085960Y-19074750D01*
X25160000Y-4700000D02*
X25159200Y-4715700D01*
X14325250Y-19485960D02*
X14330100Y-19485240D01*
X5601926Y-24739207D02*
X5607686Y-24778036D01*
X7193280Y-5036300D02*
X7197220Y-5033400D01*
X20725200Y-13514000D02*
X20720500Y-13512800D01*
X11835130Y-23975120D02*
X11758020Y-23994440D01*
X18155000Y-9439000D02*
X18138700Y-9433800D01*
X6659230Y-21084320D02*
X6660000Y-21100000D01*
X12711430Y-13509100D02*
X12707220Y-13506600D01*
X9485000Y-12535000D02*
X9485240Y-12530100D01*
X6111109Y-4833000D02*
X6098497Y-4823700D01*
X13885640Y-22818170D02*
X13926510Y-22749990D01*
X9507220Y-20506570D02*
X9503280Y-20503650D01*
X24840800Y-24515683D02*
X24840000Y-24500000D01*
X17530100Y-19485240D02*
X17535000Y-19485000D01*
X5630448Y-24853073D02*
X5647231Y-24888559D01*
X13805560Y-23041980D02*
X13824880Y-22964870D01*
X17699300Y-23400010D02*
X17678300Y-23428380D01*
X6653110Y-11946400D02*
X6647820Y-11961200D01*
X23309100Y-13911400D02*
X23311200Y-13915900D01*
X22296300Y-20496720D02*
X22293400Y-20492780D01*
X13679510Y-19487150D02*
X13684130Y-19488810D01*
X20111200Y-16715870D02*
X20112800Y-16720490D01*
X21709100Y-20488570D02*
X21706600Y-20492780D01*
X22296300Y-14896700D02*
X22293400Y-14892800D01*
X10492780Y-15293430D02*
X10496720Y-15296350D01*
X23200000Y-22900670D02*
X23230300Y-22882510D01*
X15466960Y-11988900D02*
X15458890Y-11975400D01*
X19004300Y-6299400D02*
X19177700Y-6170800D01*
X13679510Y-18087150D02*
X13684130Y-18088810D01*
X20685200Y-13930100D02*
X20686000Y-13925200D01*
X10465000Y-15285000D02*
X10469900Y-15285240D01*
X6288891Y-24633035D02*
X6275423Y-24641107D01*
X21703700Y-20496720D02*
X21700400Y-20500360D01*
X23311200Y-13915900D02*
X23312800Y-13920500D01*
X10503650Y-18103280D02*
X10506570Y-18107220D01*
X18514800Y-13469900D02*
X18514000Y-13474800D01*
X18484100Y-14911200D02*
X18479500Y-14912800D01*
X15741100Y-11975400D02*
X15733000Y-11988900D01*
X8981830Y-23914360D02*
X8909970Y-23948340D01*
X20715900Y-13511200D02*
X20711400Y-13509100D01*
X12735000Y-15285000D02*
X13665000Y-15285000D01*
X15538770Y-12047800D02*
X15524580Y-12041100D01*
X9485000Y-19535000D02*
X9485240Y-19530100D01*
X22296300Y-19503280D02*
X22299600Y-19499640D01*
X12079510Y-14912800D02*
X12074750Y-14914000D01*
X20254500Y-5362800D02*
X20264700Y-5349000D01*
X18465000Y-20515000D02*
X17535000Y-20515000D01*
X13706570Y-19092780D02*
X13703650Y-19096720D01*
X12088570Y-14909100D02*
X12084130Y-14911200D01*
X13715000Y-18135000D02*
X13715000Y-19065000D01*
X23312800Y-14879500D02*
X23311200Y-14884100D01*
X14285240Y-19530100D02*
X14285960Y-19525250D01*
X24576300Y-11798500D02*
X24586900Y-11786900D01*
X15279510Y-15287150D02*
X15284130Y-15288810D01*
X13688570Y-13509100D02*
X13684130Y-13511200D01*
X23569700Y-22882510D02*
X23600000Y-22900670D01*
X12711430Y-19109100D02*
X12707220Y-19106570D01*
X15759200Y-11915700D02*
X15756900Y-11931200D01*
X19103300Y-16696350D02*
X19107200Y-16693430D01*
X16022800Y-10939500D02*
X16021200Y-10944100D01*
X19090900Y-13911400D02*
X19093400Y-13907200D01*
X12685240Y-19069900D02*
X12685000Y-19065000D01*
X22299600Y-20500360D02*
X22296300Y-20496720D01*
X15303650Y-13496700D02*
X15300360Y-13500400D01*
X20114000Y-12525200D02*
X20114800Y-12530100D01*
X15466960Y-21011110D02*
X15476320Y-20998500D01*
X24715700Y-11740800D02*
X24731200Y-11743100D01*
X14290900Y-13488600D02*
X14288810Y-13484100D01*
X22285000Y-19535000D02*
X22285200Y-19530100D01*
X18503700Y-19503280D02*
X18506600Y-19507220D01*
X13793900Y-23120610D02*
X13805560Y-23041980D01*
X6124577Y-4841100D02*
X6111109Y-4833000D01*
X20065000Y-16685000D02*
X20069900Y-16685240D01*
X21712800Y-19520490D02*
X21714000Y-19525250D01*
X15348340Y-23509970D02*
X15314360Y-23581830D01*
X25159200Y-24515683D02*
X25156900Y-24531214D01*
X9503280Y-20503650D02*
X9499640Y-20500360D01*
X6623680Y-20998500D02*
X6633040Y-21011110D01*
X19558100Y-5967500D02*
X19761400Y-5894700D01*
X10484130Y-18088810D02*
X10488570Y-18090900D01*
X21703700Y-13496700D02*
X21700400Y-13500400D01*
X15753100Y-11853600D02*
X15756900Y-11868800D01*
X14981830Y-22485640D02*
X15050010Y-22526510D01*
X16025000Y-5075000D02*
X16025000Y-10925000D01*
X22538100Y-9106200D02*
X22554400Y-9101000D01*
X14600000Y-22390000D02*
X14679390Y-22393900D01*
X10514760Y-16269900D02*
X10514040Y-16274750D01*
X18240000Y-9440400D02*
X18223100Y-9443500D01*
X12699640Y-15299640D02*
X12703280Y-15296350D01*
X14520610Y-22393900D02*
X14600000Y-22390000D01*
X9525250Y-20514040D02*
X9520490Y-20512850D01*
X18484100Y-20511190D02*
X18479500Y-20512850D01*
X14296350Y-16296720D02*
X14293430Y-16292780D01*
X8888570Y-18090900D02*
X8892780Y-18093430D01*
X21712800Y-16720490D02*
X21714000Y-16725250D01*
X19090900Y-16711430D02*
X19093400Y-16707220D01*
X25509200Y-4246200D02*
X25482800Y-4217200D01*
X6098497Y-4823700D02*
X6086863Y-4813100D01*
X21669900Y-19485240D02*
X21674800Y-19485960D01*
X12050010Y-23873490D02*
X11981830Y-23914360D01*
X13692780Y-19106570D02*
X13688570Y-19109100D01*
X14296350Y-20496720D02*
X14293430Y-20492780D01*
X18506600Y-13907200D02*
X18509100Y-13911400D01*
X20696300Y-12503300D02*
X20699600Y-12499600D01*
X6641110Y-11975400D02*
X6633040Y-11988900D01*
X13709100Y-13488600D02*
X13706570Y-13492800D01*
X11085240Y-13930100D02*
X11085960Y-13925200D01*
X20230300Y-22882510D02*
X20262200Y-22867400D01*
X11111430Y-19490900D02*
X11115870Y-19488810D01*
X19177700Y-9829200D02*
X19004300Y-9700600D01*
X23600000Y-22900670D02*
X23628400Y-22921720D01*
X22554400Y-9101000D02*
X22571200Y-9097300D01*
X23288600Y-19490900D02*
X23292800Y-19493430D01*
X20238300Y-5527000D02*
X20232500Y-5510800D01*
X15279510Y-18087150D02*
X15284130Y-18088810D01*
X9520490Y-16312850D02*
X9515870Y-16311190D01*
X14600000Y-24010000D02*
X14520610Y-24006100D01*
X14679390Y-22393900D02*
X14758020Y-22405560D01*
X18469900Y-19485240D02*
X18474800Y-19485960D01*
X20615600Y-10189400D02*
X20400000Y-10200000D01*
X9485960Y-19074750D02*
X9485240Y-19069900D01*
X6168786Y-24656926D02*
X6153554Y-24653110D01*
X11758020Y-22405560D02*
X11835130Y-22424880D01*
X7899640Y-18099640D02*
X7903280Y-18096350D01*
X6623680Y-21201500D02*
X6613140Y-21213140D01*
X19088800Y-20484130D02*
X19087200Y-20479510D01*
X8888570Y-20509100D02*
X8884130Y-20511190D01*
X19558100Y-10032500D02*
X19362900Y-9940200D01*
X13714760Y-15330100D02*
X13715000Y-15335000D01*
X24761200Y-11752200D02*
X24775400Y-11758900D01*
X21692800Y-13506600D02*
X21688600Y-13509100D01*
X7920490Y-19112850D02*
X7915870Y-19111190D01*
X24775400Y-11758900D02*
X24788900Y-11767000D01*
X22288800Y-19515870D02*
X22290900Y-19511430D01*
X15646400Y-21253110D02*
X15631200Y-21256930D01*
X24598500Y-11776300D02*
X24611100Y-11767000D01*
X23732600Y-23062230D02*
X23744500Y-23095500D01*
X24867000Y-24411109D02*
X24876300Y-24398497D01*
X12394440Y-23041980D02*
X12406100Y-23120610D01*
X19087200Y-19520490D02*
X19088800Y-19515870D01*
X11103280Y-14903700D02*
X11099640Y-14900400D01*
X22772400Y-9241500D02*
X22774300Y-9258600D01*
X15284130Y-18088810D02*
X15288570Y-18090900D01*
X20106600Y-20492780D02*
X20103700Y-20496720D01*
X10514040Y-16274750D02*
X10512850Y-16279510D01*
X6659230Y-11884300D02*
X6660000Y-11900000D01*
X8218170Y-22485640D02*
X8290030Y-22451660D01*
X24924600Y-24641107D02*
X24911100Y-24633035D01*
X21706600Y-12507200D02*
X21709100Y-12511400D01*
X7925250Y-13886000D02*
X7930100Y-13885200D01*
X15631200Y-12056900D02*
X15615700Y-12059200D01*
X24853100Y-11946400D02*
X24847800Y-11961200D01*
X14307220Y-20506570D02*
X14303280Y-20503650D01*
X6546446Y-21253110D02*
X6531214Y-21256930D01*
X15292780Y-18093430D02*
X15296720Y-18096350D01*
X15511110Y-12033000D02*
X15498500Y-12023700D01*
X20699300Y-22999990D02*
X20717500Y-23030300D01*
X19135000Y-13515000D02*
X19130100Y-13514800D01*
X17525200Y-13514000D02*
X17520500Y-13512800D01*
X20088600Y-13890900D02*
X20092800Y-13893400D01*
X17628400Y-22921720D02*
X17654600Y-22945440D01*
X20121700Y-23428380D02*
X20100700Y-23400010D01*
X20735000Y-13885000D02*
X21665000Y-13885000D01*
X19004300Y-9700600D02*
X18844400Y-9555600D01*
X20106600Y-19507220D02*
X20109100Y-19511430D01*
X6058893Y-24575423D02*
X6052179Y-24561229D01*
X6058893Y-24424577D02*
X6066965Y-24411109D01*
X22299600Y-14900400D02*
X22296300Y-14896700D01*
X7220100Y-5025200D02*
X7225000Y-5025000D01*
X22715100Y-9138400D02*
X22727400Y-9150400D01*
X9499640Y-20500360D02*
X9496350Y-20496720D01*
X24611100Y-21233040D02*
X24598500Y-21223680D01*
X7903280Y-13896300D02*
X7907220Y-13893400D01*
X20115000Y-13465000D02*
X20114800Y-13469900D01*
X8911190Y-20484130D02*
X8909100Y-20488570D01*
X9488810Y-18115870D02*
X9490900Y-18111430D01*
X20074800Y-16685960D02*
X20079500Y-16687150D01*
X20365900Y-5288400D02*
X20382800Y-5285800D01*
X7930100Y-14914800D02*
X7925250Y-14914000D01*
X21714000Y-16725250D02*
X21714800Y-16730100D01*
X9490900Y-15311430D02*
X9493430Y-15307220D01*
X21696700Y-13503700D02*
X21692800Y-13506600D01*
X23329800Y-22846920D02*
X23364700Y-22841730D01*
X20103700Y-17696720D02*
X20100400Y-17700360D01*
X16002800Y-10966600D02*
X15998600Y-10969100D01*
X19130100Y-13514800D02*
X19125200Y-13514000D01*
X18474800Y-19485960D02*
X18479500Y-19487150D01*
X18506600Y-14892800D02*
X18503700Y-14896700D01*
X6398497Y-11776300D02*
X6411109Y-11767000D01*
X24858900Y-24575423D02*
X24852200Y-24561229D01*
X7851660Y-22890030D02*
X7885640Y-22818170D01*
X9485240Y-13469900D02*
X9485000Y-13465000D01*
X21665000Y-14915000D02*
X20735000Y-14915000D01*
X19125200Y-13886000D02*
X19130100Y-13885200D01*
X19093400Y-13492800D02*
X19090900Y-13488600D01*
X21674800Y-13886000D02*
X21679500Y-13887200D01*
X9485000Y-18135000D02*
X9485240Y-18130100D01*
X19099600Y-19499640D02*
X19103300Y-19496350D01*
X5811441Y-4147200D02*
X5777772Y-4167400D01*
X24852200Y-24438771D02*
X24858900Y-24424577D01*
X19099600Y-13899600D02*
X19103300Y-13896300D01*
X15631200Y-21256930D02*
X15615700Y-21259230D01*
X21679500Y-12487200D02*
X21684100Y-12488800D01*
X25532600Y-4277800D02*
X25509200Y-4246200D01*
X17487200Y-13479500D02*
X17486000Y-13474800D01*
X23314800Y-13930100D02*
X23315000Y-13935000D01*
X9493430Y-15307220D02*
X9496350Y-15303280D01*
X19086000Y-20474750D02*
X19085200Y-20469900D01*
X10506570Y-15307220D02*
X10509100Y-15311430D01*
X20069900Y-13885200D02*
X20074800Y-13886000D01*
X8865000Y-14915000D02*
X7935000Y-14915000D01*
X20114000Y-13474800D02*
X20112800Y-13479500D01*
X20504500Y-22855500D02*
X20537800Y-22867400D01*
X7197220Y-10966600D02*
X7193280Y-10963700D01*
X12699640Y-19499640D02*
X12703280Y-19496350D01*
X17364700Y-23558270D02*
X17329800Y-23553080D01*
X18465000Y-17715000D02*
X17535000Y-17715000D01*
X12725250Y-12486000D02*
X12730100Y-12485200D01*
X8914760Y-13930100D02*
X8915000Y-13935000D01*
X25316100Y-25082776D02*
X25353100Y-25069552D01*
X18359700Y-9197800D02*
X18366000Y-9213700D01*
X6343074Y-21131210D02*
X6340770Y-21115680D01*
X19135000Y-17715000D02*
X19130100Y-17714760D01*
X17487200Y-20479510D02*
X17486000Y-20474750D01*
X24715700Y-21259230D02*
X24700000Y-21260000D01*
X12065000Y-14915000D02*
X11135000Y-14915000D01*
X14325250Y-12486000D02*
X14330100Y-12485200D01*
X23309100Y-20488570D02*
X23306600Y-20492780D01*
X14296350Y-19503280D02*
X14299640Y-19499640D01*
X9485960Y-16274750D02*
X9485240Y-16269900D01*
X18503700Y-14896700D02*
X18500400Y-14900400D01*
X18512800Y-16720490D02*
X18514000Y-16725250D01*
X24558900Y-21175420D02*
X24552200Y-21161230D01*
X15753100Y-21146450D02*
X15747800Y-21161230D01*
X19090900Y-17688570D02*
X19088800Y-17684130D01*
X17499600Y-13899600D02*
X17503300Y-13896300D01*
X22325200Y-19485960D02*
X22330100Y-19485240D01*
X23315000Y-20465000D02*
X23314800Y-20469900D01*
X19093400Y-17692780D02*
X19090900Y-17688570D01*
X21714000Y-14874800D02*
X21712800Y-14879500D01*
X14320490Y-19112850D02*
X14315870Y-19111190D01*
X12079510Y-19487150D02*
X12084130Y-19488810D01*
X10496720Y-15296350D02*
X10500360Y-15299640D01*
X12685000Y-16265000D02*
X12685000Y-15335000D01*
X16013700Y-10956700D02*
X16010400Y-10960400D01*
X6376318Y-11798500D02*
X6386863Y-11786900D01*
X15753100Y-11946400D02*
X15747800Y-11961200D01*
X17490900Y-12511400D02*
X17493400Y-12507200D01*
X18514800Y-19530100D02*
X18515000Y-19535000D01*
X15443070Y-11868800D02*
X15446890Y-11853600D01*
X9535000Y-20515000D02*
X9530100Y-20514760D01*
X15113860Y-22573860D02*
X15172760Y-22627240D01*
X24653600Y-11746900D02*
X24668800Y-11743100D01*
X17499600Y-19499640D02*
X17503300Y-19496350D01*
X23288600Y-13890900D02*
X23292800Y-13893400D01*
X15498500Y-20976320D02*
X15511110Y-20966960D01*
X20069900Y-16685240D02*
X20074800Y-16685960D01*
X7915870Y-18088810D02*
X7920490Y-18087150D01*
X20114000Y-14874800D02*
X20112800Y-14879500D01*
X9507220Y-19493430D02*
X9511430Y-19490900D01*
X15701500Y-20976320D02*
X15713100Y-20986860D01*
X24775400Y-21241110D02*
X24761200Y-21247820D01*
X15292780Y-20506570D02*
X15288570Y-20509100D01*
X17535000Y-20515000D02*
X17530100Y-20514760D01*
X11087150Y-14879500D02*
X11085960Y-14874800D01*
X12113860Y-22573860D02*
X12172760Y-22627240D01*
X15288570Y-20509100D02*
X15284130Y-20511190D01*
X14311430Y-16309100D02*
X14307220Y-16306570D01*
X15284130Y-20511190D02*
X15279510Y-20512850D01*
X12703280Y-19103650D02*
X12699640Y-19100360D01*
X14330100Y-20514760D02*
X14325250Y-20514040D01*
X10496720Y-20503650D02*
X10492780Y-20506570D01*
X12685000Y-15335000D02*
X12685240Y-15330100D01*
X6424577Y-21241110D02*
X6411109Y-21233040D01*
X10469900Y-20514760D02*
X10465000Y-20515000D01*
X5777772Y-25032588D02*
X5811441Y-25052768D01*
X17488800Y-17684130D02*
X17487200Y-17679510D01*
X9511430Y-18090900D02*
X9515870Y-18088810D01*
X12273490Y-23650010D02*
X12226140Y-23713860D01*
X10511190Y-19084130D02*
X10509100Y-19088570D01*
X18029900Y-9309700D02*
X18026800Y-9292800D01*
X8896720Y-14903700D02*
X8892780Y-14906600D01*
X20470200Y-22846920D02*
X20504500Y-22855500D01*
X20112800Y-20479510D02*
X20111200Y-20484130D01*
X9490900Y-20488570D02*
X9488810Y-20484130D01*
X23100700Y-23400010D02*
X23082500Y-23369700D01*
X9503280Y-15296350D02*
X9507220Y-15293430D01*
X15994100Y-5028800D02*
X15998600Y-5030900D01*
X8874750Y-20514040D02*
X8869900Y-20514760D01*
X25156900Y-4668800D02*
X25159200Y-4684300D01*
X6215683Y-24659230D02*
X6200000Y-24660000D01*
X10511190Y-18115870D02*
X10512850Y-18120490D01*
X24911100Y-24366965D02*
X24924600Y-24358893D01*
X14364870Y-22424880D02*
X14441980Y-22405560D01*
X6623680Y-12001500D02*
X6613140Y-12013100D01*
X9348340Y-23509970D02*
X9314360Y-23581830D01*
X20687200Y-13479500D02*
X20686000Y-13474800D01*
X12735000Y-16315000D02*
X12730100Y-16314760D01*
X17511400Y-12490900D02*
X17515900Y-12488800D01*
X18474800Y-17714040D02*
X18469900Y-17714760D01*
X20096700Y-12496300D02*
X20100400Y-12499600D01*
X15741100Y-11824600D02*
X15747800Y-11838800D01*
X20100400Y-16699640D02*
X20103700Y-16703280D01*
X17530100Y-13514800D02*
X17525200Y-13514000D01*
X23678300Y-23428380D02*
X23654600Y-23454560D01*
X6347821Y-24438771D02*
X6353110Y-24453554D01*
X5883886Y-4117200D02*
X5846927Y-4130400D01*
X12069900Y-19485240D02*
X12074750Y-19485960D01*
X20567500Y-5510800D02*
X20561700Y-5527000D01*
X17435300Y-23558270D02*
X17400000Y-23560000D01*
X24924600Y-4841100D02*
X24911100Y-4833000D01*
X25156900Y-4731200D02*
X25153100Y-4746400D01*
X21795700Y-9700600D02*
X21622300Y-9829200D01*
X15406100Y-23279390D02*
X15394440Y-23358020D01*
X14293430Y-20492780D02*
X14290900Y-20488570D01*
X18500400Y-17700360D02*
X18496700Y-17703650D01*
X13703650Y-19096720D02*
X13700360Y-19100360D01*
X20686000Y-17674750D02*
X20685200Y-17669900D01*
X21714000Y-20474750D02*
X21712800Y-20479510D01*
X11099640Y-13899600D02*
X11103280Y-13896300D01*
X9535000Y-15285000D02*
X10465000Y-15285000D01*
X6353110Y-4653600D02*
X6356926Y-4668800D01*
X20254500Y-5557200D02*
X20245700Y-5542500D01*
X7885000Y-19535000D02*
X7885240Y-19530100D01*
X15312850Y-20479510D02*
X15311190Y-20484130D01*
X25569600Y-24853073D02*
X25582800Y-24816114D01*
X20699600Y-17700360D02*
X20696300Y-17696720D01*
X19085000Y-17665000D02*
X19085000Y-16735000D01*
X12730100Y-20514760D02*
X12725250Y-20514040D01*
X15312850Y-13479500D02*
X15311190Y-13484100D01*
X20720500Y-13887200D02*
X20725200Y-13886000D01*
X6341107Y-24575423D02*
X6333035Y-24588891D01*
X14307220Y-16306570D02*
X14303280Y-16303650D01*
X13684130Y-13511200D02*
X13679510Y-13512800D01*
X15309100Y-19511430D02*
X15311190Y-19515870D01*
X21715000Y-14865000D02*
X21714800Y-14869900D01*
X12106570Y-20492780D02*
X12103650Y-20496720D01*
X15315000Y-19065000D02*
X15314760Y-19069900D01*
X10469900Y-15285240D02*
X10474750Y-15285960D01*
X6076318Y-24398497D02*
X6086863Y-24386863D01*
X25101500Y-4576300D02*
X25113100Y-4586900D01*
X21684100Y-19488810D02*
X21688600Y-19490900D01*
X20069900Y-20514760D02*
X20065000Y-20515000D01*
X18515000Y-20465000D02*
X18514800Y-20469900D01*
X6546446Y-12053100D02*
X6531214Y-12056900D01*
X20092800Y-12493400D02*
X20096700Y-12496300D01*
X18242300Y-8429200D02*
X18210600Y-8215600D01*
X17485200Y-20469900D02*
X17485000Y-20465000D01*
X17511400Y-14909100D02*
X17507200Y-14906600D01*
X14290900Y-16288570D02*
X14288810Y-16284130D01*
X15314760Y-19069900D02*
X15314040Y-19074750D01*
X6352179Y-11838800D02*
X6358893Y-11824600D01*
X25353100Y-4130400D02*
X25316100Y-4117200D01*
X13700360Y-12499600D02*
X13703650Y-12503300D01*
X6353110Y-4746400D02*
X6347821Y-4761200D01*
X15303650Y-19096720D02*
X15300360Y-19100360D01*
X12114760Y-14869900D02*
X12114040Y-14874800D01*
X22460900Y-9376500D02*
X22451100Y-9362400D01*
X21622300Y-9829200D02*
X21437100Y-9940200D01*
X5746243Y-25009204D02*
X5777772Y-25032588D01*
X14285960Y-20474750D02*
X14285240Y-20469900D01*
X15600000Y-12060000D02*
X15584320Y-12059200D01*
X10506570Y-18107220D02*
X10509100Y-18111430D01*
X20688800Y-17684130D02*
X20687200Y-17679510D01*
X6376318Y-12001500D02*
X6366965Y-11988900D01*
X12725250Y-19114040D02*
X12720490Y-19112850D01*
X12687150Y-20479510D02*
X12685960Y-20474750D01*
X11085240Y-20469900D02*
X11085000Y-20465000D01*
X22311400Y-20509100D02*
X22307200Y-20506570D01*
X23758300Y-23164710D02*
X23760000Y-23200000D01*
X18514800Y-17669900D02*
X18514000Y-17674750D01*
X25147800Y-24561229D02*
X25141100Y-24575423D01*
X6098497Y-24623682D02*
X6086863Y-24613137D01*
X22100600Y-6604300D02*
X22229200Y-6777700D01*
X24953600Y-4853100D02*
X24938800Y-4847800D01*
X21669900Y-16685240D02*
X21674800Y-16685960D01*
X6261229Y-4847800D02*
X6246446Y-4853100D01*
X6040000Y-4700000D02*
X6040770Y-4684300D01*
X15300360Y-15299640D02*
X15303650Y-15303280D01*
X20114800Y-16730100D02*
X20115000Y-16735000D01*
X18206000Y-9444900D02*
X18188800Y-9444600D01*
X20688800Y-14884100D02*
X20687200Y-14879500D01*
X10492780Y-18093430D02*
X10496720Y-18096350D01*
X12096720Y-20503650D02*
X12092780Y-20506570D01*
X22320500Y-13887200D02*
X22325200Y-13886000D01*
X11600000Y-24010000D02*
X11520610Y-24006100D01*
X6352179Y-21038770D02*
X6358893Y-21024580D01*
X13700360Y-20500360D02*
X13696720Y-20503650D01*
X17493400Y-14892800D02*
X17490900Y-14888600D01*
X24823700Y-11798500D02*
X24833000Y-11811100D01*
X10512850Y-12520500D02*
X10514040Y-12525200D01*
X11135000Y-19115000D02*
X11130100Y-19114760D01*
X7178810Y-10944100D02*
X7177150Y-10939500D01*
X15452180Y-21038770D02*
X15458890Y-21024580D01*
X17530100Y-17714760D02*
X17525200Y-17714040D01*
X13696720Y-13503700D02*
X13692780Y-13506600D01*
X24846900Y-4653600D02*
X24852200Y-4638800D01*
X20103700Y-16703280D02*
X20106600Y-16707220D01*
X18506600Y-16707220D02*
X18509100Y-16711430D01*
X15288570Y-16309100D02*
X15284130Y-16311190D01*
X15314760Y-20469900D02*
X15314040Y-20474750D01*
X10492780Y-20506570D02*
X10488570Y-20509100D01*
X20100700Y-23400010D02*
X20082500Y-23369700D01*
X24846900Y-24453554D02*
X24852200Y-24438771D01*
X20685000Y-14865000D02*
X20685000Y-13935000D01*
X15713100Y-12013100D02*
X15701500Y-12023700D01*
X9530100Y-18085240D02*
X9535000Y-18085000D01*
X15314760Y-19530100D02*
X15315000Y-19535000D01*
X11290030Y-23948340D02*
X11218170Y-23914360D01*
X13714760Y-12530100D02*
X13715000Y-12535000D01*
X23041700Y-23235290D02*
X23040000Y-23200000D01*
X13712850Y-20479510D02*
X13711190Y-20484130D01*
X6353110Y-24546446D02*
X6347821Y-24561229D01*
X12113860Y-23826140D02*
X12050010Y-23873490D01*
X15476320Y-21201500D02*
X15466960Y-21188890D01*
X18479500Y-17712850D02*
X18474800Y-17714040D01*
X22424800Y-9264300D02*
X22426200Y-9247200D01*
X17525200Y-17714040D02*
X17520500Y-17712850D01*
X21696700Y-12496300D02*
X21700400Y-12499600D01*
X18025400Y-9275700D02*
X18025700Y-9258600D01*
X5600000Y-24700000D02*
X5601926Y-24739207D01*
X20685200Y-19530100D02*
X20686000Y-19525250D01*
X21700400Y-13899600D02*
X21703700Y-13903300D01*
X16010400Y-10960400D02*
X16006700Y-10963700D01*
X14303280Y-16303650D02*
X14299640Y-16300360D01*
X18496700Y-13896300D02*
X18500400Y-13899600D01*
X7178810Y-5055900D02*
X7180900Y-5051400D01*
X12699640Y-16300360D02*
X12696350Y-16296720D01*
X15553550Y-21253110D02*
X15538770Y-21247820D01*
X14285960Y-15325250D02*
X14287150Y-15320490D01*
X25156900Y-24531214D02*
X25153100Y-24546446D01*
X14285960Y-12525200D02*
X14287150Y-12520500D01*
X20561700Y-5527000D02*
X20554300Y-5542500D01*
X13714040Y-16274750D02*
X13712850Y-16279510D01*
X10484130Y-15288810D02*
X10488570Y-15290900D01*
X13665000Y-19485000D02*
X13669900Y-19485240D01*
X6086863Y-4813100D02*
X6076318Y-4801500D01*
X25113100Y-4586900D02*
X25123700Y-4598500D01*
X12069900Y-13885200D02*
X12074750Y-13886000D01*
X23067400Y-23337770D02*
X23055500Y-23304500D01*
X20092800Y-13506600D02*
X20088600Y-13509100D01*
X11085240Y-14869900D02*
X11085000Y-14865000D01*
X23265000Y-14915000D02*
X22335000Y-14915000D01*
X10512850Y-19520490D02*
X10514040Y-19525250D01*
X11085240Y-18130100D02*
X11085960Y-18125250D01*
X8869900Y-19114760D02*
X8865000Y-19115000D01*
X8879510Y-19487150D02*
X8884130Y-19488810D01*
X17525200Y-14914000D02*
X17520500Y-14912800D01*
X20690900Y-20488570D02*
X20688800Y-20484130D01*
X15440770Y-21084320D02*
X15443070Y-21068790D01*
X24886900Y-4813100D02*
X24876300Y-4801500D01*
X14290030Y-23948340D02*
X14218170Y-23914360D01*
X7888810Y-13915900D02*
X7890900Y-13911400D01*
X25088900Y-4567000D02*
X25101500Y-4576300D01*
X7793900Y-23279390D02*
X7790000Y-23200000D01*
X7210490Y-5027200D02*
X7215250Y-5026000D01*
X21703700Y-14896700D02*
X21700400Y-14900400D01*
X14299640Y-16300360D02*
X14296350Y-16296720D01*
X24552200Y-11961200D02*
X24546900Y-11946400D01*
X22701600Y-9127800D02*
X22715100Y-9138400D01*
X12696350Y-12503300D02*
X12699640Y-12499600D01*
X9503280Y-19103650D02*
X9499640Y-19100360D01*
X17485200Y-14869900D02*
X17485000Y-14865000D01*
X9490900Y-13488600D02*
X9488810Y-13484100D01*
X23717500Y-23369700D02*
X23699300Y-23400010D01*
X21679500Y-13512800D02*
X21674800Y-13514000D01*
X20074800Y-14914000D02*
X20069900Y-14914800D01*
X25147800Y-4761200D02*
X25141100Y-4775400D01*
X15311190Y-15315870D02*
X15312850Y-15320490D01*
X12100360Y-19100360D02*
X12096720Y-19103650D01*
X20567500Y-5409200D02*
X20571600Y-5425900D01*
X19096300Y-17696720D02*
X19093400Y-17692780D01*
X5837619Y-25422524D02*
X5837619Y-25222524D01*
X5837619Y-25222524D02*
X5885238Y-25222524D01*
X5885238Y-25222524D02*
X5913809Y-25232048D01*
X5913809Y-25232048D02*
X5932857Y-25251095D01*
X5932857Y-25251095D02*
X5942381Y-25270143D01*
X5942381Y-25270143D02*
X5951905Y-25308238D01*
X5951905Y-25308238D02*
X5951905Y-25336809D01*
X5951905Y-25336809D02*
X5942381Y-25374905D01*
X5942381Y-25374905D02*
X5932857Y-25393952D01*
X5932857Y-25393952D02*
X5913809Y-25413000D01*
X5913809Y-25413000D02*
X5885238Y-25422524D01*
X5885238Y-25422524D02*
X5837619Y-25422524D01*
X6037619Y-25422524D02*
X6037619Y-25289190D01*
X6037619Y-25327286D02*
X6047143Y-25308238D01*
X6047143Y-25308238D02*
X6056667Y-25298714D01*
X6056667Y-25298714D02*
X6075714Y-25289190D01*
X6075714Y-25289190D02*
X6094762Y-25289190D01*
X6161428Y-25422524D02*
X6161428Y-25289190D01*
X6161428Y-25222524D02*
X6151905Y-25232048D01*
X6151905Y-25232048D02*
X6161428Y-25241571D01*
X6161428Y-25241571D02*
X6170952Y-25232048D01*
X6170952Y-25232048D02*
X6161428Y-25222524D01*
X6161428Y-25222524D02*
X6161428Y-25241571D01*
X6285238Y-25422524D02*
X6266190Y-25413000D01*
X6266190Y-25413000D02*
X6256667Y-25393952D01*
X6256667Y-25393952D02*
X6256667Y-25222524D01*
X6390000Y-25422524D02*
X6370952Y-25413000D01*
X6370952Y-25413000D02*
X6361428Y-25393952D01*
X6361428Y-25393952D02*
X6361428Y-25222524D01*
X6618571Y-25422524D02*
X6618571Y-25222524D01*
X6618571Y-25222524D02*
X6685238Y-25365381D01*
X6685238Y-25365381D02*
X6751905Y-25222524D01*
X6751905Y-25222524D02*
X6751905Y-25422524D01*
X6932857Y-25422524D02*
X6932857Y-25317762D01*
X6932857Y-25317762D02*
X6923333Y-25298714D01*
X6923333Y-25298714D02*
X6904286Y-25289190D01*
X6904286Y-25289190D02*
X6866190Y-25289190D01*
X6866190Y-25289190D02*
X6847143Y-25298714D01*
X6932857Y-25413000D02*
X6913809Y-25422524D01*
X6913809Y-25422524D02*
X6866190Y-25422524D01*
X6866190Y-25422524D02*
X6847143Y-25413000D01*
X6847143Y-25413000D02*
X6837619Y-25393952D01*
X6837619Y-25393952D02*
X6837619Y-25374905D01*
X6837619Y-25374905D02*
X6847143Y-25355857D01*
X6847143Y-25355857D02*
X6866190Y-25346333D01*
X6866190Y-25346333D02*
X6913809Y-25346333D01*
X6913809Y-25346333D02*
X6932857Y-25336809D01*
X7028095Y-25289190D02*
X7028095Y-25489190D01*
X7028095Y-25298714D02*
X7047143Y-25289190D01*
X7047143Y-25289190D02*
X7085238Y-25289190D01*
X7085238Y-25289190D02*
X7104286Y-25298714D01*
X7104286Y-25298714D02*
X7113809Y-25308238D01*
X7113809Y-25308238D02*
X7123333Y-25327286D01*
X7123333Y-25327286D02*
X7123333Y-25384428D01*
X7123333Y-25384428D02*
X7113809Y-25403476D01*
X7113809Y-25403476D02*
X7104286Y-25413000D01*
X7104286Y-25413000D02*
X7085238Y-25422524D01*
X7085238Y-25422524D02*
X7047143Y-25422524D01*
X7047143Y-25422524D02*
X7028095Y-25413000D01*
X7209048Y-25403476D02*
X7218571Y-25413000D01*
X7218571Y-25413000D02*
X7209048Y-25422524D01*
X7209048Y-25422524D02*
X7199524Y-25413000D01*
X7199524Y-25413000D02*
X7209048Y-25403476D01*
X7209048Y-25403476D02*
X7209048Y-25422524D01*
X7209048Y-25298714D02*
X7218571Y-25308238D01*
X7218571Y-25308238D02*
X7209048Y-25317762D01*
X7209048Y-25317762D02*
X7199524Y-25308238D01*
X7199524Y-25308238D02*
X7209048Y-25298714D01*
X7209048Y-25298714D02*
X7209048Y-25317762D01*
M02*
