%TF.GenerationSoftware,KiCad,Pcbnew,7.0.2-1.fc37*%
%TF.CreationDate,2023-04-28T11:32:21+01:00*%
%TF.ProjectId,grblPANEL_210x200_Front_Panel,6772626c-5041-44e4-954c-5f3231307832,A*%
%TF.SameCoordinates,Original*%
%TF.FileFunction,Legend,Bot*%
%TF.FilePolarity,Positive*%
%FSLAX46Y46*%
G04 Gerber Fmt 4.6, Leading zero omitted, Abs format (unit mm)*
G04 Created by KiCad (PCBNEW 7.0.2-1.fc37) date 2023-04-28 11:32:21*
%MOMM*%
%LPD*%
G01*
G04 APERTURE LIST*
%ADD10C,0.500000*%
%ADD11C,0.002540*%
G04 APERTURE END LIST*
D10*
X170102142Y-46345238D02*
X170245000Y-46226190D01*
X170245000Y-46226190D02*
X170387857Y-45869048D01*
X170387857Y-45869048D02*
X170387857Y-45630952D01*
X170387857Y-45630952D02*
X170245000Y-45273809D01*
X170245000Y-45273809D02*
X169959285Y-45035714D01*
X169959285Y-45035714D02*
X169673571Y-44916667D01*
X169673571Y-44916667D02*
X169102142Y-44797619D01*
X169102142Y-44797619D02*
X168673571Y-44797619D01*
X168673571Y-44797619D02*
X168102142Y-44916667D01*
X168102142Y-44916667D02*
X167816428Y-45035714D01*
X167816428Y-45035714D02*
X167530714Y-45273809D01*
X167530714Y-45273809D02*
X167387857Y-45630952D01*
X167387857Y-45630952D02*
X167387857Y-45869048D01*
X167387857Y-45869048D02*
X167530714Y-46226190D01*
X167530714Y-46226190D02*
X167673571Y-46345238D01*
X170102142Y-48845238D02*
X170245000Y-48726190D01*
X170245000Y-48726190D02*
X170387857Y-48369048D01*
X170387857Y-48369048D02*
X170387857Y-48130952D01*
X170387857Y-48130952D02*
X170245000Y-47773809D01*
X170245000Y-47773809D02*
X169959285Y-47535714D01*
X169959285Y-47535714D02*
X169673571Y-47416667D01*
X169673571Y-47416667D02*
X169102142Y-47297619D01*
X169102142Y-47297619D02*
X168673571Y-47297619D01*
X168673571Y-47297619D02*
X168102142Y-47416667D01*
X168102142Y-47416667D02*
X167816428Y-47535714D01*
X167816428Y-47535714D02*
X167530714Y-47773809D01*
X167530714Y-47773809D02*
X167387857Y-48130952D01*
X167387857Y-48130952D02*
X167387857Y-48369048D01*
X167387857Y-48369048D02*
X167530714Y-48726190D01*
X167530714Y-48726190D02*
X167673571Y-48845238D01*
X169245000Y-49916667D02*
X169245000Y-51821429D01*
X168816428Y-53845238D02*
X168959285Y-54202381D01*
X168959285Y-54202381D02*
X169102142Y-54321428D01*
X169102142Y-54321428D02*
X169387857Y-54440476D01*
X169387857Y-54440476D02*
X169816428Y-54440476D01*
X169816428Y-54440476D02*
X170102142Y-54321428D01*
X170102142Y-54321428D02*
X170245000Y-54202381D01*
X170245000Y-54202381D02*
X170387857Y-53964286D01*
X170387857Y-53964286D02*
X170387857Y-53011905D01*
X170387857Y-53011905D02*
X167387857Y-53011905D01*
X167387857Y-53011905D02*
X167387857Y-53845238D01*
X167387857Y-53845238D02*
X167530714Y-54083333D01*
X167530714Y-54083333D02*
X167673571Y-54202381D01*
X167673571Y-54202381D02*
X167959285Y-54321428D01*
X167959285Y-54321428D02*
X168245000Y-54321428D01*
X168245000Y-54321428D02*
X168530714Y-54202381D01*
X168530714Y-54202381D02*
X168673571Y-54083333D01*
X168673571Y-54083333D02*
X168816428Y-53845238D01*
X168816428Y-53845238D02*
X168816428Y-53011905D01*
X168959285Y-55988095D02*
X170387857Y-55988095D01*
X167387857Y-55154762D02*
X168959285Y-55988095D01*
X168959285Y-55988095D02*
X167387857Y-56821428D01*
X169245000Y-57654762D02*
X169245000Y-59559524D01*
X170245000Y-60630952D02*
X170387857Y-60988095D01*
X170387857Y-60988095D02*
X170387857Y-61583333D01*
X170387857Y-61583333D02*
X170245000Y-61821428D01*
X170245000Y-61821428D02*
X170102142Y-61940476D01*
X170102142Y-61940476D02*
X169816428Y-62059523D01*
X169816428Y-62059523D02*
X169530714Y-62059523D01*
X169530714Y-62059523D02*
X169245000Y-61940476D01*
X169245000Y-61940476D02*
X169102142Y-61821428D01*
X169102142Y-61821428D02*
X168959285Y-61583333D01*
X168959285Y-61583333D02*
X168816428Y-61107142D01*
X168816428Y-61107142D02*
X168673571Y-60869047D01*
X168673571Y-60869047D02*
X168530714Y-60750000D01*
X168530714Y-60750000D02*
X168245000Y-60630952D01*
X168245000Y-60630952D02*
X167959285Y-60630952D01*
X167959285Y-60630952D02*
X167673571Y-60750000D01*
X167673571Y-60750000D02*
X167530714Y-60869047D01*
X167530714Y-60869047D02*
X167387857Y-61107142D01*
X167387857Y-61107142D02*
X167387857Y-61702381D01*
X167387857Y-61702381D02*
X167530714Y-62059523D01*
X169530714Y-63011904D02*
X169530714Y-64202380D01*
X170387857Y-62773809D02*
X167387857Y-63607142D01*
X167387857Y-63607142D02*
X170387857Y-64440475D01*
X238527857Y-76202380D02*
X240956428Y-76202380D01*
X240956428Y-76202380D02*
X241242142Y-76083333D01*
X241242142Y-76083333D02*
X241385000Y-75964285D01*
X241385000Y-75964285D02*
X241527857Y-75726190D01*
X241527857Y-75726190D02*
X241527857Y-75369047D01*
X241527857Y-75369047D02*
X241385000Y-75130952D01*
X240385000Y-76202380D02*
X240527857Y-75964285D01*
X240527857Y-75964285D02*
X240527857Y-75488094D01*
X240527857Y-75488094D02*
X240385000Y-75249999D01*
X240385000Y-75249999D02*
X240242142Y-75130952D01*
X240242142Y-75130952D02*
X239956428Y-75011904D01*
X239956428Y-75011904D02*
X239099285Y-75011904D01*
X239099285Y-75011904D02*
X238813571Y-75130952D01*
X238813571Y-75130952D02*
X238670714Y-75249999D01*
X238670714Y-75249999D02*
X238527857Y-75488094D01*
X238527857Y-75488094D02*
X238527857Y-75964285D01*
X238527857Y-75964285D02*
X238670714Y-76202380D01*
X240527857Y-77392857D02*
X238527857Y-77392857D01*
X239099285Y-77392857D02*
X238813571Y-77511904D01*
X238813571Y-77511904D02*
X238670714Y-77630952D01*
X238670714Y-77630952D02*
X238527857Y-77869047D01*
X238527857Y-77869047D02*
X238527857Y-78107142D01*
X240527857Y-78940476D02*
X237527857Y-78940476D01*
X238670714Y-78940476D02*
X238527857Y-79178571D01*
X238527857Y-79178571D02*
X238527857Y-79654761D01*
X238527857Y-79654761D02*
X238670714Y-79892857D01*
X238670714Y-79892857D02*
X238813571Y-80011904D01*
X238813571Y-80011904D02*
X239099285Y-80130952D01*
X239099285Y-80130952D02*
X239956428Y-80130952D01*
X239956428Y-80130952D02*
X240242142Y-80011904D01*
X240242142Y-80011904D02*
X240385000Y-79892857D01*
X240385000Y-79892857D02*
X240527857Y-79654761D01*
X240527857Y-79654761D02*
X240527857Y-79178571D01*
X240527857Y-79178571D02*
X240385000Y-78940476D01*
X240527857Y-81559523D02*
X240385000Y-81321428D01*
X240385000Y-81321428D02*
X240099285Y-81202381D01*
X240099285Y-81202381D02*
X237527857Y-81202381D01*
X240527857Y-82511905D02*
X237527857Y-82511905D01*
X237527857Y-82511905D02*
X237527857Y-83464286D01*
X237527857Y-83464286D02*
X237670714Y-83702381D01*
X237670714Y-83702381D02*
X237813571Y-83821428D01*
X237813571Y-83821428D02*
X238099285Y-83940476D01*
X238099285Y-83940476D02*
X238527857Y-83940476D01*
X238527857Y-83940476D02*
X238813571Y-83821428D01*
X238813571Y-83821428D02*
X238956428Y-83702381D01*
X238956428Y-83702381D02*
X239099285Y-83464286D01*
X239099285Y-83464286D02*
X239099285Y-82511905D01*
X239670714Y-84892857D02*
X239670714Y-86083333D01*
X240527857Y-84654762D02*
X237527857Y-85488095D01*
X237527857Y-85488095D02*
X240527857Y-86321428D01*
X240527857Y-87154762D02*
X237527857Y-87154762D01*
X237527857Y-87154762D02*
X240527857Y-88583333D01*
X240527857Y-88583333D02*
X237527857Y-88583333D01*
X238956428Y-89773810D02*
X238956428Y-90607143D01*
X240527857Y-90964286D02*
X240527857Y-89773810D01*
X240527857Y-89773810D02*
X237527857Y-89773810D01*
X237527857Y-89773810D02*
X237527857Y-90964286D01*
X240527857Y-93226191D02*
X240527857Y-92035715D01*
X240527857Y-92035715D02*
X237527857Y-92035715D01*
X245387857Y-71202381D02*
X243959285Y-70369048D01*
X245387857Y-69773810D02*
X242387857Y-69773810D01*
X242387857Y-69773810D02*
X242387857Y-70726191D01*
X242387857Y-70726191D02*
X242530714Y-70964286D01*
X242530714Y-70964286D02*
X242673571Y-71083333D01*
X242673571Y-71083333D02*
X242959285Y-71202381D01*
X242959285Y-71202381D02*
X243387857Y-71202381D01*
X243387857Y-71202381D02*
X243673571Y-71083333D01*
X243673571Y-71083333D02*
X243816428Y-70964286D01*
X243816428Y-70964286D02*
X243959285Y-70726191D01*
X243959285Y-70726191D02*
X243959285Y-69773810D01*
X245245000Y-73226191D02*
X245387857Y-72988095D01*
X245387857Y-72988095D02*
X245387857Y-72511905D01*
X245387857Y-72511905D02*
X245245000Y-72273810D01*
X245245000Y-72273810D02*
X244959285Y-72154762D01*
X244959285Y-72154762D02*
X243816428Y-72154762D01*
X243816428Y-72154762D02*
X243530714Y-72273810D01*
X243530714Y-72273810D02*
X243387857Y-72511905D01*
X243387857Y-72511905D02*
X243387857Y-72988095D01*
X243387857Y-72988095D02*
X243530714Y-73226191D01*
X243530714Y-73226191D02*
X243816428Y-73345238D01*
X243816428Y-73345238D02*
X244102142Y-73345238D01*
X244102142Y-73345238D02*
X244387857Y-72154762D01*
X243387857Y-74178571D02*
X245387857Y-74773809D01*
X245387857Y-74773809D02*
X243387857Y-75369048D01*
X244530714Y-78107143D02*
X244530714Y-79297619D01*
X245387857Y-77869048D02*
X242387857Y-78702381D01*
X242387857Y-78702381D02*
X245387857Y-79535714D01*
X244245000Y-82273810D02*
X244245000Y-84178572D01*
X242387857Y-87750000D02*
X242387857Y-87988095D01*
X242387857Y-87988095D02*
X242530714Y-88226191D01*
X242530714Y-88226191D02*
X242673571Y-88345238D01*
X242673571Y-88345238D02*
X242959285Y-88464286D01*
X242959285Y-88464286D02*
X243530714Y-88583333D01*
X243530714Y-88583333D02*
X244245000Y-88583333D01*
X244245000Y-88583333D02*
X244816428Y-88464286D01*
X244816428Y-88464286D02*
X245102142Y-88345238D01*
X245102142Y-88345238D02*
X245245000Y-88226191D01*
X245245000Y-88226191D02*
X245387857Y-87988095D01*
X245387857Y-87988095D02*
X245387857Y-87750000D01*
X245387857Y-87750000D02*
X245245000Y-87511905D01*
X245245000Y-87511905D02*
X245102142Y-87392857D01*
X245102142Y-87392857D02*
X244816428Y-87273810D01*
X244816428Y-87273810D02*
X244245000Y-87154762D01*
X244245000Y-87154762D02*
X243530714Y-87154762D01*
X243530714Y-87154762D02*
X242959285Y-87273810D01*
X242959285Y-87273810D02*
X242673571Y-87392857D01*
X242673571Y-87392857D02*
X242530714Y-87511905D01*
X242530714Y-87511905D02*
X242387857Y-87750000D01*
X243387857Y-90726190D02*
X245387857Y-90726190D01*
X242245000Y-90130952D02*
X244387857Y-89535714D01*
X244387857Y-89535714D02*
X244387857Y-91083333D01*
X242245000Y-93821428D02*
X246102142Y-91678571D01*
X242673571Y-94535714D02*
X242530714Y-94654762D01*
X242530714Y-94654762D02*
X242387857Y-94892857D01*
X242387857Y-94892857D02*
X242387857Y-95488095D01*
X242387857Y-95488095D02*
X242530714Y-95726190D01*
X242530714Y-95726190D02*
X242673571Y-95845238D01*
X242673571Y-95845238D02*
X242959285Y-95964285D01*
X242959285Y-95964285D02*
X243245000Y-95964285D01*
X243245000Y-95964285D02*
X243673571Y-95845238D01*
X243673571Y-95845238D02*
X245387857Y-94416666D01*
X245387857Y-94416666D02*
X245387857Y-95964285D01*
X242387857Y-96797618D02*
X242387857Y-98345237D01*
X242387857Y-98345237D02*
X243530714Y-97511904D01*
X243530714Y-97511904D02*
X243530714Y-97869047D01*
X243530714Y-97869047D02*
X243673571Y-98107142D01*
X243673571Y-98107142D02*
X243816428Y-98226190D01*
X243816428Y-98226190D02*
X244102142Y-98345237D01*
X244102142Y-98345237D02*
X244816428Y-98345237D01*
X244816428Y-98345237D02*
X245102142Y-98226190D01*
X245102142Y-98226190D02*
X245245000Y-98107142D01*
X245245000Y-98107142D02*
X245387857Y-97869047D01*
X245387857Y-97869047D02*
X245387857Y-97154761D01*
X245387857Y-97154761D02*
X245245000Y-96916666D01*
X245245000Y-96916666D02*
X245102142Y-96797618D01*
X248247857Y-57095236D02*
X250676428Y-57095236D01*
X250676428Y-57095236D02*
X250962142Y-56976189D01*
X250962142Y-56976189D02*
X251105000Y-56857141D01*
X251105000Y-56857141D02*
X251247857Y-56619046D01*
X251247857Y-56619046D02*
X251247857Y-56261903D01*
X251247857Y-56261903D02*
X251105000Y-56023808D01*
X250105000Y-57095236D02*
X250247857Y-56857141D01*
X250247857Y-56857141D02*
X250247857Y-56380950D01*
X250247857Y-56380950D02*
X250105000Y-56142855D01*
X250105000Y-56142855D02*
X249962142Y-56023808D01*
X249962142Y-56023808D02*
X249676428Y-55904760D01*
X249676428Y-55904760D02*
X248819285Y-55904760D01*
X248819285Y-55904760D02*
X248533571Y-56023808D01*
X248533571Y-56023808D02*
X248390714Y-56142855D01*
X248390714Y-56142855D02*
X248247857Y-56380950D01*
X248247857Y-56380950D02*
X248247857Y-56857141D01*
X248247857Y-56857141D02*
X248390714Y-57095236D01*
X250247857Y-58285713D02*
X248247857Y-58285713D01*
X247247857Y-58285713D02*
X247390714Y-58166665D01*
X247390714Y-58166665D02*
X247533571Y-58285713D01*
X247533571Y-58285713D02*
X247390714Y-58404760D01*
X247390714Y-58404760D02*
X247247857Y-58285713D01*
X247247857Y-58285713D02*
X247533571Y-58285713D01*
X248247857Y-59119046D02*
X248247857Y-60071427D01*
X247247857Y-59476189D02*
X249819285Y-59476189D01*
X249819285Y-59476189D02*
X250105000Y-59595236D01*
X250105000Y-59595236D02*
X250247857Y-59833331D01*
X250247857Y-59833331D02*
X250247857Y-60071427D01*
X250247857Y-60904760D02*
X247247857Y-60904760D01*
X250247857Y-61976188D02*
X248676428Y-61976188D01*
X248676428Y-61976188D02*
X248390714Y-61857141D01*
X248390714Y-61857141D02*
X248247857Y-61619045D01*
X248247857Y-61619045D02*
X248247857Y-61261902D01*
X248247857Y-61261902D02*
X248390714Y-61023807D01*
X248390714Y-61023807D02*
X248533571Y-60904760D01*
X248247857Y-64238093D02*
X250247857Y-64238093D01*
X248247857Y-63166665D02*
X249819285Y-63166665D01*
X249819285Y-63166665D02*
X250105000Y-63285712D01*
X250105000Y-63285712D02*
X250247857Y-63523807D01*
X250247857Y-63523807D02*
X250247857Y-63880950D01*
X250247857Y-63880950D02*
X250105000Y-64119046D01*
X250105000Y-64119046D02*
X249962142Y-64238093D01*
X250247857Y-65428570D02*
X247247857Y-65428570D01*
X248390714Y-65428570D02*
X248247857Y-65666665D01*
X248247857Y-65666665D02*
X248247857Y-66142855D01*
X248247857Y-66142855D02*
X248390714Y-66380951D01*
X248390714Y-66380951D02*
X248533571Y-66499998D01*
X248533571Y-66499998D02*
X248819285Y-66619046D01*
X248819285Y-66619046D02*
X249676428Y-66619046D01*
X249676428Y-66619046D02*
X249962142Y-66499998D01*
X249962142Y-66499998D02*
X250105000Y-66380951D01*
X250105000Y-66380951D02*
X250247857Y-66142855D01*
X250247857Y-66142855D02*
X250247857Y-65666665D01*
X250247857Y-65666665D02*
X250105000Y-65428570D01*
X249962142Y-67690475D02*
X250105000Y-67809522D01*
X250105000Y-67809522D02*
X250247857Y-67690475D01*
X250247857Y-67690475D02*
X250105000Y-67571427D01*
X250105000Y-67571427D02*
X249962142Y-67690475D01*
X249962142Y-67690475D02*
X250247857Y-67690475D01*
X250105000Y-69952379D02*
X250247857Y-69714284D01*
X250247857Y-69714284D02*
X250247857Y-69238093D01*
X250247857Y-69238093D02*
X250105000Y-68999998D01*
X250105000Y-68999998D02*
X249962142Y-68880951D01*
X249962142Y-68880951D02*
X249676428Y-68761903D01*
X249676428Y-68761903D02*
X248819285Y-68761903D01*
X248819285Y-68761903D02*
X248533571Y-68880951D01*
X248533571Y-68880951D02*
X248390714Y-68999998D01*
X248390714Y-68999998D02*
X248247857Y-69238093D01*
X248247857Y-69238093D02*
X248247857Y-69714284D01*
X248247857Y-69714284D02*
X248390714Y-69952379D01*
X250247857Y-71380950D02*
X250105000Y-71142855D01*
X250105000Y-71142855D02*
X249962142Y-71023808D01*
X249962142Y-71023808D02*
X249676428Y-70904760D01*
X249676428Y-70904760D02*
X248819285Y-70904760D01*
X248819285Y-70904760D02*
X248533571Y-71023808D01*
X248533571Y-71023808D02*
X248390714Y-71142855D01*
X248390714Y-71142855D02*
X248247857Y-71380950D01*
X248247857Y-71380950D02*
X248247857Y-71738093D01*
X248247857Y-71738093D02*
X248390714Y-71976189D01*
X248390714Y-71976189D02*
X248533571Y-72095236D01*
X248533571Y-72095236D02*
X248819285Y-72214284D01*
X248819285Y-72214284D02*
X249676428Y-72214284D01*
X249676428Y-72214284D02*
X249962142Y-72095236D01*
X249962142Y-72095236D02*
X250105000Y-71976189D01*
X250105000Y-71976189D02*
X250247857Y-71738093D01*
X250247857Y-71738093D02*
X250247857Y-71380950D01*
X250247857Y-73285713D02*
X248247857Y-73285713D01*
X248533571Y-73285713D02*
X248390714Y-73404760D01*
X248390714Y-73404760D02*
X248247857Y-73642855D01*
X248247857Y-73642855D02*
X248247857Y-73999998D01*
X248247857Y-73999998D02*
X248390714Y-74238094D01*
X248390714Y-74238094D02*
X248676428Y-74357141D01*
X248676428Y-74357141D02*
X250247857Y-74357141D01*
X248676428Y-74357141D02*
X248390714Y-74476189D01*
X248390714Y-74476189D02*
X248247857Y-74714284D01*
X248247857Y-74714284D02*
X248247857Y-75071427D01*
X248247857Y-75071427D02*
X248390714Y-75309522D01*
X248390714Y-75309522D02*
X248676428Y-75428570D01*
X248676428Y-75428570D02*
X250247857Y-75428570D01*
X247105000Y-78404760D02*
X250962142Y-76261903D01*
X250247857Y-80309522D02*
X247247857Y-80309522D01*
X250105000Y-80309522D02*
X250247857Y-80071427D01*
X250247857Y-80071427D02*
X250247857Y-79595236D01*
X250247857Y-79595236D02*
X250105000Y-79357141D01*
X250105000Y-79357141D02*
X249962142Y-79238094D01*
X249962142Y-79238094D02*
X249676428Y-79119046D01*
X249676428Y-79119046D02*
X248819285Y-79119046D01*
X248819285Y-79119046D02*
X248533571Y-79238094D01*
X248533571Y-79238094D02*
X248390714Y-79357141D01*
X248390714Y-79357141D02*
X248247857Y-79595236D01*
X248247857Y-79595236D02*
X248247857Y-80071427D01*
X248247857Y-80071427D02*
X248390714Y-80309522D01*
X250247857Y-81499999D02*
X248247857Y-81499999D01*
X248819285Y-81499999D02*
X248533571Y-81619046D01*
X248533571Y-81619046D02*
X248390714Y-81738094D01*
X248390714Y-81738094D02*
X248247857Y-81976189D01*
X248247857Y-81976189D02*
X248247857Y-82214284D01*
X250105000Y-83999999D02*
X250247857Y-83761903D01*
X250247857Y-83761903D02*
X250247857Y-83285713D01*
X250247857Y-83285713D02*
X250105000Y-83047618D01*
X250105000Y-83047618D02*
X249819285Y-82928570D01*
X249819285Y-82928570D02*
X248676428Y-82928570D01*
X248676428Y-82928570D02*
X248390714Y-83047618D01*
X248390714Y-83047618D02*
X248247857Y-83285713D01*
X248247857Y-83285713D02*
X248247857Y-83761903D01*
X248247857Y-83761903D02*
X248390714Y-83999999D01*
X248390714Y-83999999D02*
X248676428Y-84119046D01*
X248676428Y-84119046D02*
X248962142Y-84119046D01*
X248962142Y-84119046D02*
X249247857Y-82928570D01*
X250105000Y-85071427D02*
X250247857Y-85309522D01*
X250247857Y-85309522D02*
X250247857Y-85785713D01*
X250247857Y-85785713D02*
X250105000Y-86023808D01*
X250105000Y-86023808D02*
X249819285Y-86142856D01*
X249819285Y-86142856D02*
X249676428Y-86142856D01*
X249676428Y-86142856D02*
X249390714Y-86023808D01*
X249390714Y-86023808D02*
X249247857Y-85785713D01*
X249247857Y-85785713D02*
X249247857Y-85428570D01*
X249247857Y-85428570D02*
X249105000Y-85190475D01*
X249105000Y-85190475D02*
X248819285Y-85071427D01*
X248819285Y-85071427D02*
X248676428Y-85071427D01*
X248676428Y-85071427D02*
X248390714Y-85190475D01*
X248390714Y-85190475D02*
X248247857Y-85428570D01*
X248247857Y-85428570D02*
X248247857Y-85785713D01*
X248247857Y-85785713D02*
X248390714Y-86023808D01*
X250105000Y-88285713D02*
X250247857Y-88047618D01*
X250247857Y-88047618D02*
X250247857Y-87571427D01*
X250247857Y-87571427D02*
X250105000Y-87333332D01*
X250105000Y-87333332D02*
X249962142Y-87214285D01*
X249962142Y-87214285D02*
X249676428Y-87095237D01*
X249676428Y-87095237D02*
X248819285Y-87095237D01*
X248819285Y-87095237D02*
X248533571Y-87214285D01*
X248533571Y-87214285D02*
X248390714Y-87333332D01*
X248390714Y-87333332D02*
X248247857Y-87571427D01*
X248247857Y-87571427D02*
X248247857Y-88047618D01*
X248247857Y-88047618D02*
X248390714Y-88285713D01*
X250247857Y-89714284D02*
X250105000Y-89476189D01*
X250105000Y-89476189D02*
X249962142Y-89357142D01*
X249962142Y-89357142D02*
X249676428Y-89238094D01*
X249676428Y-89238094D02*
X248819285Y-89238094D01*
X248819285Y-89238094D02*
X248533571Y-89357142D01*
X248533571Y-89357142D02*
X248390714Y-89476189D01*
X248390714Y-89476189D02*
X248247857Y-89714284D01*
X248247857Y-89714284D02*
X248247857Y-90071427D01*
X248247857Y-90071427D02*
X248390714Y-90309523D01*
X248390714Y-90309523D02*
X248533571Y-90428570D01*
X248533571Y-90428570D02*
X248819285Y-90547618D01*
X248819285Y-90547618D02*
X249676428Y-90547618D01*
X249676428Y-90547618D02*
X249962142Y-90428570D01*
X249962142Y-90428570D02*
X250105000Y-90309523D01*
X250105000Y-90309523D02*
X250247857Y-90071427D01*
X250247857Y-90071427D02*
X250247857Y-89714284D01*
X247105000Y-93404761D02*
X250962142Y-91261904D01*
X248247857Y-95309523D02*
X250676428Y-95309523D01*
X250676428Y-95309523D02*
X250962142Y-95190476D01*
X250962142Y-95190476D02*
X251105000Y-95071428D01*
X251105000Y-95071428D02*
X251247857Y-94833333D01*
X251247857Y-94833333D02*
X251247857Y-94476190D01*
X251247857Y-94476190D02*
X251105000Y-94238095D01*
X250105000Y-95309523D02*
X250247857Y-95071428D01*
X250247857Y-95071428D02*
X250247857Y-94595237D01*
X250247857Y-94595237D02*
X250105000Y-94357142D01*
X250105000Y-94357142D02*
X249962142Y-94238095D01*
X249962142Y-94238095D02*
X249676428Y-94119047D01*
X249676428Y-94119047D02*
X248819285Y-94119047D01*
X248819285Y-94119047D02*
X248533571Y-94238095D01*
X248533571Y-94238095D02*
X248390714Y-94357142D01*
X248390714Y-94357142D02*
X248247857Y-94595237D01*
X248247857Y-94595237D02*
X248247857Y-95071428D01*
X248247857Y-95071428D02*
X248390714Y-95309523D01*
X250247857Y-96500000D02*
X248247857Y-96500000D01*
X248819285Y-96500000D02*
X248533571Y-96619047D01*
X248533571Y-96619047D02*
X248390714Y-96738095D01*
X248390714Y-96738095D02*
X248247857Y-96976190D01*
X248247857Y-96976190D02*
X248247857Y-97214285D01*
X250247857Y-98047619D02*
X247247857Y-98047619D01*
X248390714Y-98047619D02*
X248247857Y-98285714D01*
X248247857Y-98285714D02*
X248247857Y-98761904D01*
X248247857Y-98761904D02*
X248390714Y-99000000D01*
X248390714Y-99000000D02*
X248533571Y-99119047D01*
X248533571Y-99119047D02*
X248819285Y-99238095D01*
X248819285Y-99238095D02*
X249676428Y-99238095D01*
X249676428Y-99238095D02*
X249962142Y-99119047D01*
X249962142Y-99119047D02*
X250105000Y-99000000D01*
X250105000Y-99000000D02*
X250247857Y-98761904D01*
X250247857Y-98761904D02*
X250247857Y-98285714D01*
X250247857Y-98285714D02*
X250105000Y-98047619D01*
X250247857Y-100666666D02*
X250105000Y-100428571D01*
X250105000Y-100428571D02*
X249819285Y-100309524D01*
X249819285Y-100309524D02*
X247247857Y-100309524D01*
X250247857Y-101619048D02*
X247247857Y-101619048D01*
X247247857Y-101619048D02*
X247247857Y-102571429D01*
X247247857Y-102571429D02*
X247390714Y-102809524D01*
X247390714Y-102809524D02*
X247533571Y-102928571D01*
X247533571Y-102928571D02*
X247819285Y-103047619D01*
X247819285Y-103047619D02*
X248247857Y-103047619D01*
X248247857Y-103047619D02*
X248533571Y-102928571D01*
X248533571Y-102928571D02*
X248676428Y-102809524D01*
X248676428Y-102809524D02*
X248819285Y-102571429D01*
X248819285Y-102571429D02*
X248819285Y-101619048D01*
X249390714Y-104000000D02*
X249390714Y-105190476D01*
X250247857Y-103761905D02*
X247247857Y-104595238D01*
X247247857Y-104595238D02*
X250247857Y-105428571D01*
X250247857Y-106261905D02*
X247247857Y-106261905D01*
X247247857Y-106261905D02*
X250247857Y-107690476D01*
X250247857Y-107690476D02*
X247247857Y-107690476D01*
X248676428Y-108880953D02*
X248676428Y-109714286D01*
X250247857Y-110071429D02*
X250247857Y-108880953D01*
X250247857Y-108880953D02*
X247247857Y-108880953D01*
X247247857Y-108880953D02*
X247247857Y-110071429D01*
X250247857Y-112333334D02*
X250247857Y-111142858D01*
X250247857Y-111142858D02*
X247247857Y-111142858D01*
%TO.C,G\u002A\u002A\u002A*%
D11*
X178325880Y-48998360D02*
X178341120Y-49059320D01*
X178376680Y-49211720D01*
X178419860Y-49430160D01*
X178468120Y-49684160D01*
X178508760Y-49902600D01*
X178549400Y-50123580D01*
X178579880Y-50281060D01*
X178595120Y-50352180D01*
X178617980Y-50369960D01*
X178724660Y-50423300D01*
X178894840Y-50502040D01*
X179098040Y-50588400D01*
X179308860Y-50677300D01*
X179504440Y-50753500D01*
X179651760Y-50809380D01*
X179730500Y-50829700D01*
X179786380Y-50799220D01*
X179915920Y-50715400D01*
X180101340Y-50593480D01*
X180319780Y-50446160D01*
X180538220Y-50296300D01*
X180723640Y-50169300D01*
X180858260Y-50082940D01*
X180919220Y-50044840D01*
X180962400Y-50062620D01*
X181066540Y-50151520D01*
X181239260Y-50316620D01*
X181480560Y-50560460D01*
X181518660Y-50601100D01*
X181706620Y-50796680D01*
X181859020Y-50961780D01*
X181960620Y-51076080D01*
X181998720Y-51126880D01*
X181968240Y-51185300D01*
X181886960Y-51314840D01*
X181765040Y-51500260D01*
X181617720Y-51721240D01*
X181467860Y-51942220D01*
X181345940Y-52122560D01*
X181264660Y-52249560D01*
X181236720Y-52302900D01*
X181246880Y-52330840D01*
X181297680Y-52434980D01*
X181376420Y-52587380D01*
X181422140Y-52676280D01*
X181480560Y-52815980D01*
X181493260Y-52884560D01*
X181475480Y-52897260D01*
X181368800Y-52948060D01*
X181185920Y-53026800D01*
X180944620Y-53133480D01*
X180662680Y-53252860D01*
X180357880Y-53382400D01*
X180048000Y-53511940D01*
X179750820Y-53633860D01*
X179484120Y-53743080D01*
X179268220Y-53829440D01*
X179118360Y-53887860D01*
X179052320Y-53908180D01*
X179039620Y-53903100D01*
X178971040Y-53831980D01*
X178879600Y-53710060D01*
X178666240Y-53448440D01*
X178341120Y-53186820D01*
X177972820Y-53029340D01*
X177563880Y-52976000D01*
X177182880Y-53021720D01*
X176817120Y-53171580D01*
X176489460Y-53425580D01*
X176245620Y-53732920D01*
X176090680Y-54093600D01*
X176042420Y-54500000D01*
X176085600Y-54888620D01*
X176232920Y-55259460D01*
X176481840Y-55589660D01*
X176641860Y-55726820D01*
X176974600Y-55917320D01*
X177330200Y-56026540D01*
X177421640Y-56039240D01*
X177812800Y-56021460D01*
X178186180Y-55907160D01*
X178521460Y-55701420D01*
X178795780Y-55414400D01*
X178823720Y-55378840D01*
X178922780Y-55244220D01*
X178991360Y-55155320D01*
X179047240Y-55086740D01*
X180246120Y-55584580D01*
X180436620Y-55663320D01*
X180764280Y-55800480D01*
X181046220Y-55919860D01*
X181269740Y-56016380D01*
X181419600Y-56082420D01*
X181480560Y-56112900D01*
X181483100Y-56115440D01*
X181490720Y-56158620D01*
X181457700Y-56250060D01*
X181376420Y-56417700D01*
X181320540Y-56529460D01*
X181259580Y-56656460D01*
X181236720Y-56712340D01*
X181262120Y-56760600D01*
X181340860Y-56882520D01*
X181460240Y-57060320D01*
X181607560Y-57276220D01*
X181744720Y-57479420D01*
X181869180Y-57667380D01*
X181955540Y-57804540D01*
X181991100Y-57870580D01*
X181991100Y-57880740D01*
X181958080Y-57939160D01*
X181869180Y-58045840D01*
X181714240Y-58210940D01*
X181485640Y-58442080D01*
X181452620Y-58477640D01*
X181259580Y-58665600D01*
X181097020Y-58820540D01*
X180982720Y-58924680D01*
X180929380Y-58960240D01*
X180863340Y-58927220D01*
X180728720Y-58840860D01*
X180538220Y-58716400D01*
X180314700Y-58564000D01*
X179738120Y-58167760D01*
X179194560Y-58386200D01*
X179029460Y-58452240D01*
X178826260Y-58538600D01*
X178681480Y-58602100D01*
X178617980Y-58632580D01*
X178597660Y-58693540D01*
X178562100Y-58840860D01*
X178516380Y-59056760D01*
X178468120Y-59315840D01*
X178424940Y-59559680D01*
X178381760Y-59780660D01*
X178351280Y-59943220D01*
X178336040Y-60014340D01*
X178325880Y-60032120D01*
X178292860Y-60044820D01*
X178216660Y-60054980D01*
X178082040Y-60060060D01*
X177868680Y-60062600D01*
X177563880Y-60062600D01*
X177530860Y-60062600D01*
X177236220Y-60060060D01*
X177005080Y-60054980D01*
X176850140Y-60047360D01*
X176791720Y-60037200D01*
X176789180Y-60037200D01*
X176773940Y-59968620D01*
X176740920Y-59811140D01*
X176697740Y-59590160D01*
X176646940Y-59326000D01*
X176644400Y-59308220D01*
X176593600Y-59046600D01*
X176547880Y-58825620D01*
X176512320Y-58670680D01*
X176492000Y-58604640D01*
X176471680Y-58591940D01*
X176370080Y-58538600D01*
X176207520Y-58462400D01*
X176006860Y-58376040D01*
X175801120Y-58289680D01*
X175615700Y-58216020D01*
X175476000Y-58165220D01*
X175412500Y-58149980D01*
X175412500Y-58152520D01*
X175349000Y-58190620D01*
X175211840Y-58282060D01*
X175021340Y-58409060D01*
X174797820Y-58564000D01*
X174782580Y-58574160D01*
X174559060Y-58726560D01*
X174371100Y-58848480D01*
X174236480Y-58929760D01*
X174175520Y-58960240D01*
X174172980Y-58960240D01*
X174106940Y-58909440D01*
X173979940Y-58797680D01*
X173809760Y-58635120D01*
X173614180Y-58439540D01*
X173553220Y-58378580D01*
X173342400Y-58162680D01*
X173202700Y-58010280D01*
X173129040Y-57918840D01*
X173113800Y-57873120D01*
X173113800Y-57870580D01*
X173154440Y-57804540D01*
X173245880Y-57664840D01*
X173375420Y-57474340D01*
X173530360Y-57248280D01*
X173540520Y-57233040D01*
X173690380Y-57009520D01*
X173817380Y-56824100D01*
X173903740Y-56692020D01*
X173939300Y-56636140D01*
X173939300Y-56625980D01*
X173911360Y-56534540D01*
X173855480Y-56377060D01*
X173781820Y-56181480D01*
X173698000Y-55975740D01*
X173619260Y-55790320D01*
X173555760Y-55648080D01*
X173517660Y-55582040D01*
X173515120Y-55582040D01*
X173436380Y-55556640D01*
X173268740Y-55518540D01*
X173040140Y-55472820D01*
X172768360Y-55419480D01*
X172722640Y-55411860D01*
X172458480Y-55361060D01*
X172240040Y-55317880D01*
X172087640Y-55287400D01*
X172026680Y-55272160D01*
X172016520Y-55234060D01*
X172006360Y-55104520D01*
X172001280Y-54906400D01*
X171998740Y-54667640D01*
X172001280Y-54416180D01*
X172006360Y-54169800D01*
X172013980Y-53958980D01*
X172024140Y-53809120D01*
X172036840Y-53748160D01*
X172039380Y-53745620D01*
X172123200Y-53722760D01*
X172288300Y-53684660D01*
X172519440Y-53638940D01*
X172793760Y-53585600D01*
X172842020Y-53575440D01*
X173106180Y-53527180D01*
X173322080Y-53481460D01*
X173471940Y-53450980D01*
X173530360Y-53433200D01*
X173543060Y-53410340D01*
X173591320Y-53301120D01*
X173664980Y-53123320D01*
X173753880Y-52904880D01*
X173959620Y-52394340D01*
X173530360Y-51769500D01*
X173492260Y-51711080D01*
X173339860Y-51487560D01*
X173215400Y-51302140D01*
X173134120Y-51175140D01*
X173103640Y-51121800D01*
X173106180Y-51116720D01*
X173159520Y-51055760D01*
X173276360Y-50931300D01*
X173441460Y-50761120D01*
X173637040Y-50565540D01*
X173781820Y-50420760D01*
X173957080Y-50248040D01*
X174073920Y-50138820D01*
X174150120Y-50080400D01*
X174195840Y-50057540D01*
X174226320Y-50062620D01*
X174289820Y-50103260D01*
X174426980Y-50194700D01*
X174617480Y-50324240D01*
X174838460Y-50476640D01*
X175021340Y-50601100D01*
X175232160Y-50735720D01*
X175382020Y-50824620D01*
X175455680Y-50855100D01*
X175486160Y-50847480D01*
X175608080Y-50804300D01*
X175793500Y-50730640D01*
X176011940Y-50636660D01*
X176507240Y-50418220D01*
X176570740Y-50095640D01*
X176606300Y-49897520D01*
X176659640Y-49623200D01*
X176710440Y-49361580D01*
X176789180Y-48950100D01*
X178297940Y-48934860D01*
X178325880Y-48998360D01*
G36*
X178325880Y-48998360D02*
G01*
X178341120Y-49059320D01*
X178376680Y-49211720D01*
X178419860Y-49430160D01*
X178468120Y-49684160D01*
X178508760Y-49902600D01*
X178549400Y-50123580D01*
X178579880Y-50281060D01*
X178595120Y-50352180D01*
X178617980Y-50369960D01*
X178724660Y-50423300D01*
X178894840Y-50502040D01*
X179098040Y-50588400D01*
X179308860Y-50677300D01*
X179504440Y-50753500D01*
X179651760Y-50809380D01*
X179730500Y-50829700D01*
X179786380Y-50799220D01*
X179915920Y-50715400D01*
X180101340Y-50593480D01*
X180319780Y-50446160D01*
X180538220Y-50296300D01*
X180723640Y-50169300D01*
X180858260Y-50082940D01*
X180919220Y-50044840D01*
X180962400Y-50062620D01*
X181066540Y-50151520D01*
X181239260Y-50316620D01*
X181480560Y-50560460D01*
X181518660Y-50601100D01*
X181706620Y-50796680D01*
X181859020Y-50961780D01*
X181960620Y-51076080D01*
X181998720Y-51126880D01*
X181968240Y-51185300D01*
X181886960Y-51314840D01*
X181765040Y-51500260D01*
X181617720Y-51721240D01*
X181467860Y-51942220D01*
X181345940Y-52122560D01*
X181264660Y-52249560D01*
X181236720Y-52302900D01*
X181246880Y-52330840D01*
X181297680Y-52434980D01*
X181376420Y-52587380D01*
X181422140Y-52676280D01*
X181480560Y-52815980D01*
X181493260Y-52884560D01*
X181475480Y-52897260D01*
X181368800Y-52948060D01*
X181185920Y-53026800D01*
X180944620Y-53133480D01*
X180662680Y-53252860D01*
X180357880Y-53382400D01*
X180048000Y-53511940D01*
X179750820Y-53633860D01*
X179484120Y-53743080D01*
X179268220Y-53829440D01*
X179118360Y-53887860D01*
X179052320Y-53908180D01*
X179039620Y-53903100D01*
X178971040Y-53831980D01*
X178879600Y-53710060D01*
X178666240Y-53448440D01*
X178341120Y-53186820D01*
X177972820Y-53029340D01*
X177563880Y-52976000D01*
X177182880Y-53021720D01*
X176817120Y-53171580D01*
X176489460Y-53425580D01*
X176245620Y-53732920D01*
X176090680Y-54093600D01*
X176042420Y-54500000D01*
X176085600Y-54888620D01*
X176232920Y-55259460D01*
X176481840Y-55589660D01*
X176641860Y-55726820D01*
X176974600Y-55917320D01*
X177330200Y-56026540D01*
X177421640Y-56039240D01*
X177812800Y-56021460D01*
X178186180Y-55907160D01*
X178521460Y-55701420D01*
X178795780Y-55414400D01*
X178823720Y-55378840D01*
X178922780Y-55244220D01*
X178991360Y-55155320D01*
X179047240Y-55086740D01*
X180246120Y-55584580D01*
X180436620Y-55663320D01*
X180764280Y-55800480D01*
X181046220Y-55919860D01*
X181269740Y-56016380D01*
X181419600Y-56082420D01*
X181480560Y-56112900D01*
X181483100Y-56115440D01*
X181490720Y-56158620D01*
X181457700Y-56250060D01*
X181376420Y-56417700D01*
X181320540Y-56529460D01*
X181259580Y-56656460D01*
X181236720Y-56712340D01*
X181262120Y-56760600D01*
X181340860Y-56882520D01*
X181460240Y-57060320D01*
X181607560Y-57276220D01*
X181744720Y-57479420D01*
X181869180Y-57667380D01*
X181955540Y-57804540D01*
X181991100Y-57870580D01*
X181991100Y-57880740D01*
X181958080Y-57939160D01*
X181869180Y-58045840D01*
X181714240Y-58210940D01*
X181485640Y-58442080D01*
X181452620Y-58477640D01*
X181259580Y-58665600D01*
X181097020Y-58820540D01*
X180982720Y-58924680D01*
X180929380Y-58960240D01*
X180863340Y-58927220D01*
X180728720Y-58840860D01*
X180538220Y-58716400D01*
X180314700Y-58564000D01*
X179738120Y-58167760D01*
X179194560Y-58386200D01*
X179029460Y-58452240D01*
X178826260Y-58538600D01*
X178681480Y-58602100D01*
X178617980Y-58632580D01*
X178597660Y-58693540D01*
X178562100Y-58840860D01*
X178516380Y-59056760D01*
X178468120Y-59315840D01*
X178424940Y-59559680D01*
X178381760Y-59780660D01*
X178351280Y-59943220D01*
X178336040Y-60014340D01*
X178325880Y-60032120D01*
X178292860Y-60044820D01*
X178216660Y-60054980D01*
X178082040Y-60060060D01*
X177868680Y-60062600D01*
X177563880Y-60062600D01*
X177530860Y-60062600D01*
X177236220Y-60060060D01*
X177005080Y-60054980D01*
X176850140Y-60047360D01*
X176791720Y-60037200D01*
X176789180Y-60037200D01*
X176773940Y-59968620D01*
X176740920Y-59811140D01*
X176697740Y-59590160D01*
X176646940Y-59326000D01*
X176644400Y-59308220D01*
X176593600Y-59046600D01*
X176547880Y-58825620D01*
X176512320Y-58670680D01*
X176492000Y-58604640D01*
X176471680Y-58591940D01*
X176370080Y-58538600D01*
X176207520Y-58462400D01*
X176006860Y-58376040D01*
X175801120Y-58289680D01*
X175615700Y-58216020D01*
X175476000Y-58165220D01*
X175412500Y-58149980D01*
X175412500Y-58152520D01*
X175349000Y-58190620D01*
X175211840Y-58282060D01*
X175021340Y-58409060D01*
X174797820Y-58564000D01*
X174782580Y-58574160D01*
X174559060Y-58726560D01*
X174371100Y-58848480D01*
X174236480Y-58929760D01*
X174175520Y-58960240D01*
X174172980Y-58960240D01*
X174106940Y-58909440D01*
X173979940Y-58797680D01*
X173809760Y-58635120D01*
X173614180Y-58439540D01*
X173553220Y-58378580D01*
X173342400Y-58162680D01*
X173202700Y-58010280D01*
X173129040Y-57918840D01*
X173113800Y-57873120D01*
X173113800Y-57870580D01*
X173154440Y-57804540D01*
X173245880Y-57664840D01*
X173375420Y-57474340D01*
X173530360Y-57248280D01*
X173540520Y-57233040D01*
X173690380Y-57009520D01*
X173817380Y-56824100D01*
X173903740Y-56692020D01*
X173939300Y-56636140D01*
X173939300Y-56625980D01*
X173911360Y-56534540D01*
X173855480Y-56377060D01*
X173781820Y-56181480D01*
X173698000Y-55975740D01*
X173619260Y-55790320D01*
X173555760Y-55648080D01*
X173517660Y-55582040D01*
X173515120Y-55582040D01*
X173436380Y-55556640D01*
X173268740Y-55518540D01*
X173040140Y-55472820D01*
X172768360Y-55419480D01*
X172722640Y-55411860D01*
X172458480Y-55361060D01*
X172240040Y-55317880D01*
X172087640Y-55287400D01*
X172026680Y-55272160D01*
X172016520Y-55234060D01*
X172006360Y-55104520D01*
X172001280Y-54906400D01*
X171998740Y-54667640D01*
X172001280Y-54416180D01*
X172006360Y-54169800D01*
X172013980Y-53958980D01*
X172024140Y-53809120D01*
X172036840Y-53748160D01*
X172039380Y-53745620D01*
X172123200Y-53722760D01*
X172288300Y-53684660D01*
X172519440Y-53638940D01*
X172793760Y-53585600D01*
X172842020Y-53575440D01*
X173106180Y-53527180D01*
X173322080Y-53481460D01*
X173471940Y-53450980D01*
X173530360Y-53433200D01*
X173543060Y-53410340D01*
X173591320Y-53301120D01*
X173664980Y-53123320D01*
X173753880Y-52904880D01*
X173959620Y-52394340D01*
X173530360Y-51769500D01*
X173492260Y-51711080D01*
X173339860Y-51487560D01*
X173215400Y-51302140D01*
X173134120Y-51175140D01*
X173103640Y-51121800D01*
X173106180Y-51116720D01*
X173159520Y-51055760D01*
X173276360Y-50931300D01*
X173441460Y-50761120D01*
X173637040Y-50565540D01*
X173781820Y-50420760D01*
X173957080Y-50248040D01*
X174073920Y-50138820D01*
X174150120Y-50080400D01*
X174195840Y-50057540D01*
X174226320Y-50062620D01*
X174289820Y-50103260D01*
X174426980Y-50194700D01*
X174617480Y-50324240D01*
X174838460Y-50476640D01*
X175021340Y-50601100D01*
X175232160Y-50735720D01*
X175382020Y-50824620D01*
X175455680Y-50855100D01*
X175486160Y-50847480D01*
X175608080Y-50804300D01*
X175793500Y-50730640D01*
X176011940Y-50636660D01*
X176507240Y-50418220D01*
X176570740Y-50095640D01*
X176606300Y-49897520D01*
X176659640Y-49623200D01*
X176710440Y-49361580D01*
X176789180Y-48950100D01*
X178297940Y-48934860D01*
X178325880Y-48998360D01*
G37*
%TD*%
M02*
